<?xml version="1.0" encoding="UTF-8"?>
<svg width="109px" height="160px" viewBox="0 0 109 160" version="1.1" xmlns="http://www.w3.org/2000/svg" xmlns:xlink="http://www.w3.org/1999/xlink">
    <!-- Generator: sketchtool 60.1 (101010) - https://sketch.com -->
    <title>1C7BFE8C-51FB-4335-B7D0-8BDEFF76D47E</title>
    <desc>Created with sketchtool.</desc>
    <g id="Symbols" stroke="none" stroke-width="1" fill="none" fill-rule="evenodd">
        <g id="card/reto/Open" transform="translate(-60.000000, -21.000000)">
            <g id="medalla_bronce" transform="translate(60.000000, 21.000000)">
                <g id="bronce">
                    <path d="M75.1846966,37 L34.8153034,37 C32.176781,37 30,39.1382289 30,41.7300216 L30,67 L80,67 L80,41.7300216 C80,39.0734341 77.823219,37 75.1846966,37 C75.1846966,37 75.1846966,37 75.1846966,37 Z M76.4379947,46.2008639 L32.6385224,46.2008639 L32.6385224,44.2570194 C32.6385224,42.1835853 34.353562,40.4341253 36.530343,40.4341253 L72.6121372,40.4341253 C74.7229551,40.4341253 76.5039578,42.1187905 76.5039578,44.2570194 L76.5039578,44.2570194 L76.5039578,46.2008639 L76.4379947,46.2008639 Z" id="Shape" fill="#C95506" fill-rule="nonzero"></path>
                    <circle id="Oval" fill="#FFB839" fill-rule="nonzero" cx="54.5" cy="105.5" r="54.5"></circle>
                    <path d="M92.2648198,66 C112.807753,87.8252347 112.020165,122.321046 90.4271133,143.084872 C69.6216504,163.118978 36.8710953,163.118978 16,143.084872 C36.5429334,164.910106 70.6717684,165.706164 92.2648198,144.942338 C113.857871,124.178513 114.64546,89.6827015 94.1025263,67.8574668 C93.5118349,67.2604239 92.9211435,66.5970429 92.2648198,66 Z" id="Path" fill="#EA7603" fill-rule="nonzero"></path>
                    <ellipse id="Oval" fill="#FF9B50" fill-rule="nonzero" cx="54.5" cy="106" rx="44.5" ry="44"></ellipse>
                    <g id="Group" opacity="0.69" transform="translate(15.000000, 77.000000)" fill="#FFB448" fill-rule="nonzero">
                        <path d="M34.2554622,59.7693069 C35.3840336,60.6980198 36.1142857,62.0247525 36.4462185,63.4178218 C34.9857143,63.4178218 33.5252101,62.9534653 32.3302521,62.0910891 C31.2016807,61.1623762 30.4714286,59.9019802 30.1394958,58.4425743 C31.6,58.4425743 33.0605042,58.9069307 34.2554622,59.7693069 Z" id="Path"></path>
                        <path d="M32.1310924,63.2851485 C33.5252101,62.8871287 35.0521008,62.8871287 36.4462185,63.3514851 C35.6495798,64.6118812 34.5210084,65.5405941 33.1268908,66.0712871 C31.7327731,66.4693069 30.2058824,66.4693069 28.8117647,66.0049505 C29.6084034,64.8108911 30.8033613,63.8158416 32.1310924,63.2851485 Z" id="Path"></path>
                        <path d="M27.4840336,57.9118812 C28.4134454,58.9732673 29.0109244,60.3663366 29.1436975,61.8257426 C27.6831933,61.6267327 26.3554622,60.9633663 25.2932773,59.9683168 C24.3638655,58.9069307 23.7663866,57.5138614 23.6336134,56.0544554 C25.0277311,56.2534653 26.4218487,56.9168317 27.4840336,57.9118812 Z" id="Path"></path>
                        <path d="M24.894958,61.1623762 C26.3554622,60.9633663 27.8159664,61.1623762 29.1436975,61.8257426 C28.2142857,62.9534653 26.8865546,63.749505 25.492437,64.0811881 C24.0319328,64.280198 22.5714286,64.0811881 21.2436975,63.4178218 C22.1731092,62.290099 23.4344538,61.4940594 24.894958,61.1623762 Z" id="Path"></path>
                        <path d="M22.1067227,55.2584158 C22.9033613,56.5188119 23.2352941,57.9118812 23.102521,59.3712871 C21.7084034,58.9732673 20.4470588,58.1108911 19.5840336,56.9168317 C18.787395,55.6564356 18.4554622,54.2633663 18.5882353,52.8039604 C19.9823529,53.2683168 21.2436975,54.1306931 22.1067227,55.2584158 Z" id="Path"></path>
                        <path d="M19.0529412,58.0445545 C20.5134454,58.0445545 21.9739496,58.5089109 23.1689076,59.3712871 C22.0403361,60.3 20.6462185,60.8970297 19.1857143,61.029703 C17.7252101,61.029703 16.2647059,60.5653465 15.0697479,59.7029703 C16.1983193,58.7742574 17.592437,58.1772277 19.0529412,58.0445545 Z" id="Path"></path>
                        <path d="M17.1277311,51.2782178 C17.592437,52.6712871 17.592437,54.1306931 17.1277311,55.5237624 C15.8663866,54.7940594 14.8705882,53.6663366 14.3394958,52.339604 C13.8747899,50.9465347 13.8747899,49.4871287 14.3394958,48.0940594 C15.5344538,48.8237624 16.5302521,49.9514851 17.1277311,51.2782178 Z" id="Path"></path>
                        <path d="M13.4764706,53.2019802 C14.8705882,53.5336634 16.1983193,54.329703 17.1277311,55.4574257 C15.8,56.1207921 14.3394958,56.319802 12.8789916,56.1207921 C11.4848739,55.7891089 10.1571429,54.9930693 9.22773109,53.8653465 C10.4890756,53.2683168 12.0159664,53.0029703 13.4764706,53.2019802 Z" id="Path"></path>
                        <path d="M13.3436975,46.5683168 C13.410084,48.0277228 13.0781513,49.4871287 12.2815126,50.6811881 C10.0243697,48.6910891 9.62605042,45.3079208 11.3521008,42.7871287 C12.4142857,43.8485149 13.0781513,45.1752475 13.3436975,46.5683168 Z" id="Path"></path>
                        <path d="M9.29411765,47.6960396 C10.5554622,48.3594059 11.6176471,49.4207921 12.2815126,50.7475248 C10.8210084,51.0792079 9.3605042,50.9465347 7.96638655,50.4158416 C6.63865546,49.7524752 5.64285714,48.6910891 4.9789916,47.3643564 C6.4394958,46.9663366 7.9,47.0990099 9.29411765,47.6960396 Z" id="Path"></path>
                        <path d="M10.1571429,40.7306931 C9.95798319,42.190099 9.29411765,43.5168317 8.29831933,44.5782178 C6.50588235,42.1237624 6.77142857,38.7405941 8.96218487,36.6841584 C9.75882353,37.8782178 10.1571429,39.2712871 10.1571429,40.7306931 Z" id="Path"></path>
                        <path d="M5.97478992,40.9960396 C7.10336134,41.9247525 7.9,43.1851485 8.29831933,44.5782178 C6.83781513,44.6445545 5.37731092,44.2465347 4.18235294,43.3841584 C3.05378151,42.4554455 2.1907563,41.1950495 1.85882353,39.8019802 C3.31932773,39.7356436 4.71344538,40.2 5.97478992,40.9960396 Z" id="Path"></path>
                        <path d="M8.49747899,35.1584158 C8.09915966,36.5514851 7.23613445,37.7455446 6.04117647,38.6742574 C5.44369748,37.3475248 5.24453782,35.8881188 5.51008403,34.4950495 C5.90840336,33.1019802 6.77142857,31.8415842 7.96638655,30.9792079 C8.56386555,32.239604 8.76302521,33.6990099 8.49747899,35.1584158 Z" id="Path"></path>
                        <path d="M4.31512605,34.760396 C5.31092437,35.8217822 5.90840336,37.2148515 6.04117647,38.6742574 C4.58067227,38.4752475 3.25294118,37.8782178 2.12436975,36.8831683 C1.12857143,35.8217822 0.531092437,34.4287129 0.398319328,32.9693069 C1.85882353,33.1019802 3.18655462,33.7653465 4.31512605,34.760396 Z" id="Path"></path>
                        <path d="M8.29831933,28.9227723 C7.56806723,30.1831683 6.4394958,31.1782178 5.04537815,31.7089109 C4.77983193,30.3158416 4.9789916,28.790099 5.57647059,27.529703 C6.30672269,26.2693069 7.43529412,25.2742574 8.82941176,24.7435644 C9.09495798,26.1366337 8.89579832,27.5960396 8.29831933,28.9227723 Z" id="Path"></path>
                        <path d="M4.31512605,27.529703 C4.9789916,28.790099 5.24453782,30.249505 5.04537815,31.7089109 C3.71764706,31.1782178 2.52268908,30.249505 1.72605042,29.0554455 C1.06218487,27.7950495 0.796638655,26.3356436 0.995798319,24.8762376 C2.38991597,25.4069307 3.51848739,26.3356436 4.31512605,27.529703 Z" id="Path"></path>
                        <path d="M9.42689076,22.6207921 C8.36470588,23.6821782 7.03697479,24.3455446 5.64285714,24.6108911 C5.7092437,23.1514851 6.24033613,21.7584158 7.1697479,20.6306931 C8.23193277,19.5693069 9.55966387,18.9059406 10.9537815,18.6405941 C10.887395,20.1 10.289916,21.4930693 9.42689076,22.6207921 Z" id="Path"></path>
                        <path d="M5.90840336,20.3653465 C6.24033613,21.7584158 6.17394958,23.2178218 5.57647059,24.6108911 C4.38151261,23.8148515 3.45210084,22.6207921 2.98739496,21.2277228 C2.65546218,19.8346535 2.78823529,18.3089109 3.31932773,16.9821782 C4.51428571,17.8445545 5.37731092,18.9722772 5.90840336,20.3653465 Z" id="Path"></path>
                        <path d="M11.6840336,17.4465347 C10.4226891,18.2425743 8.96218487,18.5742574 7.50168067,18.5079208 C7.9,17.1148515 8.76302521,15.8544554 9.95798319,14.9920792 C11.2193277,14.1960396 12.6134454,13.8643564 14.0739496,13.9306931 C13.6756303,15.3237624 12.812605,16.5178218 11.6840336,17.4465347 Z" id="Path"></path>
                        <path d="M8.76302521,14.4613861 C8.76302521,15.9207921 8.29831933,17.3138614 7.50168067,18.5079208 C5.37731092,16.3851485 5.17815126,13.0019802 7.03697479,10.6138614 C8.03277311,11.6752475 8.6302521,13.0019802 8.76302521,14.4613861 Z" id="Path"></path>
                        <path d="M14.5386555,12.7366337 C13.2109244,13.3336634 11.6840336,13.4663366 10.2235294,13.1346535 C10.887395,11.8079208 11.8831933,10.7465347 13.1445378,10.0831683 C14.4722689,9.48613861 15.9991597,9.35346535 17.4596639,9.68514851 C16.8621849,10.9455446 15.8,12.0732673 14.5386555,12.7366337 Z" id="Path"></path>
                        <path d="M12.1487395,9.35346535 C11.9495798,10.8128713 11.2857143,12.139604 10.2235294,13.1346535 C9.42689076,11.9405941 9.02857143,10.4811881 9.09495798,9.02178218 C9.29411765,7.62871287 10.0243697,6.3019802 11.0201681,5.24059406 C11.8168067,6.5009901 12.2151261,7.96039604 12.1487395,9.35346535 Z" id="Path"></path>
                        <path d="M46.3378151,59.4376238 C45.2092437,60.3663366 44.4789916,61.6930693 44.1470588,63.0861386 C45.607563,63.0861386 47.0680672,62.6217822 48.2630252,61.7594059 C49.3915966,60.8306931 50.1218487,59.5039604 50.4537815,58.1108911 C48.9268908,58.1772277 47.5327731,58.6415842 46.3378151,59.4376238 Z" id="Path"></path>
                        <path d="M48.4621849,63.019802 C47.0680672,62.6217822 45.5411765,62.6217822 44.1470588,63.0861386 C44.9436975,64.3465347 46.0722689,65.2752475 47.4663866,65.8059406 C48.8605042,66.2039604 50.387395,66.2039604 51.7815126,65.739604 C50.9848739,64.5455446 49.8563025,63.550495 48.4621849,63.019802 Z" id="Path"></path>
                        <path d="M52.2462185,57.9118812 C51.3168067,58.9732673 50.7193277,60.3663366 50.5865546,61.8257426 C52.0470588,61.6267327 53.3747899,60.9633663 54.4369748,59.9683168 C55.3663866,58.9069307 55.9638655,57.5138614 56.0966387,56.0544554 C54.702521,56.2534653 53.3084034,56.9168317 52.2462185,57.9118812 Z" id="Path"></path>
                        <path d="M54.8352941,61.1623762 C53.3747899,60.9633663 51.9142857,61.1623762 50.5865546,61.8257426 C51.5159664,62.9534653 52.8436975,63.749505 54.2378151,64.0811881 C55.6983193,64.280198 57.1588235,64.0811881 58.4865546,63.4178218 C57.5571429,62.290099 56.2957983,61.4940594 54.8352941,61.1623762 Z" id="Path"></path>
                        <path d="M57.6235294,55.0594059 C56.8268908,56.319802 56.494958,57.7128713 56.6277311,59.1722772 C58.0218487,58.7742574 59.2831933,57.9118812 60.1462185,56.7178218 C60.9428571,55.4574257 61.2747899,54.0643564 61.1420168,52.6049505 C59.7478992,53.0693069 58.4865546,53.9316832 57.6235294,55.0594059 Z" id="Path"></path>
                        <path d="M60.6773109,57.8455446 C59.2168067,57.8455446 57.7563025,58.309901 56.5613445,59.1722772 C57.689916,60.1009901 59.0840336,60.6980198 60.5445378,60.8306931 C62.005042,60.8306931 63.4655462,60.3663366 64.6605042,59.5039604 C63.5319328,58.5752475 62.1378151,57.9782178 60.6773109,57.8455446 Z" id="Path"></path>
                        <path d="M62.4033613,51.1455446 C61.9386555,52.5386139 61.9386555,53.9980198 62.4033613,55.3910891 C63.6647059,54.6613861 64.6605042,53.5336634 65.1915966,52.2069307 C65.6563025,50.8138614 65.6563025,49.3544554 65.1915966,47.9613861 C63.9966387,48.6910891 63.0008403,49.8188119 62.4033613,51.1455446 Z" id="Path"></path>
                        <path d="M66.1210084,53.1356436 C64.7268908,53.4673267 63.3991597,54.2633663 62.4697479,55.3910891 C65.1252101,56.850495 68.5109244,56.1871287 70.3697479,53.7990099 C69.0420168,53.1356436 67.5151261,52.870297 66.1210084,53.1356436 Z" id="Path"></path>
                        <path d="M66.3865546,46.170297 C66.3201681,47.629703 66.6521008,49.0227723 67.4487395,50.2831683 C69.7058824,48.2930693 70.1042017,44.909901 68.3781513,42.3891089 C67.3159664,43.3841584 66.6521008,44.7108911 66.3865546,46.170297 Z" id="Path"></path>
                        <path d="M70.4361345,47.2316832 C69.1747899,47.8950495 68.112605,48.9564356 67.4487395,50.2831683 C68.9092437,50.6148515 70.3697479,50.4821782 71.7638655,49.9514851 C73.0252101,49.2881188 74.087395,48.2267327 74.7512605,46.9 C73.2907563,46.5683168 71.8302521,46.7009901 70.4361345,47.2316832 Z" id="Path"></path>
                        <path d="M69.2411765,40.5980198 C69.4403361,42.0574257 70.1042017,43.3841584 71.1,44.4455446 C72.892437,41.9910891 72.6268908,38.6079208 70.4361345,36.5514851 C69.6394958,37.7455446 69.1747899,39.1386139 69.2411765,40.5980198 Z" id="Path"></path>
                        <path d="M73.4235294,40.8633663 C72.294958,41.7920792 71.4983193,43.0524752 71.1,44.4455446 C72.5605042,44.5118812 74.0210084,44.0475248 75.2159664,43.2514851 C76.3445378,42.3227723 77.1411765,41.0623762 77.5394958,39.6693069 C76.0789916,39.6693069 74.6848739,40.0673267 73.4235294,40.8633663 Z" id="Path"></path>
                        <path d="M70.9008403,35.0257426 C71.2991597,36.4188119 72.1621849,37.6128713 73.3571429,38.5415842 C73.9546218,37.2148515 74.1537815,35.7554455 73.8882353,34.2960396 C73.489916,32.9029703 72.6268908,31.7089109 71.4319328,30.780198 C70.8344538,32.1069307 70.6352941,33.5663366 70.9008403,35.0257426 Z" id="Path"></path>
                        <path d="M75.0831933,34.6277228 C74.087395,35.6891089 73.489916,37.0821782 73.3571429,38.5415842 C74.8176471,38.3425743 76.1453782,37.7455446 77.2739496,36.750495 C78.2697479,35.6891089 78.8672269,34.2960396 79,32.8366337 C77.5394958,33.0356436 76.1453782,33.6326733 75.0831933,34.6277228 Z" id="Path"></path>
                        <path d="M71.1,28.9891089 C71.8302521,30.249505 72.9588235,31.2445545 74.3529412,31.7752475 C74.6184874,30.3821782 74.4193277,28.8564356 73.8218487,27.5960396 C73.0915966,26.3356436 71.9630252,25.3405941 70.5689076,24.809901 C70.2369748,26.2029703 70.4361345,27.6623762 71.1,28.9891089 Z" id="Path"></path>
                        <path d="M75.0168067,27.5960396 C74.3529412,28.8564356 74.087395,30.3158416 74.2865546,31.7752475 C75.6142857,31.2445545 76.8092437,30.3158416 77.6058824,29.1217822 C78.2697479,27.8613861 78.5352941,26.4019802 78.3361345,24.9425743 C77.0084034,25.4732673 75.8134454,26.4019802 75.0168067,27.5960396 Z" id="Path"></path>
                        <path d="M69.905042,22.6871287 C70.9672269,23.7485149 72.294958,24.4118812 73.6890756,24.6772277 C73.6226891,23.2178218 73.0915966,21.8247525 72.1621849,20.6970297 C71.1,19.6356436 69.7722689,18.9722772 68.3781513,18.7069307 C68.4445378,20.1663366 68.9756303,21.5594059 69.905042,22.6871287 Z" id="Path"></path>
                        <path d="M73.4235294,20.4316832 C73.0915966,21.8247525 73.1579832,23.2841584 73.6890756,24.6772277 C74.8840336,23.8811881 75.8134454,22.6871287 76.3445378,21.2940594 C76.6764706,19.9009901 76.610084,18.4415842 76.0789916,17.0485149 C74.8176471,17.9108911 73.8882353,19.0386139 73.4235294,20.4316832 Z" id="Path"></path>
                        <path d="M67.7142857,17.5792079 C68.9756303,18.3752475 70.4361345,18.7069307 71.8966387,18.6405941 C71.4983193,17.2475248 70.6352941,15.9871287 69.5067227,15.1247525 C68.2453782,14.3287129 66.7848739,13.9970297 65.3243697,14.0633663 C65.7226891,15.5227723 66.5857143,16.7168317 67.7142857,17.5792079 Z" id="Path"></path>
                        <path d="M70.5689076,14.660396 C70.5689076,16.119802 71.0336134,17.5128713 71.8302521,18.7069307 C73.9546218,16.5841584 74.1537815,13.2009901 72.294958,10.8128713 C71.3655462,11.8079208 70.7680672,13.2009901 70.5689076,14.660396 Z" id="Path"></path>
                        <path d="M64.6605042,12.9356436 C65.9882353,13.5326733 67.5151261,13.6653465 68.9092437,13.3336634 C68.2453782,12.0069307 67.2495798,10.9455446 65.9882353,10.2158416 C64.6605042,9.61881188 63.1336134,9.48613861 61.6731092,9.81782178 C62.3369748,11.2108911 63.3991597,12.2722772 64.6605042,12.9356436 Z" id="Path"></path>
                        <path d="M67.0504202,9.55247525 C67.2495798,11.0118812 67.9134454,12.3386139 68.9756303,13.3336634 C70.7680672,10.8792079 70.4361345,7.4960396 68.1789916,5.43960396 C67.3823529,6.7 66.9840336,8.09306931 67.0504202,9.55247525 Z" id="Path"></path>
                        <path d="M63.0672269,6.3019802 C62.9344538,6.36831683 62.8680672,6.5009901 62.7352941,6.56732673 L62.602521,6.63366337 C69.7722689,12.6039604 73.9546218,21.4267327 74.0210084,30.7138614 C74.0210084,48.6247525 58.6193277,63.1524752 39.6327731,63.1524752 C20.6462185,63.1524752 5.24453782,48.6247525 5.24453782,30.7138614 C5.31092437,21.8247525 9.09495798,13.4 15.7336134,7.42970297 C15.5344538,7.36336634 15.3352941,7.2970297 15.202521,7.23069307 C8.56386555,13.2673267 4.77983193,21.7584158 4.71344538,30.7138614 C4.71344538,48.890099 20.3806723,63.6831683 39.6327731,63.6831683 C58.8848739,63.6831683 74.5521008,48.890099 74.5521008,30.7138614 C74.5521008,21.2940594 70.3033613,12.3386139 63.0672269,6.3019802 Z" id="Path"></path>
                        <path d="M19.1857143,8.62376238 C17.7252101,8.88910891 16.2647059,8.62376238 14.9369748,8.02673267 C15.8663866,6.8990099 17.1277311,6.1029703 18.5882353,5.7049505 C20.0487395,5.43960396 21.5092437,5.7049505 22.8369748,6.3019802 C21.8411765,7.42970297 20.5798319,8.22574257 19.1857143,8.62376238 Z" id="Path"></path>
                        <path d="M17.6588235,4.77623762 C17.0613445,6.1029703 16.1319328,7.23069307 14.8705882,8.02673267 C14.4058824,6.63366337 14.4058824,5.17425743 14.8042017,3.78118812 C15.4016807,2.45445545 16.3310924,1.32673267 17.592437,0.530693069 C18.1235294,1.92376238 18.1235294,3.38316832 17.6588235,4.77623762 Z" id="Path"></path>
                        <path d="M60.2789916,8.62376238 C61.7394958,8.88910891 63.2,8.62376238 64.5277311,8.02673267 C62.6689076,5.57227723 59.3495798,4.90891089 56.6277311,6.36831683 C57.6235294,7.42970297 58.8848739,8.22574257 60.2789916,8.62376238 Z" id="Path"></path>
                        <path d="M61.7394958,4.77623762 C62.3369748,6.1029703 63.2663866,7.23069307 64.5277311,8.02673267 C64.992437,6.63366337 64.992437,5.17425743 64.5941176,3.78118812 C63.9966387,2.45445545 63.0672269,1.32673267 61.8058824,0.530693069 C61.3411765,1.92376238 61.3411765,3.38316832 61.7394958,4.77623762 Z" id="Path"></path>
                    </g>
                    <path d="M62.7681416,117.757282 L47.0973451,117.757282 L47.0973451,116.058252 L62.7681416,116.058252 L62.7681416,117.757282 L62.7681416,117.757282 Z M59.1362832,113.883495 L50.7964602,113.883495 L52.4106195,110.417476 L57.5221239,110.417476 L59.1362832,113.883495 Z M50.8637168,103.68932 L59.0690265,103.68932 L59.539823,108.31068 L50.460177,108.31068 L50.8637168,103.68932 Z M51.3345133,98.592233 L58.5309735,98.592233 L58.8,101.514563 L51.0654867,101.514563 L51.3345133,98.592233 Z M51.8053097,94.1747573 L58.1946903,94.1747573 L58.3964602,96.4854369 L51.5362832,96.4854369 L51.8053097,94.1747573 Z M49.3168142,96.4854369 L42.3221239,96.4854369 L42.9946903,94.1747573 L49.5858407,94.1747573 L49.3168142,96.4854369 Z M48.8460177,101.582524 L40.8424779,101.582524 L41.6495575,98.592233 L49.1150442,98.592233 L48.8460177,101.582524 Z M48.1734513,108.31068 L38.8920354,108.31068 L40.2371681,103.68932 L48.6442478,103.68932 L48.1734513,108.31068 Z M66.9380531,94.1747573 L67.6106195,96.4854369 L60.6159292,96.4854369 L60.4141593,94.1747573 L66.9380531,94.1747573 Z M69.0902655,101.582524 L61.0867257,101.582524 L60.8176991,98.6601942 L68.2831858,98.6601942 L69.0902655,101.582524 Z M71.040708,108.31068 L61.6920354,108.31068 L61.2212389,103.68932 L69.6955752,103.68932 L71.040708,108.31068 Z M59.9433628,110.485437 L74,110.485437 L68.6867257,92 L41.3132743,92 L36,110.485437 L50.0566372,110.485437 L48.4424779,113.951456 L44.9451327,113.951456 L44.9451327,120 L65.0548673,120 L65.0548673,113.951456 L61.6247788,113.951456 L59.9433628,110.485437 Z" id="Shape" fill="#FFB448"></path>
                    <polygon id="Path" fill="#002A54" fill-rule="nonzero" opacity="0.75" points="18 0 35.5150784 44 73 44 55.9493366 0"></polygon>
                    <polyline id="Path" fill="#002A54" fill-rule="nonzero" opacity="0.27" points="24.8942308 0 22 0 40.1057692 44 43 44"></polyline>
                    <polyline id="Path" fill="#002A54" fill-rule="nonzero" opacity="0.27" points="33.8942308 0 31 0 49.1057692 44 52 44"></polyline>
                    <polyline id="Path" fill="#002A54" fill-rule="nonzero" opacity="0.27" points="41.8942308 0 39 0 57.1057692 44 60 44"></polyline>
                    <polyline id="Path" fill="#002A54" fill-rule="nonzero" opacity="0.27" points="50.8942308 0 48 0 66.1057692 44 69 44"></polyline>
                    <polygon id="Path" fill="#002A54" fill-rule="nonzero" points="91 0 73.1266428 44 36 44 52.4934289 0"></polygon>
                </g>
            </g>
        </g>
    </g>
</svg>