<svg xmlns="http://www.w3.org/2000/svg" width="246" height="199" viewBox="0 0 246 199">
    <g fill="none" fill-rule="evenodd">
        <path fill="#F1F3F5" d="M0 0H246V199H0z"/>
        <g>
            <path fill="#DB4196" d="M47.239 0H18.76C16.684 0 15 1.707 15 3.812v20.524c0 2.105 1.684 3.811 3.76 3.811h2.412V34l5.774-5.853H47.24c2.077 0 3.761-1.706 3.761-3.811V3.812C51 1.707 49.316 0 47.239 0" transform="translate(36 42)"/>
            <path fill="#FFF" d="M67.239 16H38.76C36.684 16 35 17.707 35 19.812v20.523c0 2.106 1.684 3.812 3.76 3.812h20.294L64.828 50v-5.853h2.41c2.078 0 3.762-1.706 3.762-3.812V19.812C71 17.707 69.316 16 67.239 16" transform="translate(36 42)"/>
            <g transform="translate(36 42) translate(0 59)">
                <ellipse cx="38" cy="59.5" fill="#222" fill-opacity=".242" rx="19" ry="3.5"/>
                <path fill="#002A54" d="M76 47.15L0 47.15 5.488 0.087 70.512 0.087z"/>
                <path fill="#FFF" opacity=".2" style="mix-blend-mode:screen" d="M3.716 43.764L8.432 3.472 67.568 3.472 72.284 43.764z"/>
                <path fill="#033259" d="M37.493 3.472H38.506V43.763H37.493z" opacity=".64"/>
                <path fill="#033259" d="M48.123 3.492L49.221 3.492 49.218 43.959 48.12 43.96z" opacity=".64" transform="rotate(-2.23 48.67 23.726)"/>
                <path fill="#033259" d="M58.78 3.442L59.878 3.442 59.872 43.998 58.774 43.999z" opacity=".64" transform="rotate(-4.46 59.326 23.72)"/>
                <path fill="#033259" d="M7.143 23.174L47.61 23.171 47.61 24.269 7.143 24.272z" opacity=".64" transform="rotate(-87.76 27.376 23.722)"/>
                <path fill="#033259" d="M-3.566 23.166L36.991 23.16 36.991 24.259 -3.566 24.264z" opacity=".64" transform="rotate(-85.52 16.713 23.712)"/>
                <path fill="#033259" d="M7.431 10.921H68.569V11.937H7.431zM6.756 19.047H69.583V20.063000000000002H6.756zM5.742 27.173H70.595V28.189H5.742zM4.729 35.299H71.609V36.315H4.729z" opacity=".64"/>
                <path fill="#414042" d="M32.089 46.811H43.911V56.63H32.089z"/>
                <path fill="#505050" d="M28.711 54.26H47.289V59H28.711z"/>
                <path fill="#FFF" opacity=".1" style="mix-blend-mode:screen" d="M76 47.157L70.487 0.087 37.831 0.087 37.831 59 47.203 59 47.203 54.225 43.805 54.225 43.805 47.157z"/>
            </g>
            <path fill="#F3F5F7" d="M115.703 18.73c-2.045.362-3.407 2.335-3.041 4.408l3.564 20.212c.365 2.073 2.32 3.461 4.365 3.1l19.985-3.523 6.703 4.76-1.017-5.763 2.375-.419c2.046-.36 3.407-2.333 3.042-4.407l-3.564-20.212c-.366-2.073-2.32-3.461-4.366-3.1l-28.046 4.945z" transform="translate(36 42)"/>
            <path fill="#476583" d="M163.493 14.685L128.555 1.968c-2.548-.927-5.369.397-6.3 2.957l-9.085 24.958c-.931 2.56.379 5.387 2.927 6.315l2.958 1.076-2.59 7.118 9.674-4.54 24.896 9.062c2.548.928 5.37-.396 6.3-2.956L166.42 21c.932-2.56-.379-5.388-2.927-6.315" transform="translate(36 42)"/>
            <g transform="translate(36 42) translate(95 59)">
                <ellipse cx="38" cy="59.5" fill="#222" fill-opacity=".242" rx="19" ry="3.5"/>
                <path fill="#002A54" d="M76 47.15L0 47.15 5.488 0.087 70.512 0.087z"/>
                <path fill="#FFF" opacity=".2" style="mix-blend-mode:screen" d="M3.716 43.764L8.432 3.472 67.568 3.472 72.284 43.764z"/>
                <path fill="#033259" d="M37.493 3.472H38.506V43.763H37.493z" opacity=".64"/>
                <path fill="#033259" d="M48.123 3.492L49.221 3.492 49.218 43.959 48.12 43.96z" opacity=".64" transform="rotate(-2.23 48.67 23.726)"/>
                <path fill="#033259" d="M58.78 3.442L59.878 3.442 59.872 43.998 58.774 43.999z" opacity=".64" transform="rotate(-4.46 59.326 23.72)"/>
                <path fill="#033259" d="M7.143 23.174L47.61 23.171 47.61 24.269 7.143 24.272z" opacity=".64" transform="rotate(-87.76 27.376 23.722)"/>
                <path fill="#033259" d="M-3.566 23.166L36.991 23.16 36.991 24.259 -3.566 24.264z" opacity=".64" transform="rotate(-85.52 16.713 23.712)"/>
                <path fill="#033259" d="M7.431 10.921H68.569V11.937H7.431zM6.756 19.047H69.583V20.063000000000002H6.756zM5.742 27.173H70.595V28.189H5.742zM4.729 35.299H71.609V36.315H4.729z" opacity=".64"/>
                <path fill="#414042" d="M32.089 46.811H43.911V56.63H32.089z"/>
                <path fill="#505050" d="M28.711 54.26H47.289V59H28.711z"/>
                <path fill="#FFF" opacity=".1" style="mix-blend-mode:screen" d="M76 47.157L70.487 0.087 37.831 0.087 37.831 59 47.203 59 47.203 54.225 43.805 54.225 43.805 47.157z"/>
            </g>
        </g>
    </g>
</svg>
