<svg xmlns="http://www.w3.org/2000/svg" xmlns:xlink="http://www.w3.org/1999/xlink" width="335" height="112" viewBox="0 0 335 112">
    <defs>
        <path id="prefix__a" d="M14.825.775C10.963 7.164 6.11 12.934.44 17.867c-.372.324-.222.924.264 1.028 2.138.456 4.23 1.101 6.248 1.929 2.028.829 3.974 1.835 5.816 3.006.419.267.96-.053.933-.541-.43-7.422.326-14.867 2.234-22.062.116-.438-.236-.75-.596-.75-.193 0-.39.09-.515.298z"/>
        <path id="prefix__c" d="M5.14.903C4.68 2.982 4.03 5.014 3.2 6.978c-.82 1.957-1.815 3.837-2.976 5.617-.264.405.056.928.541.9 7.428-.404 14.877.337 22.075 2.189.673.173 1.051-.725.453-1.075-6.402-3.75-12.183-8.46-17.126-13.96-.124-.139-.289-.203-.45-.203-.26 0-.514.167-.578.457z"/>
        <path id="prefix__e" d="M.353 1.119C7.297 4.982 13.55 9.917 18.85 15.733c.26.286.737.162.818-.212.468-2.153 1.144-4.257 2.017-6.286.87-2.042 1.935-4 3.183-5.847.216-.32-.03-.735-.422-.712-7.99.46-16.008-.354-23.732-2.4C.668.263.622.258.58.258c-.446 0-.663.617-.226.861z"/>
        <path id="prefix__g" d="M.07 1.16C1.966 8.35 2.68 15.787 2.18 23.19c-.033.49.513.816.934.548 1.875-1.2 3.863-2.226 5.94-3.067 2.028-.815 4.128-1.456 6.274-1.916.487-.105.636-.706.263-1.03C9.902 12.802 5.043 7.058 1.18.709 1.054.5.86.411.667.411c-.36 0-.711.312-.596.749z"/>
        <path id="prefix__i" d="M22.811.326C15.643 2.145 8.224 2.837.826 2.37c-.485-.03-.81.489-.55.896 1.153 1.81 2.15 3.714 2.978 5.692.834 1.97 1.493 4.006 1.97 6.088.108.468.707.61 1.029.25C11.163 9.805 16.904 5.119 23.262 1.4c.546-.32.28-1.096-.285-1.096-.053 0-.108.006-.166.02z"/>
        <path id="prefix__k" d="M0 128L348.953 128 348.953 0.102 0 0.102z"/>
        <path id="prefix__m" d="M.867 2.93C2.635 6.026 4.67 8.644 6.51 11.684c1.8 2.973 4.058 4.763 7.533 4.97 7.934.474 24.526 1.817 24.908 1.82 2.467.023 1.447-1.888.978-2.43-2.426-2.808-4.958-5.52-7.365-8.346-1.662-1.952-3.723-2.956-6.156-3.335C22.32 3.727 6.183 1.173 1.97.635 1.77.609 1.363.502.99.502.283.502-.303.886.867 2.931z"/>
        <path id="prefix__o" d="M.867 2.93C2.635 6.026 4.67 8.644 6.51 11.684c1.8 2.973 4.058 4.763 7.533 4.97 7.934.474 24.526 1.817 24.908 1.82 2.467.023 1.447-1.888.978-2.43-2.426-2.808-4.958-5.52-7.365-8.346-1.662-1.952-3.723-2.956-6.156-3.335C22.32 3.727 6.183 1.173 1.97.635 1.77.609 1.363.502.99.502.283.502-.303.886.867 2.931z"/>
        <path id="prefix__q" d="M.846 2.52c3.05 4.356 5.812 8.284 8.864 12.64 1.503 2.144 3.54 3.402 6.036 3.476 4.78.143 22.588.094 26.705.005 2.897.014 2.352-2.036 1.26-3.04-3.242-3.687-6.583-7.283-9.82-10.975-1.66-1.894-3.69-2.88-6.109-3.106C23.02 1.074 5.721.195 1.832.01H1.78C1.068.01-.41.63.846 2.52z"/>
        <path id="prefix__s" d="M.846 2.52c3.05 4.356 5.812 8.284 8.864 12.64 1.503 2.144 3.54 3.402 6.036 3.476 4.78.143 22.588.094 26.705.005 2.897.014 2.352-2.036 1.26-3.04-3.242-3.687-6.583-7.283-9.82-10.975-1.66-1.894-3.69-2.88-6.109-3.106C23.02 1.074 5.721.195 1.832.01H1.78C1.068.01-.41.63.846 2.52z"/>
        <path id="prefix__u" d="M3.297.558c-2.683.183-4 1.06-1.943 3.898 3.786 5.3 7.77 10.46 11.471 15.817 2.514 3.638 5.864 4.709 9.98 4.098 7.736-1.149 15.47-2.314 23.19-3.566.93-.15 2.157-.681 2.52-1.4.271-.54-.432-1.84-1.03-2.505-4.247-4.721-8.578-9.368-12.885-14.035-1.657-1.797-3.776-2.63-6.157-2.672C27.973.185 27.33.18 26.554.18c-6.02 0-20.06.228-23.257.377z"/>
        <path id="prefix__w" d="M3.297.558c-2.683.183-4 1.06-1.943 3.898 3.786 5.3 7.77 10.46 11.471 15.817 2.514 3.638 5.864 4.709 9.98 4.098 7.736-1.149 15.47-2.314 23.19-3.566.93-.15 2.157-.681 2.52-1.4.271-.54-.432-1.84-1.03-2.505-4.247-4.721-8.578-9.368-12.885-14.035-1.657-1.797-3.776-2.63-6.157-2.672C27.973.185 27.33.18 26.554.18c-6.02 0-20.06.228-23.257.377z"/>
        <path id="prefix__y" d="M1.249 2c2.498 2.682 5.07 5.3 7.505 8.036 1.954 2.194 3.844 2.79 6.71 3.001 3.125.23 11.859.607 15.284.869 2.337.177 2.215-.503 1.843-.855-2.861-2.711-5.494-5.317-8.3-8.05-1.454-1.418-3.094-1.717-4.589-2C14.848 2.084 7.966.987 3.062.38 2.505.31 2.057.28 1.698.28c-2.428 0-.755 1.392-.45 1.718z"/>
        <path id="prefix__A" d="M1.249 2c2.498 2.682 5.07 5.3 7.505 8.036 1.954 2.194 3.844 2.79 6.71 3.001 3.125.23 11.859.607 15.284.869 2.337.177 2.215-.503 1.843-.855-2.861-2.711-5.494-5.317-8.3-8.05-1.454-1.418-3.094-1.717-4.589-2C14.848 2.084 7.966.987 3.062.38 2.505.31 2.057.28 1.698.28c-2.428 0-.755 1.392-.45 1.718z"/>
        <path id="prefix__C" d="M1.399 2.086c3.302 3.576 6.295 7.11 9.573 10.706 1.842 2.022 3.926 2.886 6.601 2.871 1.655-.009 3.31-.008 4.966-.007 3.261.002 6.522.004 9.78-.073 3.024-.072 2.902-.94 1.28-2.568-2.474-2.48-7.163-7.119-9.073-9.017-1.928-1.919-3.548-2.79-5.79-2.954C17.82.977 7.982.438 2.637.082 2.398.066 2.17.056 1.956.056.481.056-.257.491 1.4 2.086z"/>
        <path id="prefix__E" d="M1.399 2.086c3.302 3.576 6.295 7.11 9.573 10.706 1.842 2.022 3.926 2.886 6.601 2.871 1.655-.009 3.31-.008 4.966-.007 3.261.002 6.522.004 9.78-.073 3.024-.072 2.902-.94 1.28-2.568-2.474-2.48-7.163-7.119-9.073-9.017-1.928-1.919-3.548-2.79-5.79-2.954C17.82.977 7.982.438 2.637.082 2.398.066 2.17.056 1.956.056.481.056-.257.491 1.4 2.086z"/>
        <path id="prefix__G" d="M18.697.346C14.93.456 3.733.532 1.913.67.443.783.129 1.568.972 2.747c.22.31 9.25 9.811 13.538 14.25 1.932 2 4.279 2.99 7.173 2.488 1.688-.292 12.204-1.755 15.751-2.326 1.68-.27 1.417-.94-.029-2.295-2.983-2.797-11.315-10.96-12.663-12.198C22.935 1.007 21.517.34 19.113.34c-.135 0-.274.003-.416.007z"/>
        <path id="prefix__I" d="M18.697.346C14.93.456 3.733.532 1.913.67.443.783.129 1.568.972 2.747c.22.31 9.25 9.811 13.538 14.25 1.932 2 4.279 2.99 7.173 2.488 1.688-.292 12.204-1.755 15.751-2.326 1.68-.27 1.417-.94-.029-2.295-2.983-2.797-11.315-10.96-12.663-12.198C22.935 1.007 21.517.34 19.113.34c-.135 0-.274.003-.416.007z"/>
    </defs>
    <g fill="none" fill-rule="evenodd" transform="translate(-14 -14)">
        <path fill="#F6C74F" d="M72.41 69.72c1.38.233 11.142 8.546 21.891 18.01.485.426 1.22.336 1.6-.188 1.81-2.487 3.293-5.293 4.358-8.38 5.325-15.414-1.948-32.641-16.62-39.346-16.321-7.458-35.295.457-41.847 17.16-.825 2.104-1.412 4.244-1.775 6.39-.11.65.316 1.267.957 1.365 11.566 1.774 23.421 3.632 31.437 4.988"/>
        <g transform="translate(77 14)">
            <mask id="prefix__b" fill="#fff">
                <use xlink:href="#prefix__a"/>
            </mask>
            <path fill="#F6C74F" d="M7.805 -13.985L31.609 -4.302 16.564 31.093 -7.24 21.41z" mask="url(#prefix__b)"/>
        </g>
        <g transform="translate(101 77)">
            <mask id="prefix__d" fill="#fff">
                <use xlink:href="#prefix__c"/>
            </mask>
            <path fill="#F6C74F" d="M2.654 -6.773L38.049 7.787 28.366 30.823 -7.029 16.263z" mask="url(#prefix__d)"/>
        </g>
        <g transform="translate(14 46)">
            <mask id="prefix__f" fill="#fff">
                <use xlink:href="#prefix__e"/>
            </mask>
            <path fill="#F6C74F" d="M-3.958 -14.637L32.128 -0.077 22.255 22.959 -13.83 8.399z" mask="url(#prefix__f)"/>
        </g>
        <g transform="translate(47 14)">
            <mask id="prefix__h" fill="#fff">
                <use xlink:href="#prefix__g"/>
            </mask>
            <path fill="#F6C74F" d="M-4.432 -11.006L28.893 2.55 15.035 35.151 -18.29 21.594z" mask="url(#prefix__h)"/>
        </g>
        <g transform="translate(101 46)">
            <mask id="prefix__j" fill="#fff">
                <use xlink:href="#prefix__i"/>
            </mask>
            <path fill="#F6C74F" d="M2.469 -17.466L35.07 -4.056 21.513 28.194 -11.087 14.784z" mask="url(#prefix__j)"/>
        </g>
        <path fill="#8192A6" d="M76.525 104.13c-1.673-1.809-3.813-2.648-6.217-2.69-4.148-.073-21.748.198-25.394.367-2.708.186-4.04 1.07-1.962 3.927 3.824 5.337 7.846 10.536 11.584 15.931 2.539 3.664 5.922 4.743 10.078 4.128 7.812-1.157 15.623-2.331 23.418-3.592.94-.152 2.178-.686 2.544-1.41.275-.544-.436-1.853-1.04-2.523-4.289-4.755-8.662-9.435-13.01-14.137M69.056 100.375c2.88.013 2.338-1.968 1.252-2.938-3.223-3.563-6.545-7.038-9.763-10.606-1.651-1.831-3.67-2.782-6.075-3.001-4.737-.432-21.936-1.281-25.802-1.459-.683-.031-2.261.552-.98 2.424 3.032 4.21 5.779 8.006 8.813 12.215 1.495 2.072 3.52 3.288 6.002 3.36 4.752.137 22.459.09 26.553.005M114.214 115.926c-2.98-2.86-11.302-11.21-12.648-12.477-1.906-1.793-3.38-2.454-6.038-2.374-3.762.114-14.946.19-16.765.332-1.467.115-1.78.918-.939 2.125.22.316 9.24 10.036 13.522 14.577 1.93 2.047 4.275 3.057 7.165 2.545 1.686-.3 12.189-1.796 15.732-2.38 1.677-.277 1.415-.961-.029-2.348M53.746 82.901c2.471.022 1.45-1.825.98-2.349-2.43-2.714-4.964-5.334-7.375-8.065-1.665-1.886-3.728-2.856-6.164-3.222-4.096-.614-19.508-2.896-23.729-3.416-.577-.071-3.267-.243-1.477 2.778 1.771 2.99 3.436 4.775 5.279 7.712 1.801 2.873 4.063 4.603 7.543 4.803 7.945.457 24.561 1.756 24.943 1.76M63.759 84.542c-1.936-.128-3.205.182-1.266 2.038 3.377 3.634 6.438 7.225 9.79 10.881 1.884 2.056 4.015 2.934 6.751 2.918 5.027-.028 10.056.037 15.082-.082 3.092-.072 2.967-.956 1.307-2.61-2.529-2.52-7.325-7.235-9.278-9.165-1.973-1.95-3.628-2.834-5.923-3.003-.935-.068-10.996-.615-16.463-.977M49.156 72.318c2.512 2.713 5.096 5.362 7.543 8.13 1.964 2.22 3.863 2.824 6.744 3.037 3.14.233 11.917.615 15.358.878 2.35.18 2.227-.508 1.853-.865-2.875-2.742-5.522-5.378-8.34-8.143-1.462-1.434-3.11-1.738-4.613-2.024-4.878-.927-11.793-2.037-16.723-2.652-4.336-.54-2.172 1.26-1.822 1.639M158.998 54.725h3.64v10.311c-2.654 2.23-6.33 3.362-10.045 3.362-8.15 0-14.138-5.703-14.138-13.522 0-7.82 5.988-13.523 14.214-13.523 4.207 0 7.77 1.397 10.196 4.079l-2.35 2.342c-2.199-2.115-4.7-3.06-7.694-3.06-6.14 0-10.576 4.269-10.576 10.162 0 5.817 4.435 10.16 10.537 10.16 2.236 0 4.321-.49 6.216-1.7v-8.611zM171.124 56.689h12.888c-.379-3.362-2.92-5.742-6.444-5.742-3.487 0-6.064 2.342-6.444 5.742m16.3 2.606h-16.3c.455 3.513 3.298 5.855 7.278 5.855 2.35 0 4.321-.793 5.8-2.418l2.008 2.342c-1.82 2.116-4.586 3.249-7.922 3.249-6.48 0-10.802-4.269-10.802-10.237 0-5.93 4.283-10.198 10.082-10.198 5.8 0 9.931 4.155 9.931 10.312 0 .302-.038.755-.076 1.095M211.604 56.575v11.521h-3.639V56.991c0-3.929-1.97-5.855-5.42-5.855-3.866 0-6.368 2.304-6.368 6.648v10.312h-3.639v-20.02h3.487v3.022c1.479-2.04 4.056-3.21 7.24-3.21 4.89 0 8.339 2.795 8.339 8.687M220.243 56.689h12.887c-.378-3.362-2.919-5.742-6.443-5.742-3.487 0-6.064 2.342-6.444 5.742m16.299 2.606h-16.299c.455 3.513 3.298 5.855 7.278 5.855 2.35 0 4.32-.793 5.8-2.418l2.008 2.342c-1.82 2.116-4.586 3.249-7.922 3.249-6.481 0-10.802-4.269-10.802-10.237 0-5.93 4.283-10.198 10.082-10.198 5.8 0 9.93 4.155 9.93 10.312 0 .302-.037.755-.075 1.095M252.46 47.887V51.4c-.304-.038-.57-.038-.835-.038-3.904 0-6.33 2.38-6.33 6.762v9.972h-3.638v-20.02h3.487v3.362c1.288-2.342 3.79-3.55 7.315-3.55M269.174 61.977v-2.795h-5.61c-3.601 0-4.624 1.398-4.624 3.097 0 2.003 1.668 3.249 4.434 3.249 2.73 0 4.89-1.246 5.8-3.55m3.638-5.97v12.088h-3.45v-2.644c-1.212 1.813-3.448 2.871-6.594 2.871-4.549 0-7.429-2.418-7.429-5.893 0-3.21 2.085-5.855 8.073-5.855h5.762v-.717c0-3.06-1.782-4.835-5.383-4.835-2.388 0-4.814.83-6.367 2.153l-1.517-2.72c2.085-1.662 5.08-2.568 8.301-2.568 5.496 0 8.604 2.644 8.604 8.12M290.852 66.925c-1.1.945-2.767 1.398-4.397 1.398-4.056 0-6.368-2.229-6.368-6.27V51.06h-3.411v-2.985h3.411v-4.382h3.64v4.382h5.76v2.985h-5.76V61.9c0 2.153 1.136 3.362 3.145 3.362 1.061 0 2.085-.34 2.843-.944l1.137 2.606z"/>
        <mask id="prefix__l" fill="#fff">
            <use xlink:href="#prefix__k"/>
        </mask>
        <path fill="#8192A6" d="M295.247 68.097h3.639v-20.02h-3.639v20.02zm-.644-26.216c0-1.322 1.061-2.38 2.463-2.38 1.403 0 2.464 1.02 2.464 2.305 0 1.36-1.023 2.417-2.464 2.417-1.402 0-2.463-1.02-2.463-2.342zM321.172 58.086c0-4.268-2.881-7.026-6.747-7.026s-6.785 2.758-6.785 7.026c0 4.269 2.919 7.064 6.785 7.064s6.747-2.795 6.747-7.064m-17.208 0c0-5.968 4.434-10.198 10.461-10.198s10.423 4.23 10.423 10.198-4.396 10.237-10.423 10.237-10.461-4.269-10.461-10.237M348.953 56.575v11.521h-3.639V56.991c0-3.929-1.97-5.855-5.42-5.855-3.866 0-6.368 2.304-6.368 6.648v10.312h-3.639v-20.02h3.487v3.022c1.479-2.04 4.056-3.21 7.24-3.21 4.89 0 8.339 2.795 8.339 8.687M138.19 102.845l1.402-2.946c1.97 1.775 5.344 3.06 8.756 3.06 4.586 0 6.557-1.776 6.557-4.08 0-6.46-16.071-2.38-16.071-12.2 0-4.08 3.183-7.556 10.157-7.556 3.11 0 6.33.83 8.53 2.342l-1.252 3.022c-2.312-1.473-4.927-2.154-7.278-2.154-4.51 0-6.443 1.89-6.443 4.194 0 6.46 16.072 2.417 16.072 12.125 0 4.042-3.26 7.517-10.272 7.517-4.056 0-8.036-1.36-10.159-3.324M178.971 95.857c0-4.269-2.881-7.026-6.746-7.026-3.867 0-6.786 2.757-6.786 7.026 0 4.268 2.92 7.064 6.786 7.064 3.865 0 6.746-2.796 6.746-7.064m-17.208 0c0-5.969 4.434-10.199 10.462-10.199 6.026 0 10.422 4.23 10.422 10.199 0 5.968-4.396 10.237-10.422 10.237-6.028 0-10.462-4.27-10.462-10.237M187.687 105.867L191.325 105.867 191.325 77.839 187.687 77.839zM210.541 99.748v-2.795h-5.61c-3.6 0-4.624 1.397-4.624 3.097 0 2.002 1.668 3.249 4.435 3.249 2.729 0 4.89-1.247 5.8-3.551m3.638-5.969v12.088h-3.45v-2.644c-1.212 1.813-3.448 2.87-6.594 2.87-4.549 0-7.43-2.417-7.43-5.892 0-3.211 2.085-5.855 8.074-5.855h5.761v-.718c0-3.06-1.782-4.835-5.383-4.835-2.387 0-4.813.831-6.367 2.154l-1.516-2.72c2.085-1.662 5.079-2.569 8.3-2.569 5.497 0 8.605 2.645 8.605 8.121M231.727 85.658v3.513c-.303-.038-.568-.038-.834-.038-3.904 0-6.33 2.38-6.33 6.762v9.972h-3.638v-20.02h3.487v3.362c1.288-2.342 3.79-3.551 7.315-3.551" mask="url(#prefix__l)"/>
        <g transform="translate(15 64)">
            <mask id="prefix__n" fill="#fff">
                <use xlink:href="#prefix__m"/>
            </mask>
            <path fill="#002A54" d="M25.177 22.15L10.522 1.617 11.273 1.045 25.928 21.578z" mask="url(#prefix__n)"/>
            <g>
                <mask id="prefix__p" fill="#fff">
                    <use xlink:href="#prefix__o"/>
                </mask>
                <path fill="#002A54" d="M36.945 22.01L20.899 2.119 21.619 1.507 37.666 21.397z" mask="url(#prefix__p)"/>
            </g>
        </g>
        <g transform="translate(27 82)">
            <mask id="prefix__r" fill="#fff">
                <use xlink:href="#prefix__q"/>
            </mask>
            <path fill="#002A54" d="M25.724 22.115L10.018 0.028 10.777 -0.54 26.483 21.546z" mask="url(#prefix__r)"/>
            <g>
                <mask id="prefix__t" fill="#fff">
                    <use xlink:href="#prefix__s"/>
                </mask>
                <path fill="#002A54" d="M55.314 41.852L22.549 0.755 23.7 0.945 56.04 41.24z" mask="url(#prefix__t)"/>
            </g>
        </g>
        <g transform="translate(42 101)">
            <mask id="prefix__v" fill="#fff">
                <use xlink:href="#prefix__u"/>
            </mask>
            <path fill="#002A54" d="M28.744 26.563L-2.359 -15.983 -1.611 -16.528 29.492 26.017z" mask="url(#prefix__v)"/>
            <g>
                <mask id="prefix__x" fill="#fff">
                    <use xlink:href="#prefix__w"/>
                </mask>
                <path fill="#002A54" d="M41.905 23.439L21.53 -1.159 22.244 -1.746 42.62 22.851z" mask="url(#prefix__x)"/>
            </g>
        </g>
        <g transform="translate(48 70)">
            <mask id="prefix__z" fill="#fff">
                <use xlink:href="#prefix__y"/>
            </mask>
            <path fill="#002A54" d="M61.095 48.117L16.177 1.627 16.581 1.246 61.498 47.735z" mask="url(#prefix__z)"/>
            <g>
                <mask id="prefix__B" fill="#fff">
                    <use xlink:href="#prefix__A"/>
                </mask>
                <path fill="#002A54" d="M21.491 17.185L6.024 0.232 6.436 -0.141 21.903 16.813z" mask="url(#prefix__B)"/>
            </g>
        </g>
        <g transform="translate(61 85)">
            <mask id="prefix__D" fill="#fff">
                <use xlink:href="#prefix__C"/>
            </mask>
            <path fill="#002A54" d="M30.695 16.411L4.572 -10.767 4.97 -11.147 31.091 16.032z" mask="url(#prefix__D)"/>
            <g>
                <mask id="prefix__F" fill="#fff">
                    <use xlink:href="#prefix__E"/>
                </mask>
                <path fill="#002A54" d="M23.907 20.237L3.048 -2.832 3.453 -3.203 24.312 19.866z" mask="url(#prefix__F)"/>
            </g>
        </g>
        <g transform="translate(77 101)">
            <mask id="prefix__H" fill="#fff">
                <use xlink:href="#prefix__G"/>
            </mask>
            <path fill="#002A54" d="M33.537 18.87L-11.129 -26.596 -10.722 -26.973 33.944 18.493z" mask="url(#prefix__H)"/>
            <g>
                <mask id="prefix__J" fill="#fff">
                    <use xlink:href="#prefix__I"/>
                </mask>
                <path fill="#002A54" d="M24.029 20.2L3.682 -1.243 4.097 -1.61 24.556 19.687z" mask="url(#prefix__J)"/>
            </g>
        </g>
    </g>
</svg>
