<?xml version="1.0" encoding="UTF-8"?>
<svg width="109px" height="160px" viewBox="0 0 109 160" version="1.1" xmlns="http://www.w3.org/2000/svg" xmlns:xlink="http://www.w3.org/1999/xlink">
    <!-- Generator: sketchtool 60.1 (101010) - https://sketch.com -->
    <title>561DD191-F303-49FD-B0B5-A03EFF21CE44</title>
    <desc>Created with sketchtool.</desc>
    <g id="Symbols" stroke="none" stroke-width="1" fill="none" fill-rule="evenodd">
        <g id="medalla_oro">
            <g id="oro">
                <path d="M75.5733333,36.4958678 L35.1442424,36.4958678 C32.5018182,36.4958678 30.3218182,38.6115702 30.3218182,41.322314 C30.3218182,41.322314 30.3218182,41.322314 30.3218182,41.322314 L30.3218182,67.107438 L80.3957576,67.107438 L80.3957576,41.322314 C80.3957576,38.6115702 78.2157576,36.4958678 75.5733333,36.4958678 Z M76.8284848,45.8842975 L32.9642424,45.8842975 L32.9642424,43.9008264 C32.9642424,41.785124 34.6818182,40 36.8618182,40 L72.9969697,40 C75.1109091,40 76.8945455,41.7190083 76.8945455,43.9008264 L76.8945455,43.9008264 L76.8945455,45.8842975 L76.8284848,45.8842975 Z" id="Shape" fill="#F28F0E" fill-rule="nonzero"></path>
                <ellipse id="Oval" fill="#FFB10F" fill-rule="nonzero" cx="54.3018182" cy="105.586777" rx="54.3018182" ry="54.3471074"></ellipse>
                <path d="M97.9678788,73.2561983 C114.218788,98.5123967 106.952121,132.099174 81.7169697,148.363636 C57.6709091,163.900826 25.6975758,158.016529 8.65393939,135.008264 C24.9048485,160.264463 58.529697,167.53719 83.6987879,151.272727 C108.867879,135.008264 116.200606,101.355372 99.949697,76.1652893 C99.2890909,75.1735537 98.6284848,74.2479339 97.9678788,73.2561983 Z" id="Path" fill="#FF930F" fill-rule="nonzero"></path>
                <ellipse id="Oval" fill="#FFDC01" fill-rule="nonzero" cx="54.3018182" cy="105.586777" rx="44.2606061" ry="44.2975207"></ellipse>
                <path d="M48.8848485,135.735537 C50.0078788,136.661157 50.7345455,137.917355 51.0648485,139.371901 C49.6115152,139.371901 48.1581818,138.909091 46.9690909,138.049587 C45.8460606,137.123967 45.1193939,135.867769 44.7890909,134.413223 C46.2424242,134.413223 47.6957576,134.876033 48.8848485,135.735537 Z" id="Path" fill="#FFF375" fill-rule="nonzero"></path>
                <path d="M46.7709091,139.305785 C48.1581818,138.909091 49.6775758,138.909091 51.0648485,139.371901 C50.2721212,140.628099 49.1490909,141.553719 47.7618182,142.082645 C46.3745455,142.479339 44.8551515,142.479339 43.4678788,142.016529 C44.2606061,140.760331 45.449697,139.834711 46.7709091,139.305785 Z" id="Path" fill="#FFF375" fill-rule="nonzero"></path>
                <path d="M42.1466667,133.884298 C43.0715152,134.942149 43.6660606,136.330579 43.7981818,137.785124 C42.3448485,137.586777 41.0236364,136.92562 39.9666667,135.933884 C39.0418182,134.876033 38.4472727,133.487603 38.3151515,132.033058 C39.7024242,132.231405 41.089697,132.892562 42.1466667,133.884298 Z" id="Path" fill="#FFF375" fill-rule="nonzero"></path>
                <path d="M39.570303,137.123967 C41.0236364,136.92562 42.4769697,137.123967 43.7981818,137.785124 C42.8733333,138.909091 41.5521212,139.702479 40.1648485,140.033058 C38.7115152,140.231405 37.2581818,140.033058 35.9369697,139.371901 C36.8618182,138.247934 38.1169697,137.454545 39.570303,137.123967 Z" id="Path" fill="#FFF375" fill-rule="nonzero"></path>
                <path d="M36.7957576,131.305785 C37.5884848,132.561983 37.9187879,133.950413 37.7866667,135.404959 C36.3993939,135.008264 35.210303,134.14876 34.2854545,132.958678 C33.4927273,131.702479 33.1624242,130.31405 33.2945455,128.859504 C34.6818182,129.256198 35.9369697,130.115702 36.7957576,131.305785 Z" id="Path" fill="#FFF375" fill-rule="nonzero"></path>
                <path d="M33.7569697,134.082645 C35.210303,134.082645 36.6636364,134.545455 37.8527273,135.404959 C36.729697,136.330579 35.3424242,136.92562 33.8890909,137.057851 C32.4357576,137.057851 30.9824242,136.595041 29.7933333,135.735537 C30.9163636,134.743802 32.3036364,134.214876 33.7569697,134.082645 Z" id="Path" fill="#FFF375" fill-rule="nonzero"></path>
                <path d="M31.8412121,127.272727 C32.3036364,128.661157 32.3036364,130.115702 31.8412121,131.504132 C30.5860606,130.77686 29.5951515,129.652893 29.0006061,128.264463 C28.5381818,126.876033 28.5381818,125.421488 29.0006061,124.033058 C30.2557576,124.826446 31.2466667,125.950413 31.8412121,127.272727 Z" id="Path" fill="#FFF375" fill-rule="nonzero"></path>
                <path d="M28.2078788,129.256198 C29.5951515,129.586777 30.9163636,130.380165 31.8412121,131.504132 C30.52,132.165289 29.0666667,132.363636 27.6133333,132.165289 C26.2260606,131.834711 24.9048485,131.041322 23.98,129.917355 C25.3012121,129.256198 26.7545455,128.991736 28.2078788,129.256198 Z" id="Path" fill="#FFF375" fill-rule="nonzero"></path>
                <path d="M28.0757576,122.644628 C28.2078788,124.099174 27.8115152,125.553719 27.0848485,126.743802 C24.8387879,124.760331 24.4424242,121.38843 26.16,118.876033 C27.1509091,119.867769 27.8115152,121.190083 28.0757576,122.644628 Z" id="Path" fill="#FFF375" fill-rule="nonzero"></path>
                <path d="M24.0460606,123.702479 C25.3672727,124.363636 26.4242424,125.421488 27.0848485,126.743802 C25.6315152,127.07438 24.1781818,126.942149 22.7909091,126.413223 C21.469697,125.752066 20.4787879,124.694215 19.8181818,123.371901 C21.2054545,123.041322 22.7248485,123.173554 24.0460606,123.702479 Z" id="Path" fill="#FFF375" fill-rule="nonzero"></path>
                <path d="M24.9048485,116.760331 C24.7066667,118.214876 24.0460606,119.53719 23.0551515,120.595041 C21.2715152,118.14876 21.5357576,114.77686 23.7157576,112.727273 C24.5084848,113.917355 24.9048485,115.305785 24.9048485,116.760331 Z" id="Path" fill="#FFF375" fill-rule="nonzero"></path>
                <path d="M20.7430303,117.024793 C21.8660606,117.950413 22.6587879,119.206612 23.0551515,120.595041 C21.6018182,120.661157 20.1484848,120.198347 18.9593939,119.404959 C17.8363636,118.479339 17.0436364,117.22314 16.6472727,115.834711 C18.1006061,115.834711 19.4878788,116.231405 20.7430303,117.024793 Z" id="Path" fill="#FFF375" fill-rule="nonzero"></path>
                <path d="M23.2533333,111.206612 C22.8569697,112.595041 21.9981818,113.785124 20.8090909,114.710744 C20.2145455,113.38843 20.0163636,111.933884 20.2806061,110.479339 C20.6769697,109.090909 21.5357576,107.900826 22.7248485,106.975207 C23.3193939,108.297521 23.5175758,109.752066 23.2533333,111.206612 Z" id="Path" fill="#FFF375" fill-rule="nonzero"></path>
                <path d="M19.0915152,110.809917 C20.0824242,111.867769 20.6769697,113.256198 20.8090909,114.710744 C19.3557576,114.512397 18.0345455,113.917355 16.9115152,112.92562 C15.9206061,111.867769 15.3260606,110.479339 15.1939394,109.024793 C16.6472727,109.22314 18.0345455,109.818182 19.0915152,110.809917 Z" id="Path" fill="#FFF375" fill-rule="nonzero"></path>
                <path d="M23.0551515,104.991736 C22.3284848,106.247934 21.1393939,107.239669 19.8181818,107.768595 C19.5539394,106.380165 19.7521212,104.859504 20.3466667,103.603306 C21.0733333,102.347107 22.1963636,101.355372 23.5836364,100.826446 C23.8478788,102.214876 23.649697,103.669421 23.0551515,104.991736 Z" id="Path" fill="#FFF375" fill-rule="nonzero"></path>
                <path d="M19.1575758,103.603306 C19.8181818,104.859504 20.0163636,106.31405 19.8181818,107.768595 C18.4969697,107.239669 17.3078788,106.31405 16.5151515,105.123967 C15.8545455,103.867769 15.590303,102.413223 15.7884848,100.958678 C17.1757576,101.487603 18.3648485,102.413223 19.1575758,103.603306 Z" id="Path" fill="#FFF375" fill-rule="nonzero"></path>
                <path d="M24.1781818,98.7107438 C23.1212121,99.768595 21.8,100.429752 20.4127273,100.694215 C20.4787879,99.2396694 21.0072727,97.8512397 21.9321212,96.7272727 C22.9890909,95.6694215 24.310303,95.0082645 25.6975758,94.7438017 C25.6315152,96.1983471 25.1030303,97.5867769 24.1781818,98.7107438 Z" id="Path" fill="#FFF375" fill-rule="nonzero"></path>
                <path d="M20.6769697,96.4628099 C21.0072727,97.8512397 20.9412121,99.3057851 20.3466667,100.694215 C19.1575758,99.9008264 18.2327273,98.7107438 17.770303,97.322314 C17.44,95.9338843 17.5060606,94.4793388 18.1006061,93.0909091 C19.289697,93.9504132 20.1484848,95.0743802 20.6769697,96.4628099 Z" id="Path" fill="#FFF375" fill-rule="nonzero"></path>
                <path d="M26.4242424,93.553719 C25.1690909,94.3471074 23.7157576,94.677686 22.2624242,94.6115702 C22.6587879,93.2231405 23.5175758,91.9669421 24.6406061,91.107438 C25.8957576,90.3140496 27.3490909,89.9834711 28.8024242,90.0495868 C28.4060606,91.4380165 27.5472727,92.6942149 26.4242424,93.553719 Z" id="Path" fill="#FFF375" fill-rule="nonzero"></path>
                <path d="M23.5175758,90.5785124 C23.5175758,92.0330579 23.1212121,93.4214876 22.2624242,94.6115702 C20.1484848,92.4958678 19.950303,89.1239669 21.8,86.7438017 C22.7909091,87.8016529 23.3854545,89.1239669 23.5175758,90.5785124 Z" id="Path" fill="#FFF375" fill-rule="nonzero"></path>
                <path d="M29.2648485,88.8595041 C27.9436364,89.4545455 26.4242424,89.5867769 24.9709091,89.2561983 C25.6315152,87.9338843 26.6224242,86.8760331 27.9436364,86.1487603 C29.2648485,85.553719 30.7842424,85.4214876 32.2375758,85.7520661 C31.5769697,87.1404959 30.52,88.1983471 29.2648485,88.8595041 Z" id="Path" fill="#FFF375" fill-rule="nonzero"></path>
                <path d="M26.8866667,85.4876033 C26.6884848,86.9421488 26.0278788,88.2644628 24.9709091,89.2561983 C23.1872727,86.8099174 23.5175758,83.4380165 25.7636364,81.3884298 C26.5563636,82.6446281 26.9527273,84.0991736 26.8866667,85.4876033 Z" id="Path" fill="#FFF375" fill-rule="nonzero"></path>
                <path d="M60.9078788,135.471074 C59.7848485,136.396694 59.0581818,137.719008 58.7278788,139.107438 C60.1812121,139.107438 61.6345455,138.644628 62.8236364,137.785124 C63.9466667,136.859504 64.6733333,135.53719 65.0036364,134.14876 C63.4842424,134.14876 62.0969697,134.61157 60.9078788,135.471074 Z" id="Path" fill="#FFF375" fill-rule="nonzero"></path>
                <path d="M63.0218182,138.975207 C61.6345455,138.578512 60.1151515,138.578512 58.7278788,139.041322 C59.5206061,140.297521 60.6436364,141.22314 62.0309091,141.752066 C63.4181818,142.14876 64.9375758,142.14876 66.3248485,141.68595 C65.5321212,140.495868 64.3430303,139.504132 63.0218182,138.975207 Z" id="Path" fill="#FFF375" fill-rule="nonzero"></path>
                <path d="M66.7872727,133.884298 C65.8624242,134.942149 65.2678788,136.330579 65.1357576,137.785124 C66.5890909,137.586777 67.910303,136.92562 68.9672727,135.933884 C69.8921212,134.876033 70.4866667,133.487603 70.6187879,132.033058 C69.2315152,132.231405 67.8442424,132.892562 66.7872727,133.884298 Z" id="Path" fill="#FFF375" fill-rule="nonzero"></path>
                <path d="M69.3636364,137.123967 C67.910303,136.92562 66.4569697,137.123967 65.1357576,137.785124 C66.0606061,138.909091 67.3818182,139.702479 68.7690909,140.033058 C70.2224242,140.231405 71.6757576,140.033058 72.9969697,139.371901 C72.0721212,138.247934 70.7509091,137.454545 69.3636364,137.123967 Z" id="Path" fill="#FFF375" fill-rule="nonzero"></path>
                <path d="M72.1381818,131.041322 C71.3454545,132.297521 71.0151515,133.68595 71.1472727,135.140496 C72.5345455,134.743802 73.789697,133.884298 74.6484848,132.694215 C75.4412121,131.504132 75.7715152,130.049587 75.6393939,128.595041 C74.2521212,129.057851 72.9969697,129.917355 72.1381818,131.041322 Z" id="Path" fill="#FFF375" fill-rule="nonzero"></path>
                <path d="M75.1769697,133.818182 C73.7236364,133.818182 72.270303,134.280992 71.0812121,135.140496 C73.3272727,137.190083 76.6963636,137.38843 79.0745455,135.471074 C78.0175758,134.545455 76.630303,133.950413 75.1769697,133.818182 Z" id="Path" fill="#FFF375" fill-rule="nonzero"></path>
                <path d="M76.8945455,127.140496 C76.4321212,128.528926 76.4321212,129.983471 76.8945455,131.371901 C78.149697,130.644628 79.1406061,129.520661 79.6690909,128.198347 C80.1315152,126.809917 80.1315152,125.355372 79.6690909,123.966942 C78.48,124.694215 77.4890909,125.818182 76.8945455,127.140496 Z" id="Path" fill="#FFF375" fill-rule="nonzero"></path>
                <path d="M80.5939394,129.123967 C79.2066667,129.454545 77.8854545,130.247934 76.9606061,131.371901 C78.2818182,132.033058 79.7351515,132.231405 81.1884848,132.033058 C82.5757576,131.702479 83.8969697,130.909091 84.8218182,129.785124 C83.5006061,129.123967 82.0472727,128.92562 80.5939394,129.123967 Z" id="Path" fill="#FFF375" fill-rule="nonzero"></path>
                <path d="M80.8581818,122.181818 C80.7921212,123.636364 81.1224242,125.024793 81.9151515,126.280992 C84.1612121,124.297521 84.5575758,120.92562 82.84,118.413223 C81.7830303,119.471074 81.1224242,120.793388 80.8581818,122.181818 Z" id="Path" fill="#FFF375" fill-rule="nonzero"></path>
                <path d="M84.8878788,123.239669 C83.6327273,123.900826 82.5757576,124.958678 81.9151515,126.280992 C83.3684848,126.61157 84.8218182,126.479339 86.2090909,125.950413 C87.4642424,125.289256 88.5212121,124.231405 89.1818182,122.909091 C87.7284848,122.578512 86.2751515,122.710744 84.8878788,123.239669 Z" id="Path" fill="#FFF375" fill-rule="nonzero"></path>
                <path d="M83.6987879,116.628099 C83.8969697,118.082645 84.5575758,119.404959 85.5484848,120.46281 C87.3321212,118.016529 87.0678788,114.644628 84.8878788,112.595041 C84.0951515,113.785124 83.6987879,115.239669 83.6987879,116.628099 Z" id="Path" fill="#FFF375" fill-rule="nonzero"></path>
                <path d="M87.8606061,116.958678 C86.7375758,117.884298 85.9448485,119.140496 85.5484848,120.528926 C87.0018182,120.595041 88.4551515,120.132231 89.6442424,119.338843 C90.7672727,118.413223 91.56,117.157025 91.9563636,115.768595 C90.5030303,115.702479 89.049697,116.099174 87.8606061,116.958678 Z" id="Path" fill="#FFF375" fill-rule="nonzero"></path>
                <path d="M85.350303,111.07438 C85.7466667,112.46281 86.6054545,113.652893 87.7945455,114.578512 C88.3890909,113.256198 88.5872727,111.801653 88.3230303,110.413223 C87.9266667,109.024793 87.0678788,107.834711 85.8787879,106.909091 C85.2842424,108.165289 85.0860606,109.68595 85.350303,111.07438 Z" id="Path" fill="#FFF375" fill-rule="nonzero"></path>
                <path d="M89.5121212,110.677686 C88.5212121,111.735537 87.9266667,113.123967 87.7945455,114.578512 C89.2478788,114.380165 90.5690909,113.785124 91.6921212,112.793388 C92.6830303,111.735537 93.2775758,110.347107 93.409697,108.892562 C91.9563636,109.090909 90.5690909,109.68595 89.5121212,110.677686 Z" id="Path" fill="#FFF375" fill-rule="nonzero"></path>
                <path d="M85.5484848,105.057851 C86.2751515,106.31405 87.3981818,107.305785 88.7854545,107.834711 C89.049697,106.446281 88.8515152,104.92562 88.2569697,103.669421 C87.530303,102.413223 86.4072727,101.421488 85.02,100.892562 C84.689697,102.280992 84.8878788,103.735537 85.5484848,105.057851 Z" id="Path" fill="#FFF375" fill-rule="nonzero"></path>
                <path d="M89.4460606,103.735537 C88.7854545,104.991736 88.5212121,106.446281 88.7193939,107.900826 C90.0406061,107.371901 91.229697,106.446281 92.0224242,105.256198 C92.6830303,104 92.9472727,102.545455 92.7490909,101.090909 C91.4278788,101.553719 90.2387879,102.479339 89.4460606,103.735537 Z" id="Path" fill="#FFF375" fill-rule="nonzero"></path>
                <path d="M84.3593939,98.7768595 C85.4163636,99.8347107 86.7375758,100.495868 88.1248485,100.760331 C88.0587879,99.3057851 87.530303,97.9173554 86.6054545,96.7933884 C85.5484848,95.7355372 84.2272727,95.0743802 82.84,94.8099174 C82.9060606,96.2644628 83.4345455,97.6528926 84.3593939,98.7768595 Z" id="Path" fill="#FFF375" fill-rule="nonzero"></path>
                <path d="M87.8606061,96.5289256 C87.530303,97.9173554 87.5963636,99.4380165 88.1909091,100.760331 C89.38,99.9669421 90.3048485,98.7768595 90.7672727,97.3884298 C91.0975758,96 91.0315152,94.5454545 90.4369697,93.1570248 C89.2478788,94.0165289 88.3230303,95.1404959 87.8606061,96.5289256 Z" id="Path" fill="#FFF375" fill-rule="nonzero"></path>
                <path d="M82.1793939,93.7520661 C83.4345455,94.5454545 84.8878788,94.8760331 86.3412121,94.8099174 C85.9448485,93.4214876 85.0860606,92.1652893 83.9630303,91.3057851 C82.7078788,90.5123967 81.2545455,90.1818182 79.8012121,90.2479339 C80.1975758,91.6363636 80.990303,92.8264463 82.1793939,93.7520661 Z" id="Path" fill="#FFF375" fill-rule="nonzero"></path>
                <path d="M85.02,90.7768595 C85.02,92.231405 85.4163636,93.6198347 86.2751515,94.8099174 C88.3890909,92.6942149 88.5872727,89.322314 86.7375758,86.9421488 C85.8127273,88 85.2181818,89.322314 85.02,90.7768595 Z" id="Path" fill="#FFF375" fill-rule="nonzero"></path>
                <path d="M79.1406061,89.1239669 C80.4618182,89.7190083 81.9812121,89.8512397 83.4345455,89.5206612 C82.7739394,88.1983471 81.7830303,87.1404959 80.5278788,86.4793388 C79.2066667,85.8842975 77.6872727,85.7520661 76.3,86.0826446 C76.8284848,87.338843 77.8854545,88.3966942 79.1406061,89.1239669 Z" id="Path" fill="#FFF375" fill-rule="nonzero"></path>
                <path d="M81.5187879,85.7520661 C81.7169697,87.2066116 82.3775758,88.5289256 83.4345455,89.5206612 C85.2181818,87.0743802 84.8878788,83.7024793 82.6418182,81.6528926 C81.8490909,82.8429752 81.4527273,84.2975207 81.5187879,85.7520661 Z" id="Path" fill="#FFF375" fill-rule="nonzero"></path>
                <path d="M77.5551515,82.446281 C77.4890909,82.5123967 77.3569697,82.6446281 77.2248485,82.7107438 L77.0927273,82.7768595 C84.2272727,88.7272727 88.3890909,97.5206612 88.3890909,106.77686 C88.3890909,124.628099 73.0630303,139.107438 54.169697,139.107438 C35.2763636,139.107438 19.950303,124.628099 19.950303,106.77686 C20.0163636,97.9173554 23.7818182,89.5206612 30.3878788,83.5702479 C30.189697,83.5041322 29.9915152,83.4380165 29.8593939,83.3719008 C23.2533333,89.3884298 19.4878788,97.8512397 19.4218182,106.77686 C19.4218182,124.892562 35.0121212,139.636364 54.169697,139.636364 C73.3272727,139.636364 88.9175758,124.892562 88.9175758,106.77686 C88.9836364,97.3884298 84.7557576,88.4628099 77.5551515,82.446281 Z" id="Path" fill="#FFF375" fill-rule="nonzero"></path>
                <path d="M33.8890909,84.7603306 C32.4357576,85.0247934 30.9824242,84.7603306 29.6612121,84.1652893 C30.5860606,83.0413223 31.8412121,82.2479339 33.2945455,81.8512397 C34.7478788,81.5867769 36.2012121,81.8512397 37.5224242,82.446281 C36.5315152,83.5702479 35.2763636,84.3636364 33.8890909,84.7603306 Z" id="Path" fill="#FFF375" fill-rule="nonzero"></path>
                <path d="M32.369697,80.9256198 C31.7751515,82.2479339 30.850303,83.3719008 29.5951515,84.1652893 C29.1327273,82.7768595 29.1327273,81.322314 29.5290909,79.9338843 C30.1236364,78.6115702 31.1145455,77.4214876 32.369697,76.6942149 C32.8321212,78.0826446 32.8321212,79.5371901 32.369697,80.9256198 Z" id="Path" fill="#FFF375" fill-rule="nonzero"></path>
                <path d="M74.7806061,84.7603306 C76.2339394,85.0247934 77.6872727,84.7603306 79.0084848,84.1652893 C78.0836364,83.0413223 76.8284848,82.2479339 75.3751515,81.8512397 C73.9218182,81.5867769 72.4684848,81.8512397 71.1472727,82.446281 C72.1381818,83.5702479 73.3933333,84.3636364 74.7806061,84.7603306 Z" id="Path" fill="#FFF375" fill-rule="nonzero"></path>
                <path d="M76.2339394,80.9256198 C76.8284848,82.2479339 77.7533333,83.3719008 79.0084848,84.1652893 C80.1315152,81.322314 78.9424242,78.1487603 76.3,76.6942149 C75.8375758,78.0826446 75.8375758,79.5371901 76.2339394,80.9256198 Z" id="Path" fill="#FFF375" fill-rule="nonzero"></path>
                <path d="M63.0218182,117.619835 L47.629697,117.619835 L47.629697,115.966942 L63.0218182,115.966942 L63.0218182,117.619835 L63.0218182,117.619835 Z M59.4545455,113.85124 L51.2630303,113.85124 L52.8484848,110.479339 L57.8690909,110.479339 L59.4545455,113.85124 Z M51.3290909,103.933884 L59.3884848,103.933884 L59.7848485,108.429752 L50.9327273,108.429752 L51.3290909,103.933884 Z M51.7915152,98.9752066 L58.86,98.9752066 L59.1242424,101.818182 L51.5272727,101.818182 L51.7915152,98.9752066 Z M52.2539394,94.6115702 L58.529697,94.6115702 L58.7278788,96.8595041 L51.989697,96.8595041 L52.2539394,94.6115702 Z M49.809697,96.8595041 L42.9393939,96.8595041 L43.6,94.6115702 L50.0739394,94.6115702 L49.809697,96.8595041 Z M49.3472727,101.818182 L41.4860606,101.818182 L42.2787879,98.9752066 L49.6115152,98.9752066 L49.3472727,101.818182 Z M48.6866667,108.363636 L39.570303,108.363636 L40.8915152,103.867769 L49.1490909,103.867769 L48.6866667,108.363636 Z M67.1175758,94.6115702 L67.7781818,96.8595041 L60.9078788,96.8595041 L60.709697,94.6115702 L67.1175758,94.6115702 Z M69.2315152,101.818182 L61.370303,101.818182 L61.1060606,98.9752066 L68.4387879,98.9752066 L69.2315152,101.818182 Z M71.1472727,108.363636 L61.9648485,108.363636 L61.5024242,103.867769 L69.8260606,103.867769 L71.1472727,108.363636 Z M60.2472727,110.479339 L74.0539394,110.479339 L68.8351515,92.4958678 L41.9484848,92.4958678 L36.729697,110.479339 L50.5363636,110.479339 L48.9509091,113.85124 L45.5157576,113.85124 L45.5157576,119.735537 L65.2678788,119.735537 L65.2678788,113.85124 L61.8987879,113.85124 L60.2472727,110.479339 Z" id="Shape" fill="#FFF375"></path>
                <polygon id="Path" fill="#002A54" fill-rule="nonzero" opacity="0.75" points="18.9593939 0 36.3993939 44.0991736 73.7236364 44.0991736 56.7460606 0"></polygon>
                <polyline id="Path" fill="#002A54" fill-rule="nonzero" opacity="0.27" points="25.4993939 0 22.6587879 0 40.4290909 44.0991736 43.269697 44.0991736"></polyline>
                <polyline id="Path" fill="#002A54" fill-rule="nonzero" opacity="0.27" points="34.2193939 0 31.3787879 0 49.1490909 44.0991736 51.989697 44.0991736"></polyline>
                <polyline id="Path" fill="#002A54" fill-rule="nonzero" opacity="0.27" points="42.6090909 0 39.7684848 0 57.5387879 44.0991736 60.3793939 44.0991736"></polyline>
                <polyline id="Path" fill="#002A54" fill-rule="nonzero" opacity="0.27" points="51.6593939 0 48.7527273 0 66.5230303 44.0991736 69.3636364 44.0991736"></polyline>
                <polygon id="Path" fill="#002A54" fill-rule="nonzero" points="91.7581818 0 73.7236364 44.0991736 36.3993939 44.0991736 52.9806061 0"></polygon>
            </g>
        </g>
    </g>
</svg>