<svg xmlns="http://www.w3.org/2000/svg" width="24" height="24" viewBox="0 0 24 24">
    <path fill="#2A4092" fill-rule="evenodd" d="M18.51 13.99a8.467 8.467 0 0 0-3.23-2.026 4.912 4.912 0 0 0 2.134-4.05A4.92 4.92 0 0 0 12.5 3a4.92 4.92 0 0 0-4.914 4.914c0 1.678.846 3.163 2.134 4.05a8.467 8.467 0 0 0-3.23 2.026A8.444 8.444 0 0 0 4 20h1.328c0-3.955 3.217-7.172 7.172-7.172 3.955 0 7.172 3.217 7.172 7.172H21c0-2.27-.884-4.405-2.49-6.01zM12.5 11.5a3.59 3.59 0 0 1-3.586-3.586A3.59 3.59 0 0 1 12.5 4.328a3.59 3.59 0 0 1 3.586 3.586A3.59 3.59 0 0 1 12.5 11.5z"/>
</svg>
