<svg xmlns="http://www.w3.org/2000/svg" width="24" height="24" viewBox="0 0 24 24">
    <path fill="#2A4092" fill-rule="evenodd" d="M14.883 14.574H23L19.911 4H4.09L1 14.574h8.117l-.94 1.973H6.183V20h11.632v-3.453h-1.992l-.94-1.973zm6.424-1.233h-5.402l-.252-2.64h4.883l.771 2.64zm-1.131-3.874h-4.641l-.16-1.679h4.31l.49 1.68zm-1.237-4.234l.386 1.322h-4.068l-.126-1.322h3.808zM8.095 13.341H2.693l.771-2.64h4.883l-.252 2.64zm.37-3.874h-4.64l.49-1.679h4.31l-.16 1.68zm.278-2.912H4.675l.386-1.322h3.808l-.126 1.322zm1.415-1.322h3.684l.126 1.322h-3.936l.126-1.322zm-.244 2.555h4.172l.16 1.68H9.754l.16-1.68zm-.278 2.913h4.728l.252 2.64H9.384l.252-2.64zm4.776 5.846H9.587l.941-1.973h2.944l.94 1.973zm2.121 2.22H7.467v-.987h9.066v.987z"/>
</svg>
