<svg xmlns="http://www.w3.org/2000/svg" width="223" height="302" viewBox="0 0 223 302">
    <g fill="none" fill-rule="evenodd">
        <path fill="#DB4196" fill-rule="nonzero" d="M99 48.1l9.7 1-2.1 3.3.4.3c27.5 18.7 49.4 44.4 63 74.3l.2.4 3.6-1.5-.6 9.8-7.4-6.4 3.6-1.5-.2-.4C155.7 97.7 134 72 106.6 53.5l-.4-.3-2.1 3.3-5.1-8.4z"/>
        <ellipse cx="107.8" cy="289.3" fill="#F2F2F2" rx="84" ry="12.7"/>
        <path fill="#414042" d="M76.6 131.6L94.7 131.6 94.7 281.8 76.6 281.8z"/>
        <path fill="#335476" d="M14.1 210.1L4.3 200.6 157.3 54.3 165.7 62.4z"/>
        <path fill="#002A54" d="M10 219.4L0.2 209.9 163.9 53.2 172.3 61.3z"/>
        <path fill="#505050" d="M64.1 276.5L105.8 276.5 105.8 288.6 64.1 288.6z"/>
        <g fill="#002A54" fill-rule="nonzero">
            <path d="M7.9 6.2c0 3.3-1.8 5-4.5 5-.9 0-1.8-.2-2.4-.6l.5-1.1c.5.3 1.1.4 1.8.4 1.9 0 3.2-1.2 3.2-3.6V6c-.6.8-1.6 1.3-2.8 1.3C1.8 7.3.4 6.2.4 4.4c0-1.8 1.5-3 3.4-3 2.6 0 4.1 1.7 4.1 4.8zM6.2 4.4c0-1-.8-1.8-2.3-1.8-1.2 0-2.1.7-2.1 1.9 0 1.1.8 1.8 2.2 1.8 1.3-.1 2.2-.9 2.2-1.9zM9.2 6.3c0-3.1 1.7-4.9 3.9-4.9S17 3.2 17 6.3c0 3.1-1.7 4.9-3.9 4.9-2.3 0-3.9-1.8-3.9-4.9zm6.4 0c0-2.4-1-3.7-2.5-3.7s-2.5 1.2-2.5 3.7c0 2.4 1 3.7 2.5 3.7s2.5-1.3 2.5-3.7zM18.1 3.1c0-1.3 1-2.2 2.4-2.2s2.4.9 2.4 2.2c0 1.3-1 2.2-2.4 2.2s-2.4-.9-2.4-2.2zm3.9 0c0-.8-.6-1.4-1.5-1.4S19 2.3 19 3.1c0 .8.6 1.4 1.5 1.4S22 3.9 22 3.1z" transform="translate(74)"/>
        </g>
        <g fill="#002A54" fill-rule="nonzero">
            <path d="M0 5.5C0 2.4 1.7.6 3.9.6s3.9 1.8 3.9 4.9c0 3.1-1.7 4.9-3.9 4.9C1.7 10.3 0 8.6 0 5.5zm6.5 0c0-2.4-1-3.7-2.5-3.7S1.5 3 1.5 5.5c0 2.4 1 3.7 2.5 3.7 1.4-.1 2.5-1.3 2.5-3.7zM9 2.2C9 .9 10 0 11.4 0s2.4.9 2.4 2.2c0 1.3-1 2.2-2.4 2.2C10 4.5 9 3.5 9 2.2zm3.9 0c0-.8-.6-1.4-1.5-1.4s-1.5.6-1.5 1.4c0 .8.6 1.4 1.5 1.4.9.1 1.5-.5 1.5-1.4z" transform="translate(209 139)"/>
        </g>
        <circle cx="86.8" cy="159" r="3.9" fill="#D8D8D8"/>
        <path stroke="#DB4196" stroke-dasharray="5" stroke-linecap="square" d="M197.8 149.6l-94.3.2M85.3 25.7v85.4"/>
    </g>
</svg>
