<svg xmlns="http://www.w3.org/2000/svg" width="119" height="91" viewBox="0 0 119 91">
    <g fill="none" fill-rule="evenodd">
        <g transform="translate(0 5)">
            <ellipse cx="52.5" cy="81" fill="#D8D8D8" rx="26.5" ry="5"/>
            <path fill="#002A54" d="M105 65L0 65 7.582 0 97.418 0z"/>
            <path fill="#FFF" opacity=".2" style="mix-blend-mode:screen" d="M5 60L11.535 4 93.465 4 100 60z"/>
            <path fill="#033259" d="M52 4H53V60H52zM65 4.059L66.645 4 69 59.941 67.355 60zM79 4.118L80.548 4 85 59.882 83.452 60zM36 59.941L38.36 4 40 4.059 37.64 60zM20 59.881L24.457 4 26 4.119 21.543 60z" opacity=".64"/>
            <path fill="#033259" d="M10 15H95V16H10zM9 26H96V27H9zM8 37H98V38H8zM7 48H99V50H7z" opacity=".64"/>
            <path fill="#414042" d="M44 64H61V78H44z"/>
            <path fill="#505050" d="M40 74H65V81H40z"/>
            <path fill="#FFF" opacity=".1" style="mix-blend-mode:screen" d="M119 64.717L111.489 0 67 0 67 81 79.768 81 79.768 74.435 75.139 74.435 75.139 64.717z"/>
        </g>
        <path fill="#CC3B92" d="M64 69.667c1.256 2.234 2.448 3.746 3.578 4.537.853.581 1.834 1.058 2.892 1.368.526.169 1.072.262 1.627.347l.852.08c.286.004.58-.004.864-.017 1.115-.069 2.227-.314 3.245-.714 1.019-.4 1.927-.958 2.727-1.58 1.6-1.256 2.768-2.77 3.72-4.322 1.88-3.127 2.995-6.445 3.887-9.764.876-3.326 1.478-6.684 1.91-10.05.433-3.366.682-6.741.777-10.118.043-1.692.062-3.37.007-5.083-.056-1.701-.175-3.392-.339-5.08-.328-3.372-.821-6.73-1.517-10.065-.175-.834-.362-1.665-.565-2.495l-.19-.754-.181-.693c-.123-.46-.252-.922-.388-1.381-.27-.92-.561-1.835-.883-2.745L93 12.961c-1.397-1.591-2.797-3.153-4.233-4.673-1.436-1.518-2.886-3.001-4.45-4.386-.78-.691-1.604-1.351-2.475-1.957C80.97 1.343 80.025.798 78.987.43 77.958.059 76.827-.088 75.8.052c-1.032.13-1.938.501-2.774.924C73.9.612 74.884.4 75.811.502c.93.091 1.739.487 2.33 1.033.6.543 1.02 1.221 1.319 1.944.306.72.483 1.494.591 2.28.208 1.578.106 3.227-.166 4.878-.275 1.652-.733 3.318-1.302 4.973 1.993-1.298 3.793-2.631 5.34-3.996.242.895.458 1.796.658 2.702.101.452.193.906.284 1.36l.133.682.138.743c.148.817.28 1.637.407 2.457.495 3.284.833 6.59 1.044 9.897.102 1.653.174 3.307.199 4.953.022 1.634-.012 3.304-.052 4.96-.09 3.316-.263 6.63-.572 9.931-.313 3.299-.762 6.588-1.495 9.816-.74 3.219-1.748 6.413-3.4 9.282-.828 1.424-1.84 2.763-3.117 3.8-.638.517-1.337.959-2.097 1.274-.761.315-1.576.511-2.421.58-.206.013-.405.023-.61.026l-.614-.05c-.41-.058-.837-.118-1.235-.24-.806-.22-1.567-.568-2.262-1.018-.688-.461-1.31-1.015-1.873-1.625-.377-.403-.714-.84-1.03-1.293L64 69.667z"/>
    </g>
</svg>
