<svg xmlns="http://www.w3.org/2000/svg" xmlns:xlink="http://www.w3.org/1999/xlink" width="281" height="246" viewBox="0 0 281 246">
    <defs>
        <path id="a" d="M.778.158h13.325v26.098H.778z"/>
    </defs>
    <g fill="none" fill-rule="evenodd" transform="translate(-10 -8)">
        <ellipse cx="183.306" cy="238.06" fill="#D8D8D8" rx="107.079" ry="15.879"/>
        <path fill="#E8E8E8" d="M204.985 177.418l-45.229-2.82-23.263-110.075 45.226 2.82zM119.558 195.218l-45.227-2.823L51.066 82.323l45.226 2.823z"/>
        <path fill="#C9C7C1" d="M119.471 195.19l40.252-20.836L136.49 64.52 96.234 85.357z"/>
        <path fill="#CACACA" d="M10.804 103.15L34.04 212.982l40.254-20.838L51.06 82.313z"/>
        <path fill="#033259" d="M52.592 89.83l19.703 93.159 45.243 2.805-19.703-93.16z" opacity=".903"/>
        <path fill="#033259" d="M97.774 92.659l19.703 93.16 40.244-20.845-19.703-93.157z"/>
        <path fill="#033259" d="M138.113 71.841l-.129-.008 19.703 93.16 36.046 2.232-19.706-93.157z" opacity=".903"/>
        <path fill="#033259" d="M20.581 106.422l19.703 93.16 32.063-16.608-19.706-93.16z"/>
        <path fill="#FFF" d="M67.619 141.886c.047.104-.415.235-.491.252a.498.498 0 0 0 .123.11c.303-.06.461-.175.368-.362M63.296 141.882c-.06.012-.043.027.02.056.005-.042.003-.062-.02-.056M58.896 145.085c.16.038.325.061.49.076-.023-.058-.044-.104-.063-.157-.056-.151-.22-.076-.427.08M55.883 144.059c.018-.017-.043.044 0 0M33.393 119.323c.053-.022-.066.027 0 0"/>
        <path fill="#FFF" d="M58.75 111.39c.394-.131.553-.035.922.064-.326.087-.801-.11-.926-.064h.003zm1.378-1.962c-.142.168-.272.377-.282.515-.33-.377.067-.432.282-.515zm9.588 6.08c.138-.05.26-.112.296-.212.006-.036-.39-.27-.357-.327-2.211.595-.166-2.153-1.789-2.65.037.013-1.846 2.263-1.914 1.423.006.043-.436-.883-.178-1.2-.236.015-.657-.045-.689-.04.573-.498-1.262-.518-1.695-.292-1.498.106-.947 3.59-2.01 4.389-1.123.804-.882 1.976-1.592 2.638-.972.887-.449-2.14-.366-2.05-.285-.287-3.1-.471-3.82-.321.032-.062.251-.922.18-.973-.18-.117-.38.155-.57.06-.348-.16 2.67-3.311 2.858-3.109-.219-.23-.75.135-.977-.123 1.787.16 2.262-.976 3.596-1.769-.4.546-.791 1.1-1.127 1.546.273-.107 2.4-.238 2.754-.685-.24.286-1.046-1.067-1.311-1.01-.093.02.01.381-.136.457.075-.187.135-.378-.109-.356.019-.034-.006-.15-.033-.172.504-.184.508.36.897.277.21-.044-.207-.316-.232-.33.302-.46 2.353-1.13 1.618-2.082-.051-.054 1.919-.148 1.525-.814.233.187.609.56.857.427.073.25-.541.036-.437.386.03.109.684-.058.753-.109.05.234-.256.436-.234.488.229.533.42-.386.42-.406.09.14.108.048.244.064-.047.676-.94 1.025-.835 1.531-.38.332-2.024.18-2.024.928-.007-.793 3.642.836 4.289.699.423-.089-.73-.851-.758-.9.473-.112 1.023.552 1.384.475.334-.07-.145-.62.03-.743.005-.003.015-.013.026-.018.075.1.085.188.249.154-.232.05-.072-.576.001-.632-.16-.16-.935-.527-.908-.545.048-.239 2.038.015 2.723-1.084-.172-.028-2.174-.515-2.18-.537-.07-.19.831-.372.803-.513-.005-.054-.348-.032-.428-.041 0-.023 0-.047-.004-.07.084-.002.294.04.335-.084.1-.359-.45-.137-.545-.065.05-.35-1.088-.957-1.407-.27-.262-.374-.57-.345-.774-.563-.032-.656-1.359-.313-1.288-.056.184.605.695-.063.967.07.05.024-1.3.637-1.304.617-.025-.118.383-.549.32-.786-.078-.305-2.293.777-2.287 1.289.004.153.366.003.377.124a5.224 5.224 0 0 0-.168.148c-.979.007.777-1.425.794-1.39-.215-.393-2.797 1.1-2.647 1.801.001.006.722-.101.845-.052-.092.025-.943.075-.85.279.181.424 2.186-.047 2.186-.047l-.145.174a8.948 8.948 0 0 1-1.794 1.302c-.037.008.123-.183.097-.22 0-.005-.514.588-.68.702-.041-.061-.14-.198-.221-.224-.007.015.914-1.068.132-.903-.057.011-.125.064-.201.124-.05-.361-.794-.001-.833-.028.238-.25.893-.908.077-1.11.403-.192 2.153-.962 2.284-1.401-.056.187-3.58 1.494-3.77 2.518-.091.387.589.178.659.18.005.074.089.074.137.088-.224.144-1.28.91-1.202 1.273-.014.022-.189.105-.17.108-.045-.003-.086-.05-.142-.05.015-.083.381-.497.381-.497-.02-.067-.403.071-.486-.001.002.031 1.09-.623 1.117-.725.082-.328-1.997.275-1.824.636.087.164.388-.113.495-.035-.594.611-1.32 1.035-2.64.867.687-.387-1.454-.384-1.537.201.008-.024.393.44.059.751-.014.002-.16 0-.174-.019.02-.139-.1-.42-.393-.33.022-.052.302-.21.296-.233-.022-.055-1.97.822-2.347.64-.039-.215.92-.222.696-.492-.586-.674-2.676.228-3.33.248a.28.28 0 0 1 .093-.065c.036-.008.228-.322.224-.33-.137-.314-1.018.682-1.052.524-.018-.003.063-.484.012-.535-.024-.025-.175-.042-.212-.037.066-.012-.574.78-.714.567.021-.014.09-.082.135-.135-.882.678-15.591 1.937-14.904 4.072.052.166.585.81.86.427.107.497-.83.74-1.08.722.044-.044.26-.245.239-.309.016.053-2.365.805-2.314 1.064.024.13.394.05.453.038-.052.02-.477.305-.434.447.1.284 1.477-.147 2.08-.45-1.25.849-4.722 2.383-3.851 3.513.285.333.99-.72 1.18-.766-.13.1-1.073 1.214-1.091 1.336-.005.087 1.6-.477 1.778-.61-.326.455.015.27.326.102-.313.282-1.696 1.154-3 1.97h.002c.13.056.254.129.374.22 1.528-.821 3.174-1.728 3.537-1.941-.06.072-.92.587-.692.766-.036-.03.249.093.2.103.251-.056 1.6-1.095 1.614-1.247.007-.152-.059-.021-.035-.143.012-.04-.977.459-1.063.506.258-.23 1.104-.59.618-.8.805-.432 1.264-1.059 1.96-1.362-.225.263-1.114.93-1.141 1.148.026-.25 1.889-.627 2.69-1.096a.107.107 0 0 0 .015.087c.062.073.403-.32.486-.387.07.327.11.092.24.468 3.165-1.55 1.604 1.438 2.603 2.338.34.323.542-.804.585-1.033-.006.352.433 2.872.647 3.028-.189-.017-.792-.298-.776.07-.017.951 1.112.897.717 2.392-.727 1.859-2.417 4.942-.91 6.495.816.819 3.378 3.757 2.24 3.998.575-.124 1.808 2.937 2.491 2.852.026-.003.049-.01.077-.014.373-.08-2.46-4.838-2.076-4.919 1.218-.258.41 1.172.9 1.619 1.902 1.68 3.357 5.263 6.474 5.86 1.747.285 4.482 1.04 6.213.674.703-.148 1.703 3.01 2.906 2.756.02-.005.212-.661.587-.288.058.267-.174.164-.198.242-.02.061.149.232.177.225.19-.038.715-.663 1.105-.973-.978-.213-1.886-.836-2.478-1.64-1.593-2.268.637-1.318-2.802-1.747.384-.764.286-1.69.507-2.492.667-2.418-2 .009-1.677.581.477.828-2.448 1.144-3.329-.361.515-1.035.701-7.903 3.537-5.65.088-.03.151.002.205.055.092-.32.785-.91.863-1.04-.055-.74 2.381 1.24 2.468 1.314-.206-.182.907 1.446.977 1.43 1.07-.225-.787-4.627 1.202-5.515 1.057-.47 1.042-1.381 1.348-1.729.136-.152-.365-1.852.298-2.061-.03.123-.293 1.333-.145 1.452.281.2.435-1.354.42-1.465-.013-.027.15.225.183.293-.064-.144.558-1.098 1.05-1.53-.025.007-.042.009-.05-.004.074-.034.128-.065.186-.105-.041.038-.09.068-.136.11.117-.038.403-.234.459-.173-.047-.04-.113-.036-.19-.008.532-.31.666-.45.758-.187-.032-.106.735-.275.518-.577-.126-.174-.165.107-.285.205-.027-.133-.178-.23-.19-.298-.025-.469.924-1.083 1.24-1.504.03.137-.156.152-.116.274-.027-.086 1.994-1.332 2.151-1.517-.027.097-.289.284-.279.315.041.145.414-.096.448-.127.087.414-1.542.49-1.003 1.306.203.308 3.586-2.79 2.73-2.61-.94.2-1.11.484-1.124.608-.025-.098-.138-.323-.515-.768.014.015-.876.201-.966.164 0-.005-.002-.017.002-.026.612.004.75-.505 1.167-.72.104-.913-2.854 1.438-3.197 1.753 1.83-2.15 3.86-2.067 5.808-3.601 1.544-.327 1.447-1.948.777-1.982z"/>
        <path fill="#FFF" d="M69.296 115.664c-.05.042-.106.076-.155.138.029-.06.087-.1.155-.138M68.636 116.105a.154.154 0 0 0-.035.022c.011-.004.022-.014.035-.022M65.664 111.162c-.25.31.122-.27 0 0M56.757 110.79c.401.085-.112.073 0 0M52.613 133.376c.171-.31-.039.078 0 0M32.443 116.683c.037-.008.042-.009 0 0M32.075 116.754c-.029.002-.051.008-.068.01.017-.002.04-.008.068-.01M33.393 119.323c-.838.347.17-.079 0 0M37.812 120.997c.008-.007-.008.025-.013.034.055-.167.183-.374.013-.034M38.612 121.578c-.025.07 0-.003 0 0M55.883 144.059c-.575.608.22-.237 0 0M53.064 134.046c-.067-.005-.12-.134-.207-.214-.032.123.014.206.207.214M65.932 112.466c-.007-.01-.01-.01-.01-.016a.31.31 0 0 0-.147.093c.106-.009.182-.028.157-.077M46.137 111.812c.007.008-.018.04-.051.071.037-.022.06-.052.051-.07M63.03 143.659c-.413.892.526-1.205 0 0m14.869 4.117c.015.004-.125-.846-.379-.79-.855.181-1.774-.417-2.185 1.084-.084-.53-4.513-6.845-5.676-4.132.033-1.088-1.793-1.249-2.407-1.69-.983.208-3.535-.155-3.938-.31-.052.224-.673 1.085-.675.947-.027-.13-.161-.195-.186-.313-.024-.104.604-.317.333-.569-.985-.884-2.719 3.15-2.553 3.112-.276.06-.56.062-.848.044.313.78 1.104 2.456 1.036 2.471-1.46.307-.951 4.467-.65 3.842.21 2.666 1.684 3.681 3.66 6.238 1.213 1.571 5.778 1.648 4.77 4.807-.344 1.271 2.18 9.837 3.305 10.142-.244.11.056.98.353.919.296-.062-.105-.829-.127-1.09.01.014.105-.017.125-.02.135-.03.782 1.487.65 1.647-.15.03-.281-.345-.46-.312.156-.03.303 1.78.422 1.755-.069.013.717-.295.675-.512.113.103.376.44.326.6-.878 1.306 1.772 2.51 1.779 2.5.017.039.05.107.052.144-.188.01-.362-.114-.303.162.103.356 4.365 1.015 4.492.78-.003-.006-.001-.009.008-.01-.537.116.367-.782.392-.852-2.862-.125-4.59-4.864-4.046-6.106.106-.45.477.391.652-.016.108-.267-1.482-.366-1.313-.859.187-.096 1.993-1.816.778-1.416 3.465-1.73 1.085-.825.678-2.852.351 1.67 2.145-1.008 2.702-2.341.006.063.025.098.076.087.542-.116.398-4.78 1.787-5.531 1.264-.775 2.998-10.431 1.598-11.147-1.41-.718-3.67-.2-4.903-.413M63.029 143.658c.029-.065-.044.101 0 0M68.5 110.127c.017.018.034.036.036.044-.002-.052-.018-.061-.036-.044M74.351 106.07c-.1-.035-.356-.075-.423-.112.094-.057.464-.094.571-.118.034-.007-.03.089-.148.23m10.498-3.895c-.066.052-.356.197-.266.32a7.949 7.949 0 0 0-.332-.19c.027-.056.5-.157.598-.13m.442 1.427c-.524.001-1.032.174-1.538.25.741-.184.798-.172 1.804-.383.432-.093-.343-.601-.871-.921.233.083 1.172.145.888-.406-.063-.116-.44-.013-.546-.08.47-.28.688-.09 1.093-.48-.011.047-.179-.007-.22-.028.294-.064.6-.119.804-.365.102-.145-.385-.07-.448-.108.713-.514-.052-.491-.17-.75-.175-.358.543-.114.737.047.054-.172.24-.503.253-.476-.152-.378-.478.137-.703-.095.037-.008.492.04.449-.121-.12-.563-.877.198-.938.201.014-1.164 3.428-1.476 3.377-2.358.003.165-2.734.393-2.664.334-.048.047.055.47-.47.434.389-.539-.896.085-.975-.017.155-.042 1.312-.41 1.294-.503-.118-.549-3.753.698-3.837.695.065-.052.432-.15.404-.285-.162-.476-4.256 1.479-4.544 1.203.011.002-.25-.167-.218-.018.09.433.821-.092.953.179-.325.176-1.699-.251-1.9.197-.074.164.279.147.364.152-.118.049-1.135.24-1.252.298.124-.209-4.889 1.348-4.778 1.616.078.18.645-.21.715-.086.308.56-3.32.985-3.241 1.522.009.063.78.093.892.118-.24.051-.756.02-.76.286.037 1.111 3.776-.863 3.96-.18.078.375-.154.01.28.347-.322.497-.003.806.248.626.01.106-.783.884-.15.403-.048.07-.413.534-.291.615.333.214.673-.158.856-.367-.006.332.232.516.616.351.001.006-.01.155-.021.157-.557.217-.686-.185-.708-.196-.287-.218-.797.912-.827 1.006-.077.263.54.104.91-.059-.499.61-1.246 1.538-.696 1.458-.813 1.624 1.032 2.257 1.991 2.873.311.205 5.596-4.528 5.971-5.456.578.345 1.694-.099 2.304-.495.228-.133 1.603-1.135 1.603-1.135"/>
        <path fill="#FFF" d="M86.84 100.468c.06-.01.044-.043-.015-.09-.014.063-.018.098.016.09M91.47 109.74c.077.076.248-.406.33-.466.026.126-.18.437-.044.56.11-.068.177-.333.283-.342.026.182-.44.485-.356.592.147.153.292-.264.329-.272-.001.078-.11.383-.03.476.092.095.358-.415.372-.42.044.023-.092.465-.07.535.043.121.607-.15.691-.21.013.273-.466 1.357-.52 1.095.05.237.162.183.411.198-.047.14-.45.582-.403.648.08.154.831.019 1.032-.062-.049.063-1.319.835-1.18 1.039-.016-.033 3.253-1.069 3.124-1.384-.022-.05-.353-.029-.362-.028.13-.377.704-1.307-.323-.748-.101.17-1.278-2.516-1.213-2.403-.192-.33-.775.323-.947.153.044.04.752-.943.549-1.022a4.804 4.804 0 0 0-.192-.037c-.082.018-.773.874-.97 1.1-.174.194-.235.258-.588.371.125.165.035.584.076.627M155.65 107.162c-.011.004-.017.005-.028.006.054.01.053.005.028-.006M146.997 121.614c.016-.031-.06.102 0 0M160.336 100.996c.065.049.105.069.111.048.011-.005-.041-.026-.111-.048M119.735 94.988c-.008.024.014.059.05.083-.007-.13-.028-.196-.05-.083M163.927 96.234a.13.13 0 0 0 .032.025c0-.015-.009-.022-.032-.025"/>
        <path fill="#FFF" d="M145.283 90.039c.478-.349.219-.141 0 0m-23.442 6.37c.434-.036.902.522.941.513-.234.05-.6-.443-.941-.514m-1.58 1.657c.98-.21.578-1.165-.193-1.958.47.322 1.076.353 1.707.31-.017.006-.59.188-.611.307-.039.159.922 1.887-.902 1.34m1.143-2.664a.541.541 0 0 1-.186.018c.268-.038.462-.106.186-.018m32.872 21.324c.09.378 4.29-3.983 2.436-5.426.136.097-.837.167-.823.182 1.052-.414-.555-1.443-1.035-1.732-2.06-1.189-.053-1.085-.24-1.972-.006-.03-.09-.26-.117-.279-.129-.09-3.194.533-2.942-.265a.742.742 0 0 1 .03-.152c.588-.123.704-1.368 1.23-1.268.205.012.264.679.344 1 .375-.084 2.307.297 2.49.35 1.222-.236.681.816 1.55 1.706-.017-.024 1.883-.842.955-1.488-.572-.383-3.131-2.826-1.877-3.092 2.86-.602 1.05-3.9.188-5.802 1.27-.048 2.455 3.028 3.382 2.834.146-.032-.096-.305-.103-.38.077-.03.415.017.59.057-.36-.245-1.52-1.311-1.63-1.415.175-.097.98.13.982.097.015-.1-3.922-2.512-4.083-2.478 0-.003-.033.01-.028.007-.263.133.468.41.537.45-.198.407.122-.004.235.714-.94-.578-2.132-1.057-2.753-.57-.06-.258-.668-.616-.69-.401.001.136.482.202.431.34-.053.157-.567-.295-.59-.289 0 0-.007.34-.605.285.674-1.555 2.111-4.673 4.32-3.488a.763.763 0 0 0-.284.197c.077.366 1.659-.427 1.657-.442-.072-.511-.156-.694-.207-.742.072-.047.216-.204.469-.662-.176.346 1.71.565 1.413-.228-.057-.16-.462-.202-.597-.319.449.09.788.252 1.185.616-.075.005-.552 1.654-.64 1.823.045-.058 4.07 3.685 3.984 3.593.3.309.36-1.262-.054-1.685.037-.01.426-.181.538-.165-.14-.105-.689-.312-.66-.44.01-.043.502-.935.082-1.128.013-.034.006-.065-.043-.122-.366-.45-2.637-.66-2.457-1.428.226-.71 1.885-.427 2.682-.594-.83.175 1.832-2.666 1.735-1.725.095-.73-2.069-.422-2.377-.75.212 0 .776-.068.696-.43-.024-.13-.735-.367-.684-.377.034-.008.197.12.162-.046.306.395 3.907.26 3.923.08.012-.08-.667-.338-.742-.373.071-.074.477-.044.37-.238-.286-.073-2.564-.723-2.727-.205.144.093.297.164.468.207-2.957-.104-5.631-.406-8.584-.04.083.05 1.112.484 1.1.422-.296.746-10.17.595-12.029.859-.018-.09.27-.093.295-.14a.19.19 0 0 1-.01-.042c-.082-.13-2.064.307-2.064.29-.004.053.213.089.252.098-.069.027-.519.093-.524.18-.007-.155.832.275.845.279-.748.224-1.663.109-2.807.35-.124.027.205.462.255.57-.419-.039-4.638-1.359-4.738-.44-.02.136.46.216.551.302-1.515-.393-3.851.987-4.835.482.093-.042.522-.134.486-.306-.085-.396-1.103.491-1.097.511.03.15.323.007.41-.023-.031.28-1.364.351-1.295.683-.096-.461 1.663-1.106 1.496-1.485-.49-1.212-5.363.455-5.142.476-.928.015-1.17.565-2.108.56-.23.105-2.386 1.083-2.335 1.343.013.076.811-.042.936-.022-.32.39-2.025.343-1.984.827.038.285 1.503.264 1.524.371-.08.148-1.57.108-1.844.04.058-.047.345-.093.356-.155.095-.486-.894.525-.797.454.26.05.392-.113.64-.05-.104.076-.725.039-.724.238 0 .023.006.037.01.054-.34-.071-.681-.177-.81-.28.022.252.019.748-.072.682.014.018.033.045.053.065-1.082-.934-2.556-1.403-2.292.537-.003-.02.646.309.673.32-.22.813 1.055-.172 1.001.708-.45.005-4.482-.297-4.408-.038.007.03 1.171.264 1.326.268.192.727-.712.083-.883.008-.122.107-.868.69-1.507.908-.224-.31.15-.14.101-.36-.04-.208-2.827 2.131-3.164 1.448.094-.26.45-.08.536-.304-.38-.092-1.164-.045-1.402-.148-.076.141.831.889.828.785-.003.12-.086.253-.01.366-1.393-.606-1.098.787-1.133.974-.202.507-1.369-.303-1.554.221-.062.163.726.24.813.303-.77.61-2.015-.644-2.574-.916.662-.377 5.033-.356 2.195-1.157-1.65-.545-2.72-.12-4.006-.017.04-.026.512-.284.485-.358-.193-.44-1.11.17-1.17.164.005-.009.153-.3.15-.305-.354-.257-.504.291-.662.406-.027-.025-.05-.045-.067-.066.02.1-.055.234-.446.344.01-.094.299-.439.19-.525.012.022-1.303.572-1.505.565.059.027.282.062.337.141-.533.058-.547.12-.851.462-.1-.798-.544.166-.605.456-.395-.472-.324.013-.41.243-.317-.553-.899.335-1.367.65a.302.302 0 0 0 .04.154c.092.08.636-.394.777-.452.391 1.609-2.593 2.906-2.507 3.457-.03-.228-1.467 1.733-.349 1.866-.222.753 1.995.867 2.127-.41 1.003 1.72.654 1.384.76 2.453.004.069.234.112.285.102 1.537-.323 1.657-2.28 2.418-3.447.054-.071-1.704-.87-.722-1.576.481-.387 1.3-.93 1.836-1.278-.552.538-1.145 1.56-.404 2.053.761.49 2.437-.189 3.571-.293-.55.26-3.103.87-3.03 1.576 0-.043.219.25.192.249.12-.043 1.054-.679.936-.46.012.228.143.418.123.624-1 .56-3.062 3.418-5.192 2.868-.52.566-.367-1.861-.532-1.98-1.17-.797-.33 2.122-.324 2.141.048.112-4.087 3.281-4.319 3.328.935-.195-1.014 1.328-1.23 1.135.296.602 4.11 1.959.17 2.79-2.358.497-1.6 2.167-1.2 4.273.834.007 5.095-.44 3.978-2.263-.665-1.11 3.991-5.001 4.404-3.056.024.106 2.476.59 2.565.952.314 1.156-.875 1.407-.839 1.584.472 2.238 2.56-1.545 1.996-1.874.202.052.461.236.573.224.257-.448-3.32-1.377-3.487-2.174-.222-1.04 1.291-.164 1.316-.049.045.217 4.978 3.474 5.259 2.904 0 .006.113-.288.17-.366-.208-.086-1.592-1.083-1.363-1.13.194-.041 1.726-.935 1.895-.379.033.091-.284.672-.2.799.308.426.425-.338.419-.337.037.203-.139.753-.222.86.13-.007.617.05.665 0 .027.082-.388.318.245.417-.073.016-.225.463-.206.516.245-.264.225-.301.483-.453.02.107-.22.097-.235.273.052.022.35.197.42.306.081-.15.082-.437.142-.504.09.437 3.577-.349 3.485-.777 1.292 3.065-1.022 3.923-3.837 4.006-.406.008-5.005.532-3.496 1.358-1-.552-3.169-1.024-4.14-1.044-.9-.053.108-1.51-.374-1.982-1.246-1.271-8.351 3.527-9.073 4.248-.87.844-2.55 5.216-2.867 6.68-.082.661.088 5.471.676 5.913 1.04.74 2.19 2.104 3.54 3.047 2.462 2.12 4.99-.475 7.293-1.266.589-.198 4.971.545 3.899 2.101-.588 1.016 2.495 4.68 3.136 5.698 1.442 2.214-.682 4.547 1.671 6.845 1.632 1.533 2.414 5.28 3.76 6.641 1.026 1.027 2.603-.267 3.954-.55 3.072-.652 2.681-7.094 3.168-8.412-.597-1.518 2.23-3.515 1.672-6.187-.073-.46-2.691-4.786-.841-5.177 1.751-.368 3.934-7.662 3.535-8.843-.102-.316-3.646.483-4.388.643.785-1.018-7.694-7.094-7.757-9.404.197.224.817 1.097 1.173 1.023.132-.03.065-.719.064-.892.324 1.148 7.688 7.923 7.468 8.302 1.416-2.465 7.041-3.7 6.177-7.079.037.183-3.07-1.62-2.55-1.73-.655.138-.767 1.47-1.733 1.672-.636.135-.156-1.332-.854-1.188-.16.035-.003.537-.03.573.053-.022-3.164-2.468-1.463-2.571.327-.034 2.83 2.361 3.45 1.274.484-.929 7.019 1.083 8.207.56-.088.32-.648.375-.67.485-.045.258 1.495 1.137 1.77.34.758 2.168 5.953 8.428 5.805 5.968-.05-.506-1.03-3.66-.233-4.184.648-.392 2.292-3.035 2.32-4.012.103.498.929.043.902-.336.238.373.677-.083.634-.289.672 1.366 3.209 3.714 3.757 2.837.893-1.468 2.586 4.824 2.34 4.873.076-.016.058-.33.068-.383.084.078.377.53.414.547 0 .003 3.246 3.932 3.79 3.044.251-.386-6.188-6.367-4.027-6.824.607-.13 3.24 2.315 3.175 2.373 3.395-3.01-3.745-7.087-.07-7.864.046.043.139.638.252.779-.336-.443 1.263-1.11 1.339-1.437"/>
        <path fill="#FFF" d="M153.238 106.988c-.03-.019-.054-.088-.077-.174-.096.022-.09.08.077.174M103.038 99.567c-.017-.101-.15-.152 0 0M108.242 116.793c.01.005.018 0 .032-.024-.032.004-.049.006-.032.024M109.646 117.83c-.026.064-.07.1-.138.097.16.013.181-.037.138-.097M92.837 114.014c-.018-.041-.024-.066-.021-.087a.094.094 0 0 0 .02.087M107.743 116.957c.015.01.03.013.03.007.004-.035-.01-.027-.03-.007M176.088 129.042c.045.005.027.002 0 0"/>
        <path fill="#FFF" d="M175.99 129.55c-.033.098 1.103-.282.1-.509-.07-.013-.03-.007 0 0-.425-.102-6.177-2.873-6.034-.966.059.667-2.105-.87-2.925-.325-.04-.015-.035.12-.045.192.377.12 1.023.7 1.524.562-.245.096-.605.184-.654.31.051-.13.62.707.676.693.214-.045.228-.464.295-.627.207.997 2.013.934 2.358 2.558.13.62 3.865-.847 2.831-.627 1.249-1.28 2.368 1.058 3.902.736.042-.01.234-.343.226-.377-.07-.393-2.54-.796-2.254-1.62M167.085 127.941c-.012-.001-.03-.01-.05-.016.037.09.049.071.05.016M177.938 138.52c-.248-.56-.296-.842-.368-1.188-.132-.506-2.724-2.66-2.692-2.888-.133-.161-.718-2.32-.857-2.291-.466.1-.368 4.996-1.04 4.557-.756-.473-1.695-.573-2.384-1.192-.25-.255.935-1.546.638-1.713a3.15 3.15 0 0 1-.25-.251c-.292.06-.009.418-.198.459-.041-.003-.19-.336-.128-.35-.796.167-1.455-.135-2.068-.005-.223.046.498.359.427.511.012-.013-2.479 1.96-1.328 1.807-.123.449-.599-.038-.703.446-.532-1.84-1.863.752-1.936 1.185-.14.029-.304-.137-.391-.119-.294.062.172.544.175.61-.328-.038-.076-.006-.163.307-.128-.144-.159-.51-.264-.595-1.13 2.072-2.377 2.908-4.273 4.525-.01-.048.005-.444-.104-.411-.012.804.27 1.854.246 2.515-.013.054-.086.117-.127.152-.028-.057-.117-.294-.207-.296-.367 0 .225.464-.001.51-.057-.07-.262-.618-.395-.59.255-.054 1.174 3.486 1.159 3.877-.138 2.166-.14 1.399 1.905.688 1.815-.666 3.185-2.09 5.185-2.508.615-.133 1.074-.012 1.414.21.726 1.735 1.39 3.37 3.432 4.123.55.21 1.342-.03 1.63-.566.14-.269.272-.528.403-.801 1.376-.304 5.569-7.674 4.961-9.6.178.566-1.862-1.889-1.698-1.118"/>
        <path fill="#194366" d="M110.037 206.899l-3.787 27.307 10.125-24.694z"/>
        <path fill="#002A54" d="M106.25 234.207l16.722-21.97-6.597-2.724z"/>
        <path fill="#033259" d="M266.737 207.548l-5.58 2.265 9.115 24.735z"/>
        <g transform="rotate(-8 1633.938 -1701.457)">
            <mask id="b" fill="#fff">
                <use xlink:href="#a"/>
            </mask>
            <path fill="#194366" d="M8.519.158L.778 2.098l13.319 24.159.006-.333z" mask="url(#b)"/>
        </g>
        <path fill="#E1E1E1" d="M164.686 58.878l-59.317 149.127 10.006 3.946 59.317-149.127z"/>
        <path fill="#CACACA" d="M237.22 157.713l-100.103-.94 4.135-6.13 93.505 1.25z"/>
        <path fill="#969696" d="M115.376 211.95l11.976 4.722 59.314-149.127-11.973-4.722z"/>
        <path fill="#E1E1E1" d="M213.711 59.02l-10.5 4.067 58.886 149.187 9.775-3.785z"/>
        <path fill="#969696" d="M203.213 63.085l-11.55 4.472 58.16 149.47 12.275-4.754z"/>
        <path fill="#002A54" d="M181.98 59.05c-.02 4.338 3.495 7.867 7.848 7.88l.228-58.442c-4.352-.014-7.896 3.492-7.914 7.83l-.163 42.732z"/>
        <path fill="#033259" d="M190.015 8.496l-.226 58.442c4.352.011 7.893-3.495 7.911-7.833l.166-42.732c.015-4.337-3.5-7.866-7.851-7.877"/>
        <path fill="#CC3B92" d="M177.608 43.454c-13.143-.036-19.474 8.18-14.067 18.262l16.374 30.53c2.703 5.043 6.28 7.569 9.87 7.58l.22-56.337-12.397-.035z"/>
        <path fill="#DB4196" d="M189.969 43.504l-.22 56.334c3.59.011 7.19-2.494 9.933-7.52l16.606-30.436c5.485-10.05-.779-18.305-13.923-18.341l-12.396-.037z"/>
        <path fill="#194366" d="M194.237 168.799l-10.93-.03.118-29.747 10.93.032z"/>
    </g>
</svg>
