<svg xmlns="http://www.w3.org/2000/svg" width="215" height="288" viewBox="0 0 215 288">
    <g fill="none" fill-rule="evenodd" transform="translate(-1 -6)">
        <path fill="#DB4196" fill-rule="nonzero" d="M95.329 49.713l10.005 1.066-2.165 3.379.401.271c26.218 17.856 47.063 42.344 60.114 70.755l.183.401 3.697-1.567-.63 10.043-7.656-6.53 3.668-1.556-.17-.374c-12.975-28.245-33.7-52.591-59.769-70.345L102.63 55l-2.15 3.357-5.151-8.644z"/>
        <ellipse cx="103.9" cy="281.74" fill="#F2F2F2" rx="81.109" ry="12.26"/>
        <path fill="#414042" d="M73.735 130.104H91.163V274.64300000000003H73.735z"/>
        <path fill="#335476" d="M89.536 232.036L74.845 231.937 74.105 27.938 86.674 28.023z" transform="rotate(45 81.82 129.987)"/>
        <path fill="#002A54" d="M90.91 243.22L76.126 243.121 75.25 24.653 87.899 24.738z" transform="rotate(45 83.08 133.937)"/>
        <path fill="#505050" d="M61.67 269.48H101.88900000000001V281.095H61.67z"/>
        <text fill="#002A54" font-family="Montserrat-Medium, Montserrat" font-size="14" font-weight="400">
            <tspan x="69" y="14">90ยบ</tspan>
        </text>
        <text fill="#002A54" font-family="Montserrat-Medium, Montserrat" font-size="14" font-weight="400">
            <tspan x="201" y="148">0ยบ</tspan>
        </text>
        <ellipse cx="84" cy="156.5" fill="#D8D8D8" rx="4" ry="3.5"/>
        <path stroke="#DB4196" stroke-dasharray="5" stroke-linecap="square" d="M190.662 147.25L99.676 147.5M82.5 28.64L82.5 110.534"/>
    </g>
</svg>
