<svg xmlns="http://www.w3.org/2000/svg" width="246" height="199" viewBox="0 0 246 199">
    <g fill="none" fill-rule="evenodd">
        <path fill="#8192A6" d="M0 0H246V199H0z" opacity=".115"/>
        <g fill-rule="nonzero" transform="translate(71 37)">
            <path fill="#DB4196" d="M38 42.5V32c0-3.866 3.134-7 7-7 4.406 2.203 9.594 2.203 14 0 3.866 0 7 3.134 7 7v10.5c0 1.934-1.566 3.5-3.5 3.5h-21c-1.934 0-3.5-1.566-3.5-3.5z"/>
            <circle cx="53" cy="10" r="9" fill="#FFD4B0"/>
            <g fill="#F6C74F">
                <path d="M1.777 42.997c-.958 0-1.736-.77-1.736-1.718C.025 24.732 10.014 9.783 25.406 3.317c.882-.371 1.903.034 2.278.907s-.035 1.884-.917 2.255c-14.11 5.926-23.268 19.631-23.253 34.8 0 .948-.778 1.718-1.737 1.718zM81.65 42.997c-.958 0-1.736-.77-1.736-1.718.014-15.169-9.144-28.874-23.253-34.8-.883-.372-1.292-1.382-.917-2.255s1.396-1.278 2.278-.907c15.39 6.466 25.38 21.415 25.365 37.962 0 .948-.778 1.718-1.737 1.718zM41.714 82.517c-5.604.01-11.151-1.104-16.308-3.276-.882-.371-1.292-1.382-.917-2.255s1.396-1.278 2.278-.907c9.559 3.983 20.335 3.983 29.893 0 .882-.371 1.904.034 2.279.907s-.035 1.884-.917 2.255c-5.157 2.172-10.705 3.287-16.308 3.276z" transform="translate(10 10)"/>
                <path d="M29.56 85.954c-.649.002-1.242-.354-1.543-.923l-3.473-6.575c-.444-.84-.114-1.88.735-2.318.1-.052.208-.095.318-.127l6.945-2.016c.92-.266 1.886.256 2.155 1.167.27.91-.259 1.866-1.179 2.132l-4.916 1.426 2.495 4.72c.445.842.115 1.88-.734 2.318-.248.129-.524.196-.804.196zM81.65 42.997c-.46 0-.903-.18-1.227-.503l-5.21-5.155c-.666-.682-.647-1.77.044-2.43.674-.642 1.74-.642 2.412 0l3.981 3.94 3.982-3.94c.69-.66 1.788-.64 2.455.043.65.667.65 1.722 0 2.387l-5.21 5.155c-.324.323-.767.503-1.227.503zM22.613 13.787c-.26 0-.515-.059-.75-.172-.863-.41-1.227-1.437-.812-2.292l2.707-5.591-5.336-2.406c-.856-.428-1.2-1.46-.77-2.308.409-.8 1.372-1.156 2.211-.816l6.945 3.14c.872.396 1.252 1.417.851 2.28l-.01.02-3.473 7.17c-.288.595-.896.973-1.563.975z" transform="translate(10 10)"/>
            </g>
            <path fill="#EDC4A2" d="M57.642 4c2.773 3.657 2.058 8.868-1.597 11.642-2.97 2.253-7.076 2.253-10.045 0 2.742 3.688 7.954 4.456 11.642 1.716 3.688-2.74 4.456-7.954 1.716-11.642-.486-.653-1.064-1.232-1.716-1.716z"/>
            <circle cx="88" cy="68" r="9" fill="#FFD4B0"/>
            <path fill="#EDC4A2" d="M93.642 62c2.773 3.657 2.058 8.868-1.597 11.642-2.97 2.253-7.076 2.253-10.045 0 2.742 3.688 7.954 4.456 11.642 1.716 3.688-2.74 4.456-7.954 1.716-11.642-.486-.653-1.064-1.232-1.716-1.716z"/>
            <circle cx="16" cy="68" r="9" fill="#FFD4B0"/>
            <path fill="#EDC4A2" d="M21.642 62c2.773 3.657 2.058 8.868-1.597 11.642-2.97 2.253-7.076 2.253-10.045 0 2.742 3.688 7.954 4.456 11.642 1.716 3.688-2.742 4.456-7.954 1.716-11.642-.486-.653-1.064-1.232-1.716-1.716z"/>
            <path fill="#8192A6" d="M1 99.5V89c0-3.866 3.134-7 7-7 4.406 2.203 9.594 2.203 14 0 3.866 0 7 3.134 7 7v10.5c0 1.934-1.566 3.5-3.5 3.5h-21c-1.934 0-3.5-1.566-3.5-3.5z"/>
            <path fill="#002A54" d="M74 99.5V89c0-3.866 3.134-7 7-7 4.406 2.203 9.594 2.203 14 0 3.866 0 7 3.134 7 7v10.5c0 1.934-1.566 3.5-3.5 3.5h-21c-1.934 0-3.5-1.566-3.5-3.5z"/>
            <path fill="#000" d="M63 10.5C63 4.7 58.3 0 52.5 0S42 4.7 42 10.5 46.7 21 52.5 21c5.796-.005 10.495-4.704 10.5-10.5zm-17.5 0c0-3.866 3.134-7 7-7s7 3.134 7 7-3.134 7-7 7-7-3.134-7-7zM37 30.571v10.286C37 43.697 39.313 46 42.167 46h20.666C65.687 46 68 43.698 68 40.857V30.571c-.005-4.73-3.858-8.566-8.611-8.571h-.407l-.363.18c-3.855 1.91-8.384 1.91-12.238 0l-.364-.18h-.406c-4.753.005-8.606 3.84-8.611 8.571zm3.445 0c0-2.698 2.095-4.937 4.8-5.129 4.601 2.126 9.909 2.126 14.51 0 2.705.192 4.8 2.431 4.8 5.13v10.285c0 .946-.771 1.714-1.722 1.714H42.167c-.95 0-1.722-.768-1.722-1.714V30.571zM88.5 57C82.7 57 78 61.7 78 67.5S82.7 78 88.5 78 99 73.3 99 67.5c-.005-5.796-4.704-10.495-10.5-10.5zm0 17.5c-3.866 0-7-3.134-7-7s3.134-7 7-7 7 3.134 7 7-3.134 7-7 7zM95.111 80h-.42l-.374.171c-3.98 1.91-8.654 1.91-12.633 0L81.309 80h-.42c-4.907.005-8.884 3.84-8.889 8.571v10.286c0 2.84 2.388 5.143 5.333 5.143h21.334c2.945 0 5.333-2.302 5.333-5.143V88.571c-.005-4.73-3.982-8.566-8.889-8.571zm5.334 18.857c0 .946-.797 1.714-1.778 1.714H77.334c-.981 0-1.778-.768-1.778-1.714V88.571c0-2.698 2.164-4.937 4.955-5.129 4.75 2.126 10.229 2.126 14.98 0 2.79.192 4.954 2.431 4.954 5.13v10.285zM15.5 57C9.7 57 5 61.7 5 67.5S9.7 78 15.5 78 26 73.3 26 67.5c-.005-5.796-4.704-10.495-10.5-10.5zm0 17.5c-3.866 0-7-3.134-7-7s3.134-7 7-7 7 3.134 7 7-3.134 7-7 7zM5.167 104h20.666c2.854 0 5.167-2.302 5.167-5.143V88.571c-.005-4.73-3.858-8.566-8.611-8.571h-.407l-.363.171c-3.855 1.91-8.384 1.91-12.238 0L9.017 80h-.406C3.858 80.005.005 83.84 0 88.571v10.286C0 101.697 2.313 104 5.167 104zM3.445 88.571c0-2.698 2.095-4.937 4.8-5.129 4.601 2.126 9.909 2.126 14.51 0 2.705.192 4.8 2.431 4.8 5.13v10.285c0 .946-.771 1.714-1.722 1.714H5.167c-.95 0-1.722-.768-1.722-1.714V88.571z"/>
        </g>
    </g>
</svg>
