<svg xmlns="http://www.w3.org/2000/svg" width="24" height="24" viewBox="0 0 24 24">
    <path fill="#2A4092" fill-rule="evenodd" d="M11.962 4.377h-.05c-2.51.026-4.573 2.057-4.598 4.529l-.054 5.19-1.581 3.071 12.191-.123-1.528-3.061.052-5.194a4.304 4.304 0 0 0-1.271-3.12 4.44 4.44 0 0 0-3.161-1.292zm-1.435 13.95c.06.123.141.236.242.337.247.247.565.372.942.378a1.385 1.385 0 0 0 1.21-.74l-2.394.025zm1.17 1.882c-.667 0-1.29-.255-1.756-.719a2.41 2.41 0 0 1-.656-1.192l-5.533.057 2.34-4.547.051-4.915c.032-3.102 2.614-5.652 5.758-5.683a5.601 5.601 0 0 1 4.049 1.634 5.468 5.468 0 0 1 1.615 3.957l-.05 4.912 2.237 4.48-5.573.056a2.557 2.557 0 0 1-2.457 1.96h-.026z"/>
</svg>
