<svg xmlns="http://www.w3.org/2000/svg" width="28" height="28" viewBox="0 0 28 28">
    <g fill="none" fill-rule="evenodd">
        <path fill="#2A4092" d="M12.943 3.566h-.075c-3.766.038-6.86 3.085-6.896 6.793l-.081 7.785-2.373 4.607 18.288-.186-2.294-4.59.079-7.792a6.457 6.457 0 0 0-1.907-4.678c-1.256-1.252-2.937-1.939-4.741-1.939zM10.79 24.49c.092.185.212.355.363.506.372.37.848.557 1.413.567a2.077 2.077 0 0 0 1.816-1.11l-3.592.037zm1.754 2.824c-1 0-1.934-.383-2.632-1.079a3.615 3.615 0 0 1-.984-1.788l-8.3.085 3.511-6.82.076-7.372c.047-4.653 3.92-8.478 8.636-8.525a8.402 8.402 0 0 1 6.074 2.452 8.202 8.202 0 0 1 2.423 5.934l-.076 7.369 3.356 6.718-8.36.085a3.835 3.835 0 0 1-3.685 2.941h-.039z"/>
        <circle cx="5.25" cy="5.25" r="4.237" fill="#DB4196" stroke="#FFF" stroke-width="2.025" transform="translate(17.128 .314)"/>
    </g>
</svg>
