<svg xmlns="http://www.w3.org/2000/svg" width="113" height="86" viewBox="0 0 113 86">
    <g fill="none" fill-rule="evenodd">
        <g transform="translate(4)">
            <ellipse cx="52.5" cy="81" fill="#D8D8D8" rx="26.5" ry="5"/>
            <path fill="#002A54" d="M105 65L0 65 7.582 0 97.418 0z"/>
            <path fill="#FFF" opacity=".2" style="mix-blend-mode:screen" d="M5 60L11.535 4 93.465 4 100 60z"/>
            <path fill="#033259" d="M52 4H53V60H52zM65 4.059L66.645 4 69 59.941 67.355 60zM79 4.118L80.548 4 85 59.882 83.452 60zM36 59.941L38.36 4 40 4.059 37.64 60zM20 59.881L24.457 4 26 4.119 21.543 60z" opacity=".64"/>
            <path fill="#033259" d="M10 15H95V16H10zM9 26H96V27H9zM8 37H98V38H8zM7 48H99V50H7z" opacity=".64"/>
            <path fill="#414042" d="M44 64H61V78H44z"/>
            <path fill="#505050" d="M40 74H65V81H40z"/>
            <path fill="#FFF" opacity=".1" style="mix-blend-mode:screen" d="M105 64.717L97.489 0 53 0 53 81 65.768 81 65.768 74.435 61.139 74.435 61.139 64.717z"/>
        </g>
        <path fill="#CC3B92" d="M9.417 19c-3.322 1.429-5.57 2.786-6.747 4.071-.864.971-1.573 2.088-2.034 3.291-.25.599-.39 1.22-.515 1.851l-.12.97c-.006.326.007.66.026.983.102 1.269.467 2.535 1.062 3.693.595 1.16 1.423 2.193 2.348 3.103 1.868 1.822 4.12 3.15 6.427 4.233 4.649 2.139 9.582 3.408 14.517 4.423 4.946.998 9.939 1.682 14.942 2.175 5.005.491 10.024.775 15.045.883 2.515.049 5.011.07 7.557.008 2.53-.064 5.044-.2 7.552-.385 5.015-.374 10.008-.935 14.966-1.727 1.24-.199 2.477-.412 3.71-.643l1.121-.215 1.03-.207c.686-.14 1.371-.286 2.054-.441 1.368-.307 2.729-.64 4.081-1.005L93.73 52c2.366-1.59 4.688-3.182 6.948-4.817 2.257-1.634 4.462-3.283 6.52-5.064 1.029-.888 2.01-1.825 2.912-2.816.894-.993 1.704-2.068 2.25-3.249.554-1.17.771-2.458.563-3.626-.192-1.174-.744-2.206-1.373-3.157.54.993.855 2.114.704 3.17-.135 1.057-.723 1.978-1.535 2.65-.808.684-1.816 1.16-2.891 1.501-1.07.348-2.22.55-3.39.673-2.346.237-4.797.12-7.252-.188-2.456-.314-4.934-.836-7.394-1.482 1.93 2.267 3.912 4.315 5.94 6.076-1.33.275-2.67.521-4.016.749-.673.115-1.348.22-2.023.323l-1.014.152-1.104.156c-1.215.169-2.434.319-3.654.463-4.882.563-9.798.949-14.715 1.189-2.457.115-4.917.198-7.364.225-2.43.026-4.913-.012-7.375-.058-4.93-.104-9.86-.3-14.766-.65-4.905-.357-9.795-.868-14.595-1.702-4.785-.842-9.535-1.99-13.801-3.869-2.117-.943-4.108-2.093-5.65-3.547-.768-.726-1.425-1.521-1.894-2.387-.467-.865-.76-1.793-.863-2.755-.018-.234-.033-.46-.038-.693l.074-.7c.086-.467.175-.952.357-1.404.329-.918.844-1.784 1.514-2.575.686-.782 1.51-1.49 2.415-2.131.6-.429 1.251-.812 1.924-1.173L9.417 19z"/>
    </g>
</svg>
