<svg xmlns="http://www.w3.org/2000/svg" width="272" height="288" viewBox="0 0 272 288">
    <g fill="none" fill-rule="evenodd">
        <path fill="#CC3B92" d="M190.557 197.764c-9.146-1.42-18.32-2.47-27.512-3.329a465.507 465.507 0 0 0-27.633-1.737c-9.228-.289-18.47-.289-27.717.18-9.244.476-18.498 1.38-27.697 3.17-9.174 1.845-18.399 4.368-27.049 9.463-4.28 2.594-8.447 5.936-11.71 10.662a29.066 29.066 0 0 0-3.763 8.07c-.463 1.467-.72 2.99-.952 4.538l-.221 2.379c-.011.798.011 1.617.046 2.41.19 3.109.865 6.213 1.965 9.052 1.102 2.843 2.632 5.377 4.343 7.61 3.455 4.465 7.62 7.72 11.886 10.377 8.6 5.243 17.724 8.356 26.851 10.845 9.148 2.445 18.383 4.123 27.637 5.331 9.257 1.205 18.54 1.9 27.826 2.165 4.652.12 9.268.172 13.978.02 4.678-.157 9.328-.489 13.967-.945 9.276-.916 18.51-2.292 27.68-4.233a213.59 213.59 0 0 0 6.863-1.575l2.073-.53 1.905-.507a143.01 143.01 0 0 0 3.799-1.081c2.529-.752 5.046-1.567 7.548-2.464l-5.014 19.465c4.377-3.898 8.671-7.802 12.852-11.81 4.175-4.006 8.253-8.05 12.06-12.415a75.142 75.142 0 0 0 5.384-6.905c1.655-2.434 3.153-5.07 4.164-7.965 1.023-2.87 1.425-6.028 1.04-8.892-.355-2.878-1.377-5.408-2.54-7.739 1 2.436 1.582 5.183 1.302 7.77-.25 2.594-1.337 4.85-2.839 6.5-1.494 1.676-3.359 2.844-5.348 3.68-1.98.853-4.106 1.347-6.267 1.65-4.341.58-8.875.296-13.415-.463-4.543-.768-9.125-2.047-13.676-3.633 3.57 5.56 7.235 10.58 10.989 14.898-2.462.674-4.94 1.278-7.43 1.835a177.53 177.53 0 0 1-3.742.794l-1.875.371-2.042.383c-2.247.414-4.502.782-6.758 1.135-9.03 1.382-18.123 2.326-27.216 2.915-4.545.284-9.095.485-13.621.553-4.495.064-9.086-.03-13.64-.144-9.12-.253-18.235-.732-27.31-1.595-9.072-.872-18.117-2.126-26.995-4.171-8.85-2.064-17.635-4.878-25.526-9.485-3.916-2.313-7.597-5.133-10.45-8.696-1.42-1.78-2.636-3.73-3.503-5.853a22.766 22.766 0 0 1-1.597-6.754 39.97 39.97 0 0 1-.068-1.699l.136-1.715c.16-1.146.324-2.336.66-3.445a22.789 22.789 0 0 1 2.8-6.313c1.269-1.917 2.793-3.654 4.468-5.224 1.67-1.582 3.551-2.912 5.464-4.176 7.805-4.883 16.684-7.67 25.58-9.724 8.94-2.017 18.048-3.21 27.183-3.976 9.139-.755 18.317-1.075 27.501-1.1 9.185-.026 18.376.236 27.562.734 9.184.495 18.371 1.205 27.525 2.227l.089-.89z"/>
        <path fill="#DB4196" d="M70.24 116.93c11.866 2.06 23.776 3.64 35.718 4.97 11.94 1.312 23.912 2.297 35.91 2.896 11.999.587 24.024.798 36.064.4 12.037-.41 24.097-1.378 36.106-3.503 11.978-2.195 24.036-5.275 35.405-11.721 5.627-3.285 11.124-7.547 15.476-13.636a37.938 37.938 0 0 0 5.079-10.436c.634-1.903 1.003-3.883 1.34-5.897l.342-3.096c.033-1.04.02-2.11-.006-3.143-.176-4.06-.984-8.122-2.352-11.85-1.368-3.732-3.302-7.072-5.477-10.021-4.394-5.903-9.738-10.243-15.23-13.805-11.07-7.034-22.87-11.301-34.688-14.755-11.846-3.397-23.822-5.796-35.834-7.584-12.016-1.782-24.078-2.9-36.153-3.458-6.05-.263-12.054-.436-18.185-.347-6.09.1-12.147.426-18.193.914-12.088.983-24.133 2.566-36.108 4.888a277.344 277.344 0 0 0-8.964 1.898l-2.709.642-2.49.618a185.72 185.72 0 0 0-4.966 1.324 186.39 186.39 0 0 0-9.877 3.04L47.412 0C41.63 4.982 35.955 9.976 30.425 15.106c-5.522 5.13-10.92 10.31-15.972 15.914-2.523 2.796-4.938 5.75-7.16 8.882-2.208 3.135-4.217 6.539-5.598 10.29C.3 53.912-.295 58.02.141 61.763c.397 3.762 1.67 7.084 3.129 10.15-1.246-3.199-1.94-6.794-1.518-10.162.384-3.376 1.85-6.294 3.84-8.411 1.983-2.152 4.435-3.631 7.041-4.676 2.595-1.068 5.373-1.663 8.192-2.009 5.661-.657 11.553-.183 17.442.91 5.893 1.105 11.825 2.878 17.71 5.05-4.518-7.332-9.173-13.962-13.959-19.678a212.127 212.127 0 0 1 9.707-2.222c1.625-.34 3.255-.646 4.887-.95l2.448-.442 2.665-.452a334.3 334.3 0 0 1 8.818-1.326c11.78-1.595 23.63-2.619 35.474-3.18 5.92-.265 11.843-.423 17.734-.41 5.848.02 11.82.249 17.742.5 11.858.539 23.707 1.372 35.495 2.704 11.783 1.346 23.52 3.187 35.026 6.057 11.468 2.893 22.832 6.764 32.994 12.95 5.043 3.106 9.768 6.868 13.4 11.58 1.805 2.353 3.344 4.925 4.424 7.712a29.752 29.752 0 0 1 1.925 8.844c.028.75.053 1.474.05 2.216l-.216 2.234c-.233 1.49-.474 3.038-.935 4.477a29.748 29.748 0 0 1-3.787 8.167c-1.694 2.472-3.716 4.702-5.93 6.711-2.21 2.024-4.687 3.716-7.204 5.32-10.265 6.19-21.879 9.62-33.5 12.096-11.676 2.426-23.552 3.774-35.454 4.564-11.908.775-23.856.983-35.805.806-11.95-.176-23.902-.728-35.84-1.588-11.939-.855-23.875-1.99-35.76-3.533l-.136 1.158z"/>
        <g transform="translate(20.9 56.1)">
            <ellipse cx="120.539" cy="186.969" fill="#D8D8D8" rx="60.537" ry="11.25"/>
            <path fill="#002A54" d="M241.078 148.932H0L17.407 0H223.67z"/>
            <path fill="#FFF" d="M11.786 138.218L26.748 10.715H214.33l14.963 127.503z" opacity=".2" style="mix-blend-mode:screen"/>
            <path fill="#033259" d="M118.932 10.715h3.214v127.503h-3.214zM150.154 10.893l3.481-.135 4.986 127.963-3.481.136zM181.457 10.946l3.473-.27 9.986 127.956-3.473.27zM82.596 138.707l5.008-127.962 3.48.136-5.008 127.962zM46.263 138.605l10.03-127.953 3.473.272-10.03 127.953z" opacity=".64"/>
            <path fill="#033259" d="M23.572 34.287h193.933v3.214H23.572zM21.429 60.002H220.72v3.214H21.429zM18.215 85.716h205.719v3.214H18.215zM15 111.431h212.148v3.214H15z" opacity=".64"/>
            <path fill="#414042" d="M101.788 147.861h37.501v31.072h-37.501z"/>
            <path fill="#505050" d="M91.074 171.433h58.93v15h-58.93z"/>
            <path fill="#FFF" d="M241.078 148.957L223.59 0H120.003v186.433h29.728v-15.11h-10.778v-22.366z" opacity=".1" style="mix-blend-mode:screen"/>
        </g>
    </g>
</svg>
