<?xml version="1.0" encoding="UTF-8"?>
<svg width="109px" height="160px" viewBox="0 0 109 160" version="1.1" xmlns="http://www.w3.org/2000/svg" xmlns:xlink="http://www.w3.org/1999/xlink">
    <!-- Generator: sketchtool 60.1 (101010) - https://sketch.com -->
    <title>5711F235-435B-454E-A53C-0C15523D164B</title>
    <desc>Created with sketchtool.</desc>
    <g id="Symbols" stroke="none" stroke-width="1" fill="none" fill-rule="evenodd">
        <g id="medalla_plata">
            <g id="plata">
                <path d="M75.5733333,36.4654545 L35.1442424,36.4654545 C32.5018182,36.4654545 30.3218182,38.6454545 30.3218182,41.2878788 L30.3218182,67.0515152 L80.3957576,67.0515152 L80.3957576,41.2878788 C80.3957576,38.5793939 78.2157576,36.4654545 75.5733333,36.4654545 Z M76.8284848,45.8460606 L32.9642424,45.8460606 L32.9642424,43.8642424 C32.9642424,41.750303 34.6818182,39.9666667 36.8618182,39.9666667 L72.9969697,39.9666667 C75.1109091,39.9666667 76.8945455,41.6842424 76.8945455,43.8642424 L76.8945455,43.8642424 L76.8945455,45.8460606 L76.8284848,45.8460606 Z" id="Shape" fill="#6B7384" fill-rule="nonzero"></path>
                <polygon id="Path" fill="#002A54" fill-rule="nonzero" opacity="0.75" points="19.0915152 0 36.5315152 44.0624242 73.8557576 44.0624242 56.8781818 0"></polygon>
                <polyline id="Path" fill="#002A54" fill-rule="nonzero" opacity="0.27" points="25.6315152 0 22.7909091 0 40.5612121 44.0624242 43.4018182 44.0624242"></polyline>
                <polyline id="Path" fill="#002A54" fill-rule="nonzero" opacity="0.27" points="34.3515152 0 31.5109091 0 49.2812121 44.0624242 52.1218182 44.0624242"></polyline>
                <polyline id="Path" fill="#002A54" fill-rule="nonzero" opacity="0.27" points="42.7412121 0 39.9006061 0 57.6709091 44.0624242 60.5115152 44.0624242"></polyline>
                <polyline id="Path" fill="#002A54" fill-rule="nonzero" opacity="0.27" points="51.7254545 0 48.8848485 0 66.6551515 44.0624242 69.4957576 44.0624242"></polyline>
                <circle id="Oval" fill="#798093" fill-rule="nonzero" cx="54.3018182" cy="105.498788" r="54.3018182"></circle>
                <path d="M54.3018182,51.1969697 C53.7733333,51.1969697 53.2448485,51.1969697 52.7163636,51.1969697 C82.7078788,52.1218182 106.225455,77.1587879 105.300606,107.150303 C104.375758,135.820606 81.3866667,158.809697 52.7163636,159.734545 L54.3018182,159.734545 C84.2933333,159.734545 108.603636,135.424242 108.603636,105.432727 C108.603636,75.4412121 84.2933333,51.1969697 54.3018182,51.1969697 L54.3018182,51.1969697 Z" id="Path" fill="#6B7384" fill-rule="nonzero"></path>
                <circle id="Oval" fill="#9EA8BA" fill-rule="nonzero" cx="54.3018182" cy="105.498788" r="44.2606061"></circle>
                <path d="M48.8848485,136.28303 C50.0078788,137.207879 50.7345455,138.46303 51.0648485,139.916364 C49.6115152,139.916364 48.1581818,139.453939 46.9690909,138.595152 C45.8460606,137.670303 45.1193939,136.415152 44.7890909,134.961818 C46.2424242,134.961818 47.6957576,135.424242 48.8848485,136.28303 Z" id="Path" fill="#BAC6D8" fill-rule="nonzero"></path>
                <path d="M46.7709091,139.784242 C48.1581818,139.387879 49.6775758,139.387879 51.0648485,139.850303 C50.2721212,141.105455 49.1490909,142.030303 47.7618182,142.558788 C46.3745455,142.955152 44.8551515,142.955152 43.4678788,142.492727 C44.2606061,141.303636 45.449697,140.378788 46.7709091,139.784242 Z" id="Path" fill="#BAC6D8" fill-rule="nonzero"></path>
                <path d="M42.1466667,134.433333 C43.0715152,135.490303 43.6660606,136.877576 43.7981818,138.330909 C42.3448485,138.132727 41.0236364,137.472121 39.9666667,136.481212 C39.0418182,135.424242 38.4472727,134.03697 38.3151515,132.583636 C39.7024242,132.781818 41.089697,133.442424 42.1466667,134.433333 Z" id="Path" fill="#BAC6D8" fill-rule="nonzero"></path>
                <path d="M39.570303,137.670303 C41.0236364,137.472121 42.4769697,137.670303 43.7981818,138.330909 C42.8733333,139.453939 41.5521212,140.246667 40.1648485,140.57697 C38.7115152,140.775152 37.2581818,140.57697 35.9369697,139.916364 C36.8618182,138.793333 38.1169697,138.000606 39.570303,137.670303 Z" id="Path" fill="#BAC6D8" fill-rule="nonzero"></path>
                <path d="M36.7957576,131.790909 C37.5884848,133.046061 37.9187879,134.433333 37.7866667,135.886667 C36.3993939,135.490303 35.210303,134.631515 34.2854545,133.442424 C33.4927273,132.187273 33.1624242,130.8 33.2945455,129.346667 C34.6818182,129.809091 35.9369697,130.667879 36.7957576,131.790909 Z" id="Path" fill="#BAC6D8" fill-rule="nonzero"></path>
                <path d="M33.7569697,134.631515 C35.210303,134.631515 36.6636364,135.093939 37.8527273,135.952727 C36.729697,136.877576 35.3424242,137.472121 33.8890909,137.604242 C32.4357576,137.604242 30.9824242,137.141818 29.7933333,136.28303 C30.9163636,135.292121 32.3036364,134.697576 33.7569697,134.631515 Z" id="Path" fill="#BAC6D8" fill-rule="nonzero"></path>
                <path d="M31.8412121,127.827273 C32.3036364,129.214545 32.3036364,130.667879 31.8412121,132.055152 C30.5860606,131.328485 29.5951515,130.205455 29.0006061,128.818182 C28.5381818,127.430909 28.5381818,125.977576 29.0006061,124.590303 C30.2557576,125.31697 31.2466667,126.44 31.8412121,127.827273 Z" id="Path" fill="#BAC6D8" fill-rule="nonzero"></path>
                <path d="M28.2078788,129.809091 C29.5951515,130.139394 30.9163636,130.932121 31.8412121,132.055152 C30.52,132.715758 29.0666667,132.913939 27.6133333,132.715758 C26.2260606,132.385455 24.9048485,131.592727 23.98,130.469697 C25.3012121,129.809091 26.7545455,129.544848 28.2078788,129.809091 Z" id="Path" fill="#BAC6D8" fill-rule="nonzero"></path>
                <path d="M28.0757576,123.13697 C28.2078788,124.590303 27.8115152,126.043636 27.0848485,127.232727 C24.8387879,125.250909 24.4424242,121.881818 26.16,119.371515 C27.1509091,120.428485 27.8115152,121.749697 28.0757576,123.13697 Z" id="Path" fill="#BAC6D8" fill-rule="nonzero"></path>
                <path d="M24.0460606,124.26 C25.3672727,124.920606 26.4242424,125.977576 27.0848485,127.298788 C25.6315152,127.629091 24.1781818,127.49697 22.7909091,126.968485 C21.469697,126.307879 20.4787879,125.250909 19.8181818,123.929697 C21.2054545,123.599394 22.7248485,123.665455 24.0460606,124.26 Z" id="Path" fill="#BAC6D8" fill-rule="nonzero"></path>
                <path d="M24.9048485,117.323636 C24.7066667,118.77697 24.0460606,120.098182 23.0551515,121.155152 C21.2715152,118.710909 21.5357576,115.341818 23.7157576,113.293939 C24.5084848,114.48303 24.9048485,115.870303 24.9048485,117.323636 Z" id="Path" fill="#BAC6D8" fill-rule="nonzero"></path>
                <path d="M20.7430303,117.587879 C21.8660606,118.512727 22.6587879,119.767879 23.0551515,121.155152 C21.6018182,121.221212 20.1484848,120.824848 18.9593939,119.966061 C17.8363636,119.041212 17.0436364,117.786061 16.6472727,116.398788 C18.1006061,116.398788 19.4878788,116.795152 20.7430303,117.587879 Z" id="Path" fill="#BAC6D8" fill-rule="nonzero"></path>
                <path d="M23.2533333,111.774545 C22.8569697,113.161818 21.9981818,114.350909 20.8090909,115.275758 C20.2145455,113.954545 20.0163636,112.501212 20.2806061,111.047879 C20.6769697,109.660606 21.5357576,108.471515 22.7248485,107.546667 C23.3193939,108.867879 23.5175758,110.321212 23.2533333,111.774545 Z" id="Path" fill="#BAC6D8" fill-rule="nonzero"></path>
                <path d="M19.0915152,111.378182 C20.0824242,112.435152 20.6769697,113.822424 20.8090909,115.275758 C19.3557576,115.077576 18.0345455,114.48303 16.9115152,113.492121 C15.9206061,112.435152 15.3260606,111.047879 15.1939394,109.594545 C16.6472727,109.726667 18.0345455,110.387273 19.0915152,111.378182 Z" id="Path" fill="#BAC6D8" fill-rule="nonzero"></path>
                <path d="M23.0551515,105.564848 C22.3284848,106.82 21.1393939,107.810909 19.8181818,108.339394 C19.5539394,106.952121 19.7521212,105.432727 20.3466667,104.177576 C21.0733333,102.922424 22.1963636,101.931515 23.5836364,101.40303 C23.8478788,102.790303 23.649697,104.243636 23.0551515,105.564848 Z" id="Path" fill="#BAC6D8" fill-rule="nonzero"></path>
                <path d="M19.1575758,104.177576 C19.8181818,105.432727 20.0163636,106.886061 19.8181818,108.339394 C18.4969697,107.810909 17.3078788,106.886061 16.5151515,105.69697 C15.8545455,104.441818 15.590303,102.988485 15.7884848,101.535152 C17.1757576,102.063636 18.3648485,102.988485 19.1575758,104.177576 Z" id="Path" fill="#BAC6D8" fill-rule="nonzero"></path>
                <path d="M24.1781818,99.2890909 C23.1212121,100.346061 21.8,101.006667 20.4127273,101.270909 C20.4787879,99.8175758 21.0072727,98.430303 21.9321212,97.3072727 C22.9890909,96.250303 24.310303,95.589697 25.6975758,95.3254545 C25.6315152,96.7787879 25.1030303,98.1660606 24.1781818,99.2890909 Z" id="Path" fill="#BAC6D8" fill-rule="nonzero"></path>
                <path d="M20.6769697,97.0430303 C21.0072727,98.430303 20.9412121,99.8836364 20.3466667,101.270909 C19.1575758,100.478182 18.2327273,99.2890909 17.770303,97.9018182 C17.44,96.5145455 17.5060606,95.0612121 18.1006061,93.6739394 C19.289697,94.5327273 20.1484848,95.6557576 20.6769697,97.0430303 Z" id="Path" fill="#BAC6D8" fill-rule="nonzero"></path>
                <path d="M26.4242424,94.1363636 C25.1690909,94.9290909 23.7157576,95.2593939 22.2624242,95.1933333 C22.6587879,93.8060606 23.5175758,92.5509091 24.6406061,91.6921212 C25.8957576,90.8993939 27.3490909,90.5690909 28.8024242,90.6351515 C28.4060606,92.0224242 27.5472727,93.2775758 26.4242424,94.1363636 Z" id="Path" fill="#BAC6D8" fill-rule="nonzero"></path>
                <path d="M23.5175758,91.1636364 C23.5175758,92.6169697 23.1212121,94.0042424 22.2624242,95.1933333 C20.1484848,93.0793939 19.950303,89.710303 21.8,87.3321212 C22.7909091,88.3890909 23.3854545,89.710303 23.5175758,91.1636364 Z" id="Path" fill="#BAC6D8" fill-rule="nonzero"></path>
                <path d="M29.2648485,89.4460606 C27.9436364,90.0406061 26.4242424,90.1727273 24.9709091,89.8424242 C25.6315152,88.5212121 26.6224242,87.4642424 27.9436364,86.7375758 C29.2648485,86.1430303 30.7842424,86.0109091 32.2375758,86.3412121 C31.5769697,87.7284848 30.52,88.7854545 29.2648485,89.4460606 Z" id="Path" fill="#BAC6D8" fill-rule="nonzero"></path>
                <path d="M26.8866667,86.0769697 C26.6884848,87.530303 26.0278788,88.8515152 24.9709091,89.8424242 C23.1872727,87.3981818 23.5175758,84.0290909 25.7636364,81.9812121 C26.5563636,83.2363636 26.9527273,84.6236364 26.8866667,86.0769697 Z" id="Path" fill="#BAC6D8" fill-rule="nonzero"></path>
                <path d="M60.9078788,136.018788 C59.7848485,136.943636 59.0581818,138.264848 58.7278788,139.652121 C60.1812121,139.652121 61.6345455,139.189697 62.8236364,138.330909 C63.9466667,137.406061 64.6733333,136.084848 65.0036364,134.697576 C63.4842424,134.697576 62.0969697,135.16 60.9078788,136.018788 Z" id="Path" fill="#BAC6D8" fill-rule="nonzero"></path>
                <path d="M63.0218182,139.52 C61.6345455,139.123636 60.1151515,139.123636 58.7278788,139.586061 C59.5206061,140.841212 60.6436364,141.766061 62.0309091,142.294545 C63.4181818,142.690909 64.9375758,142.690909 66.3248485,142.228485 C65.5321212,141.039394 64.3430303,140.048485 63.0218182,139.52 Z" id="Path" fill="#BAC6D8" fill-rule="nonzero"></path>
                <path d="M66.7872727,134.433333 C65.8624242,135.490303 65.2678788,136.877576 65.1357576,138.330909 C66.5890909,138.132727 67.910303,137.472121 68.9672727,136.481212 C69.8921212,135.424242 70.4866667,134.03697 70.6187879,132.583636 C69.2315152,132.781818 67.8442424,133.442424 66.7872727,134.433333 Z" id="Path" fill="#BAC6D8" fill-rule="nonzero"></path>
                <path d="M69.3636364,137.670303 C67.910303,137.472121 66.4569697,137.670303 65.1357576,138.330909 C66.0606061,139.453939 67.3818182,140.246667 68.7690909,140.57697 C70.2224242,140.775152 71.6757576,140.57697 72.9969697,139.916364 C72.0721212,138.793333 70.7509091,138.000606 69.3636364,137.670303 Z" id="Path" fill="#BAC6D8" fill-rule="nonzero"></path>
                <path d="M72.1381818,131.592727 C71.3454545,132.847879 71.0151515,134.235152 71.1472727,135.688485 C72.5345455,135.292121 73.789697,134.433333 74.6484848,133.244242 C75.4412121,132.055152 75.7715152,130.601818 75.6393939,129.148485 C74.2521212,129.610909 72.9969697,130.469697 72.1381818,131.592727 Z" id="Path" fill="#BAC6D8" fill-rule="nonzero"></path>
                <path d="M75.1769697,134.367273 C73.7236364,134.367273 72.270303,134.829697 71.0812121,135.688485 C73.3272727,137.736364 76.6963636,137.934545 79.0745455,136.018788 C78.0175758,135.093939 76.630303,134.499394 75.1769697,134.367273 Z" id="Path" fill="#BAC6D8" fill-rule="nonzero"></path>
                <path d="M76.8945455,127.695152 C76.4321212,129.082424 76.4321212,130.535758 76.8945455,131.92303 C78.149697,131.196364 79.1406061,130.073333 79.6690909,128.752121 C80.1315152,127.364848 80.1315152,125.911515 79.6690909,124.524242 C78.48,125.250909 77.4890909,126.373939 76.8945455,127.695152 Z" id="Path" fill="#BAC6D8" fill-rule="nonzero"></path>
                <path d="M80.5939394,129.67697 C79.2066667,130.007273 77.8854545,130.8 76.9606061,131.92303 C78.2818182,132.583636 79.7351515,132.781818 81.1884848,132.583636 C82.5757576,132.253333 83.8969697,131.460606 84.8218182,130.337576 C83.5006061,129.67697 82.0472727,129.478788 80.5939394,129.67697 Z" id="Path" fill="#BAC6D8" fill-rule="nonzero"></path>
                <path d="M80.8581818,122.740606 C80.7921212,124.193939 81.1224242,125.581212 81.9151515,126.836364 C84.1612121,124.854545 84.5575758,121.485455 82.84,118.975152 C81.7830303,120.032121 81.1224242,121.287273 80.8581818,122.740606 Z" id="Path" fill="#BAC6D8" fill-rule="nonzero"></path>
                <path d="M84.8878788,123.797576 C83.6327273,124.458182 82.5757576,125.515152 81.9151515,126.836364 C83.3684848,127.166667 84.8218182,127.034545 86.2090909,126.506061 C87.4642424,125.845455 88.5212121,124.788485 89.1818182,123.467273 C87.7284848,123.13697 86.2751515,123.269091 84.8878788,123.797576 Z" id="Path" fill="#BAC6D8" fill-rule="nonzero"></path>
                <path d="M83.6987879,117.191515 C83.8969697,118.644848 84.5575758,119.966061 85.5484848,121.02303 C87.3321212,118.578788 87.0678788,115.209697 84.8878788,113.161818 C84.0951515,114.350909 83.6987879,115.804242 83.6987879,117.191515 Z" id="Path" fill="#BAC6D8" fill-rule="nonzero"></path>
                <path d="M87.8606061,117.455758 C86.7375758,118.380606 85.9448485,119.635758 85.5484848,121.02303 C87.0018182,121.089091 88.4551515,120.626667 89.6442424,119.833939 C90.7672727,118.909091 91.56,117.653939 91.9563636,116.266667 C90.5030303,116.266667 89.049697,116.66303 87.8606061,117.455758 Z" id="Path" fill="#BAC6D8" fill-rule="nonzero"></path>
                <path d="M85.350303,111.642424 C85.7466667,113.029697 86.6054545,114.218788 87.7945455,115.143636 C88.3890909,113.822424 88.5872727,112.369091 88.3230303,110.981818 C87.9266667,109.594545 87.0678788,108.405455 85.8787879,107.480606 C85.2842424,108.735758 85.0860606,110.255152 85.350303,111.642424 Z" id="Path" fill="#BAC6D8" fill-rule="nonzero"></path>
                <path d="M89.5121212,111.246061 C88.5212121,112.30303 87.9266667,113.690303 87.7945455,115.143636 C89.2478788,114.945455 90.5690909,114.350909 91.6921212,113.36 C92.6830303,112.30303 93.2775758,110.915758 93.409697,109.462424 C91.9563636,109.660606 90.5690909,110.255152 89.5121212,111.246061 Z" id="Path" fill="#BAC6D8" fill-rule="nonzero"></path>
                <path d="M85.5484848,105.630909 C86.2751515,106.886061 87.3981818,107.87697 88.7854545,108.405455 C89.049697,107.018182 88.8515152,105.498788 88.2569697,104.243636 C87.530303,102.988485 86.4072727,101.997576 85.02,101.469091 C84.689697,102.856364 84.8878788,104.309697 85.5484848,105.630909 Z" id="Path" fill="#BAC6D8" fill-rule="nonzero"></path>
                <path d="M89.4460606,104.243636 C88.7854545,105.498788 88.5212121,106.952121 88.7193939,108.405455 C90.0406061,107.87697 91.229697,106.952121 92.0224242,105.76303 C92.6830303,104.507879 92.9472727,103.054545 92.7490909,101.601212 C91.4278788,102.129697 90.2387879,103.054545 89.4460606,104.243636 Z" id="Path" fill="#BAC6D8" fill-rule="nonzero"></path>
                <path d="M84.3593939,99.3551515 C85.4163636,100.412121 86.7375758,101.072727 88.1248485,101.33697 C88.0587879,99.8836364 87.530303,98.4963636 86.6054545,97.3733333 C85.5484848,96.3163636 84.2272727,95.6557576 82.84,95.3915152 C82.9060606,96.8448485 83.4345455,98.2321212 84.3593939,99.3551515 Z" id="Path" fill="#BAC6D8" fill-rule="nonzero"></path>
                <path d="M87.8606061,97.1090909 C87.530303,98.4963636 87.5963636,100.015758 88.1909091,101.33697 C89.38,100.544242 90.3048485,99.3551515 90.7672727,97.9678788 C91.0975758,96.5806061 91.0315152,95.1272727 90.4369697,93.74 C89.2478788,94.5987879 88.3230303,95.7218182 87.8606061,97.1090909 Z" id="Path" fill="#BAC6D8" fill-rule="nonzero"></path>
                <path d="M82.1793939,94.3345455 C83.4345455,95.1272727 84.8878788,95.4575758 86.3412121,95.3915152 C85.9448485,94.0042424 85.0860606,92.7490909 83.9630303,91.890303 C82.7078788,91.0975758 81.2545455,90.7672727 79.8012121,90.8333333 C80.1975758,92.2206061 80.990303,93.409697 82.1793939,94.3345455 Z" id="Path" fill="#BAC6D8" fill-rule="nonzero"></path>
                <path d="M85.02,91.3618182 C85.02,92.8151515 85.4163636,94.2024242 86.2751515,95.3915152 C88.3890909,93.2775758 88.5872727,89.9084848 86.7375758,87.530303 C85.8127273,88.5872727 85.2181818,89.9084848 85.02,91.3618182 Z" id="Path" fill="#BAC6D8" fill-rule="nonzero"></path>
                <path d="M79.1406061,89.6442424 C80.4618182,90.2387879 81.9812121,90.3709091 83.4345455,90.0406061 C82.7739394,88.7193939 81.7830303,87.6624242 80.5278788,86.9357576 C79.2066667,86.3412121 77.6872727,86.2090909 76.2339394,86.5393939 C76.8284848,87.9266667 77.8854545,88.9836364 79.1406061,89.6442424 Z" id="Path" fill="#BAC6D8" fill-rule="nonzero"></path>
                <path d="M81.5187879,86.2751515 C81.7169697,87.7284848 82.3775758,89.049697 83.4345455,90.0406061 C85.2181818,87.5963636 84.8878788,84.2272727 82.6418182,82.1793939 C81.8490909,83.4345455 81.4527273,84.8878788 81.5187879,86.2751515 Z" id="Path" fill="#BAC6D8" fill-rule="nonzero"></path>
                <path d="M77.5551515,83.0381818 C77.4890909,83.1042424 77.3569697,83.2363636 77.2248485,83.3024242 L77.0927273,83.3684848 C84.2272727,89.3139394 88.3890909,98.1 88.3890909,107.348485 C88.3890909,125.184848 73.0630303,139.652121 54.169697,139.652121 C35.2763636,139.652121 19.950303,125.184848 19.950303,107.348485 C20.0163636,98.4963636 23.7818182,90.0406061 30.3878788,84.1612121 C30.189697,84.0951515 29.9915152,84.0290909 29.8593939,83.9630303 C23.2533333,89.9745455 19.4878788,98.430303 19.4218182,107.348485 C19.4218182,125.449091 35.0121212,140.180606 54.169697,140.180606 C73.3272727,140.180606 88.9175758,125.449091 88.9175758,107.348485 C88.9836364,97.9678788 84.7557576,89.049697 77.5551515,83.0381818 Z" id="Path" fill="#BAC6D8" fill-rule="nonzero"></path>
                <path d="M33.8890909,85.350303 C32.4357576,85.6145455 30.9824242,85.350303 29.6612121,84.7557576 C30.5860606,83.6327273 31.8412121,82.84 33.2945455,82.4436364 C34.7478788,82.1793939 36.2012121,82.4436364 37.5224242,83.0381818 C36.5315152,84.1612121 35.2763636,84.9539394 33.8890909,85.350303 Z" id="Path" fill="#BAC6D8" fill-rule="nonzero"></path>
                <path d="M32.369697,81.5187879 C31.7751515,82.84 30.850303,83.9630303 29.5951515,84.7557576 C29.1327273,83.3684848 29.1327273,81.9151515 29.5290909,80.5278788 C30.1236364,79.2066667 31.1145455,78.0836364 32.369697,77.2909091 C32.8321212,78.6781818 32.8321212,80.1315152 32.369697,81.5187879 Z" id="Path" fill="#BAC6D8" fill-rule="nonzero"></path>
                <path d="M74.7806061,85.350303 C76.2339394,85.6145455 77.6872727,85.350303 79.0084848,84.7557576 C78.0836364,83.6327273 76.8284848,82.84 75.3751515,82.4436364 C73.9218182,82.1793939 72.4684848,82.4436364 71.1472727,83.0381818 C72.1381818,84.1612121 73.3933333,84.9539394 74.7806061,85.350303 Z" id="Path" fill="#BAC6D8" fill-rule="nonzero"></path>
                <path d="M76.2339394,81.5187879 C76.8284848,82.84 77.7533333,83.9630303 79.0084848,84.7557576 C79.4709091,83.3684848 79.4709091,81.9151515 79.0745455,80.5278788 C78.48,79.2066667 77.5551515,78.0836364 76.3,77.2909091 C75.8375758,78.6781818 75.8375758,80.1315152 76.2339394,81.5187879 Z" id="Path" fill="#BAC6D8" fill-rule="nonzero"></path>
                <polygon id="Path" fill="#002A54" fill-rule="nonzero" points="91.890303 0 73.8557576 44.0624242 36.5315152 44.0624242 53.1127273 0"></polygon>
                <path d="M61.9648485,117.323636 L46.5727273,117.323636 L46.5727273,115.672121 L61.9648485,115.672121 L61.9648485,117.323636 Z M58.3975758,113.558182 L50.2060606,113.558182 L51.7915152,110.189091 L56.8121212,110.189091 L58.3975758,113.558182 Z M50.2721212,103.649091 L58.2654545,103.649091 L58.7278788,108.141212 L49.8757576,108.141212 L50.2721212,103.649091 Z M50.7345455,98.6945455 L57.8030303,98.6945455 L58.0672727,101.535152 L50.470303,101.535152 L50.7345455,98.6945455 Z M51.1969697,94.4006061 L57.4727273,94.4006061 L57.6709091,96.6466667 L50.9327273,96.6466667 L51.1969697,94.4006061 Z M48.7527273,96.6466667 L41.8824242,96.6466667 L42.5430303,94.4006061 L49.0169697,94.4006061 L48.7527273,96.6466667 Z M48.290303,101.601212 L40.4290909,101.601212 L41.2878788,98.7606061 L48.6206061,98.7606061 L48.290303,101.601212 Z M47.629697,108.207273 L38.5133333,108.207273 L39.8345455,103.715152 L48.0921212,103.715152 L47.629697,108.207273 Z M66.0606061,94.3345455 L66.7212121,96.5806061 L59.8509091,96.5806061 L59.6527273,94.3345455 L66.0606061,94.3345455 Z M68.1745455,101.535152 L60.3133333,101.535152 L60.0490909,98.6945455 L67.3818182,98.6945455 L68.1745455,101.535152 Z M70.090303,108.141212 L60.9078788,108.141212 L60.4454545,103.649091 L68.7690909,103.649091 L70.090303,108.141212 Z M59.190303,110.255152 L72.9969697,110.255152 L67.7781818,92.2866667 L40.8915152,92.2866667 L35.6727273,110.255152 L49.4793939,110.255152 L47.8939394,113.624242 L44.5248485,113.624242 L44.5248485,119.503636 L64.2769697,119.503636 L64.2769697,113.624242 L60.7757576,113.624242 L59.190303,110.255152 Z" id="Shape" fill="#BAC6D8"></path>
            </g>
        </g>
    </g>
</svg>