<svg xmlns="http://www.w3.org/2000/svg" xmlns:xlink="http://www.w3.org/1999/xlink" width="246" height="199" viewBox="0 0 246 199">
    <defs>
        <path id="prefix__a" d="M15 6c1.66 0 2.99-1.34 2.99-3S16.66 0 15 0c-1.66 0-3 1.34-3 3s1.34 3 3 3zM7 6c1.66 0 2.99-1.34 2.99-3S8.66 0 7 0C5.34 0 4 1.34 4 3s1.34 3 3 3zm0 2c-2.33 0-7 1.17-7 3.5V14h14v-2.5C14 9.17 9.33 8 7 8zm8 0c-.29 0-.62.02-.97.05 1.16.84 1.97 1.97 1.97 3.45V14h6v-2.5C22 9.17 17.33 8 15 8z"/>
        <path id="prefix__c" d="M15 6c1.66 0 2.99-1.34 2.99-3S16.66 0 15 0c-1.66 0-3 1.34-3 3s1.34 3 3 3zM7 6c1.66 0 2.99-1.34 2.99-3S8.66 0 7 0C5.34 0 4 1.34 4 3s1.34 3 3 3zm0 2c-2.33 0-7 1.17-7 3.5V14h14v-2.5C14 9.17 9.33 8 7 8zm8 0c-.29 0-.62.02-.97.05 1.16.84 1.97 1.97 1.97 3.45V14h6v-2.5C22 9.17 17.33 8 15 8z"/>
    </defs>
    <g fill="none" fill-rule="evenodd">
        <path fill="#F1F3F5" d="M0 0H246V199H0z"/>
        <g>
            <path fill="#DB4196" d="M3 21H191V28H3z" opacity=".174" transform="translate(24 37)"/>
            <path fill="#DB4196" d="M134 21H191V28H134z" transform="translate(24 37)"/>
            <path fill="#DB4196" d="M69 21H134V28H69z" opacity=".501" transform="translate(24 37)"/>
            <g fill-rule="nonzero">
                <path fill="#F9EF63" d="M6.135.997L.112 18.017c-.445 1.259.49 2.58 1.827 2.58h7.065l-2.278 10.84c-.283 1.347 1.456 2.143 2.293 1.05L19.823 18.38c.975-1.274.066-3.11-1.539-3.11h-5.661l8.146-12.98C21.394 1.292 20.677 0 19.501 0H7.546c-.634 0-1.2.4-1.41.997z" transform="translate(24 37) rotate(10 77.57 914.76)"/>
                <g fill="#F1D333">
                    <path d="M9.117 32.62c-.888.89-2.5.105-2.225-1.182l2.327-10.842h.686c.61 0 1.064.548.94 1.131l-2.085 9.71c-.105.488.062.904.357 1.183zM11.958 0c-.648 0-1.226.4-1.442.997l-6.153 17.02c-.455 1.258.5 2.58 1.867 2.58H2.003c-1.366 0-2.322-1.322-1.867-2.58L6.29.997C6.505.399 7.082 0 7.73 0h4.228z" transform="translate(24 37) rotate(10 77.57 914.76)"/>
                </g>
            </g>
            <g transform="translate(24 37) translate(86 50)">
                <mask id="prefix__b" fill="#fff">
                    <use xlink:href="#prefix__a"/>
                </mask>
                <g fill="#000" mask="url(#prefix__b)">
                    <path d="M0 0H50V50H0z" transform="translate(-14 -18)"/>
                </g>
            </g>
            <g transform="translate(24 37) translate(155 50)">
                <mask id="prefix__d" fill="#fff">
                    <use xlink:href="#prefix__c"/>
                </mask>
                <g fill="#000" mask="url(#prefix__d)">
                    <path d="M0 0H50V50H0z" transform="translate(-14 -18)"/>
                </g>
            </g>
            <g transform="translate(24 37) translate(0 77)">
                <ellipse cx="29.5" cy="45.5" fill="#D8D8D8" rx="14.5" ry="2.5"/>
                <path fill="#002A54" d="M58 35.962L0 35.962 4.188 0.066 53.812 0.066z"/>
                <path fill="#FFF" opacity=".2" style="mix-blend-mode:screen" d="M2.836 33.379L6.435 2.648 51.565 2.648 55.164 33.379z"/>
                <path fill="#033259" d="M28.613 2.648H29.613V33.379000000000005H28.613z" opacity=".64"/>
                <path fill="#033259" d="M36.725 2.664L37.563 2.664 37.562 33.528 36.724 33.528z" opacity=".64" transform="rotate(-2.23 37.144 18.096)"/>
                <path fill="#033259" d="M44.858 2.625L45.696 2.625 45.693 33.558 44.855 33.558z" opacity=".64" transform="rotate(-4.46 45.275 18.092)"/>
                <path fill="#033259" d="M5.46 17.675L36.325 17.673 36.325 18.511 5.46 18.513z" opacity=".64" transform="rotate(-87.76 20.893 18.093)"/>
                <path fill="#033259" d="M-2.712 17.668L28.221 17.665 28.221 18.503 -2.712 18.506z" opacity=".64" transform="rotate(-85.52 12.755 18.086)"/>
                <path fill="#033259" d="M5.671 8.33H52.329V9.33H5.671zM5.156 14.528H53.103V15.528H5.156zM4.382 20.725H53.875V21.725H4.382zM3.609 26.923H54.649V27.923H3.609z" opacity=".64"/>
                <path fill="#414042" d="M24.489 35.703H33.511V43.192H24.489z"/>
                <path fill="#505050" d="M21.911 41.385H36.089V45H21.911z"/>
                <path fill="#FFF" opacity=".1" style="mix-blend-mode:screen" d="M58 35.967L53.793 0.066 28.871 0.066 28.871 45 36.023 45 36.023 41.358 33.43 41.358 33.43 35.967z"/>
            </g>
            <g transform="translate(24 37) translate(69)">
                <ellipse cx="28.5" cy="122.5" fill="#D8D8D8" rx="14.5" ry="2.5"/>
                <g>
                    <path fill="#002A54" d="M57 35.962L0 35.962 4.116 0.066 52.884 0.066z" transform="translate(0 77)"/>
                    <path fill="#FFF" opacity=".2" style="mix-blend-mode:screen" d="M2.787 33.379L6.324 2.648 50.676 2.648 54.213 33.379z" transform="translate(0 77)"/>
                    <path fill="#033259" d="M28.12 2.648H29.12V33.379000000000005H28.12z" opacity=".64" transform="translate(0 77)"/>
                    <path fill="#033259" d="M36.102 2.664L36.926 2.664 36.904 33.528 36.08 33.528z" opacity=".64" transform="translate(0 77) rotate(-2.23 36.503 18.096)"/>
                    <path fill="#033259" d="M44.105 2.627L44.929 2.626 44.884 33.556 44.061 33.557z" opacity=".64" transform="translate(0 77) rotate(-4.46 44.495 18.092)"/>
                    <path fill="#033259" d="M5.101 17.692L35.965 17.67 35.964 18.493 5.1 18.516z" opacity=".64" transform="translate(0 77) rotate(-87.76 20.532 18.093)"/>
                    <path fill="#033259" d="M-2.93 17.696L28 17.652 27.999 18.475 -2.931 18.52z" opacity=".64" transform="translate(0 77) rotate(-85.52 12.535 18.086)"/>
                    <path fill="#033259" d="M5.573 8.33H51.426V9.33H5.573zM5.067 14.528H52.187V15.528H5.067zM4.307 20.725H52.947V21.725H4.307zM3.547 26.923H53.706999999999994V27.923H3.547z" opacity=".64" transform="translate(0 77)"/>
                    <path fill="#414042" d="M24.067 35.703H32.934V43.192H24.067z" transform="translate(0 77)"/>
                    <path fill="#505050" d="M21.533 41.385H35.466V45H21.533z" transform="translate(0 77)"/>
                    <path fill="#FFF" opacity=".1" style="mix-blend-mode:screen" d="M57 35.967L52.865 0.066 28.373 0.066 28.373 45 35.402 45 35.402 41.358 32.854 41.358 32.854 35.967z" transform="translate(0 77)"/>
                </g>
                <g fill-rule="nonzero">
                    <path fill="#F9EF63" d="M6.135.997L.112 18.017c-.445 1.259.49 2.58 1.827 2.58h7.065l-2.278 10.84c-.283 1.347 1.456 2.143 2.293 1.05L19.823 18.38c.975-1.274.066-3.11-1.539-3.11h-5.661l8.146-12.98C21.394 1.292 20.677 0 19.501 0H7.546c-.634 0-1.2.4-1.41.997z" transform="scale(-1 1) rotate(-10 1.93 246.101)"/>
                    <g fill="#F1D333">
                        <path d="M9.117 32.62c-.888.89-2.5.105-2.225-1.182l2.327-10.842h.686c.61 0 1.064.548.94 1.131l-2.085 9.71c-.105.488.062.904.357 1.183zM11.958 0c-.648 0-1.226.4-1.442.997l-6.153 17.02c-.455 1.258.5 2.58 1.867 2.58H2.003c-1.366 0-2.322-1.322-1.867-2.58L6.29.997C6.505.399 7.082 0 7.73 0h4.228z" transform="scale(-1 1) rotate(-10 1.93 246.101)"/>
                    </g>
                </g>
            </g>
            <g transform="translate(24 37) translate(137 77)">
                <ellipse cx="29.5" cy="45.5" fill="#D8D8D8" rx="14.5" ry="2.5"/>
                <path fill="#002A54" d="M58 35.962L0 35.962 4.188 0.066 53.812 0.066z"/>
                <path fill="#FFF" opacity=".2" style="mix-blend-mode:screen" d="M2.836 33.379L6.435 2.648 51.565 2.648 55.164 33.379z"/>
                <path fill="#033259" d="M28.613 2.648H29.613V33.379000000000005H28.613z" opacity=".64"/>
                <path fill="#033259" d="M36.725 2.664L37.563 2.664 37.562 33.528 36.724 33.528z" opacity=".64" transform="rotate(-2.23 37.144 18.096)"/>
                <path fill="#033259" d="M44.858 2.625L45.696 2.625 45.693 33.558 44.855 33.558z" opacity=".64" transform="rotate(-4.46 45.275 18.092)"/>
                <path fill="#033259" d="M5.46 17.675L36.325 17.673 36.325 18.511 5.46 18.513z" opacity=".64" transform="rotate(-87.76 20.893 18.093)"/>
                <path fill="#033259" d="M-2.712 17.668L28.221 17.665 28.221 18.503 -2.712 18.506z" opacity=".64" transform="rotate(-85.52 12.755 18.086)"/>
                <path fill="#033259" d="M5.671 8.33H52.329V9.33H5.671zM5.156 14.528H53.103V15.528H5.156zM4.382 20.725H53.875V21.725H4.382zM3.609 26.923H54.649V27.923H3.609z" opacity=".64"/>
                <path fill="#414042" d="M24.489 35.703H33.511V43.192H24.489z"/>
                <path fill="#505050" d="M21.911 41.385H36.089V45H21.911z"/>
                <path fill="#FFF" opacity=".1" style="mix-blend-mode:screen" d="M58 35.967L53.793 0.066 28.871 0.066 28.871 45 36.023 45 36.023 41.358 33.43 41.358 33.43 35.967z"/>
            </g>
        </g>
    </g>
</svg>
