<svg xmlns="http://www.w3.org/2000/svg" width="246" height="199" viewBox="0 0 246 199">
    <g fill="none" fill-rule="evenodd">
        <path fill="#F1F3F5" d="M0 0H246V199H0z"/>
        <g transform="translate(50 19)">
            <circle cx="69.5" cy="81.5" r="69.5" fill="#DB4196"/>
            <g transform="translate(22.825 78.486)">
                <ellipse cx="47.81" cy="73.938" fill="#D8D8D8" rx="23.5" ry="4.063"/>
                <path fill="#002A54" d="M94 58.438L0 58.438 6.787 0.107 87.213 0.107z"/>
                <path fill="#FFF" opacity=".2" style="mix-blend-mode:screen" d="M4.596 54.241L10.43 4.304 83.57 4.304 89.404 54.241z"/>
                <path fill="#033259" d="M46.373 4.304H47.626V54.241H46.373z" opacity=".64"/>
                <path fill="#033259" d="M59.523 4.329L60.881 4.328 60.873 54.484 59.515 54.484z" opacity=".64" transform="rotate(-2.23 60.198 29.406)"/>
                <path fill="#033259" d="M72.706 4.266L74.064 4.266 74.049 54.532 72.69 54.532z" opacity=".64" transform="rotate(-4.46 73.377 29.399)"/>
                <path fill="#033259" d="M8.783 28.726L58.938 28.718 58.938 30.076 8.783 30.084z" opacity=".64" transform="rotate(-87.76 33.86 29.4)"/>
                <path fill="#033259" d="M-4.462 28.718L45.804 28.703 45.804 30.061 -4.462 30.076z" opacity=".64" transform="rotate(-85.52 20.671 29.39)"/>
                <path fill="#033259" d="M9.191 13.536H84.809V14.795H9.191zM8.356 23.607H86.06299999999999V24.866H8.356zM7.102 33.679H87.315V34.938H7.102zM5.849 43.75H88.569V45.009H5.849z" opacity=".64"/>
                <path fill="#414042" d="M39.689 58.018H54.311V70.188H39.689z"/>
                <path fill="#505050" d="M35.511 67.25H58.489000000000004V73.125H35.511z"/>
                <path fill="#FFF" opacity=".1" style="mix-blend-mode:screen" d="M94 58.447L87.181 0.107 46.791 0.107 46.791 73.125 58.383 73.125 58.383 67.207 54.18 67.207 54.18 58.447z"/>
            </g>
            <g fill-rule="nonzero">
                <path fill="#FFC380" d="M40.243 34.238L25.43 38.182c-.772.206-1.589-.133-1.994-.828-.406-.694-.3-1.572.258-2.144 5.421-5.552 7.568-10.917 6.563-16.4-.348-1.903.901-3.83 2.781-4.304 1.92-.478 3.918-.185 5.628.826 1.711 1.012 2.94 2.628 3.46 4.55v.001l.155.578c1.267 4.697.69 8.06-.816 12.624-.187.567-.646 1-1.22 1.153z" transform="translate(71 34)"/>
                <path fill="#FFCF99" d="M58.308 30.172c-.796-2.953-3.876-4.708-6.866-3.912l-27.89 7.425c-.31.083-.591.246-.816.473-1.65 1.664-3.372 3.131-4.757 4.31-.482.412-.939.8-1.351 1.162-.508.446-.719 1.136-.544 1.784l5.9 21.877c.174.647.704 1.14 1.368 1.274 7.924 1.59 13.849.46 20.627-1.343 1.05-.28 2.12-.576 3.221-.88 1.218-.336 2.477-.684 3.8-1.037l5.471-1.456c2.99-.796 4.775-3.846 3.978-6.8-.267-.992-.793-1.85-1.487-2.52 1.304-1.357 1.888-3.33 1.367-5.263-.268-.993-.794-1.85-1.488-2.52 1.304-1.358 1.888-3.332 1.367-5.264-.374-1.389-1.254-2.513-2.392-3.23.69-1.255.865-2.698.492-4.08z" transform="translate(71 34)"/>
                <g fill="#29CCB1">
                    <path d="M32.147 15.987h-3.785c-.98 0-1.774-.762-1.774-1.703 0-.94.794-1.702 1.774-1.702h3.785c.98 0 1.774.762 1.774 1.702s-.794 1.703-1.774 1.703zM5.653 15.987H1.868c-.98 0-1.774-.762-1.774-1.703 0-.94.794-1.702 1.774-1.702h3.785c.98 0 1.774.762 1.774 1.702s-.794 1.703-1.774 1.703zM11.332 6.551c-.613 0-1.21-.305-1.538-.851L7.902 2.554C7.412 1.74 7.702.7 8.55.23c.848-.47 1.934-.192 2.423.623l1.893 3.145c.49.814.199 1.856-.65 2.326-.279.154-.584.228-.885.228zM22.683 6.551c-.301 0-.606-.074-.885-.228-.849-.47-1.14-1.512-.65-2.326L23.041.852c.49-.815 1.575-1.094 2.423-.623.849.47 1.14 1.51.65 2.325L24.22 5.7c-.328.546-.925.851-1.538.851z" transform="translate(71 34) rotate(-15 42.606 -55.312)"/>
                </g>
                <path fill="#73C3FF" d="M17.846 60.381l2.465 9.141-3.127.833-2.465-9.141c-.259-.958.232-1.923 1.095-2.152.864-.23 1.774.36 2.032 1.319z" transform="translate(71 34)"/>
                <g fill="#FFC726">
                    <path d="M32.147 15.987h-3.785c-.98 0-1.774-.762-1.774-1.703 0-.94.794-1.702 1.774-1.702h3.785c.98 0 1.774.762 1.774 1.702s-.794 1.703-1.774 1.703zM5.653 15.987H1.868c-.98 0-1.774-.762-1.774-1.703 0-.94.794-1.702 1.774-1.702h3.785c.98 0 1.774.762 1.774 1.702s-.794 1.703-1.774 1.703zM11.332 6.551c-.613 0-1.21-.305-1.538-.851L7.902 2.554C7.412 1.74 7.702.7 8.55.23c.848-.47 1.934-.192 2.423.623l1.893 3.145c.49.814.199 1.856-.65 2.326-.279.154-.584.228-.885.228zM22.683 6.551c-.301 0-.606-.074-.885-.228-.849-.47-1.14-1.512-.65-2.326L23.041.852c.49-.815 1.575-1.094 2.423-.623.849.47 1.14 1.51.65 2.325L24.22 5.7c-.328.546-.925.851-1.538.851z" transform="translate(71 34) rotate(-15 42.606 -55.312)"/>
                </g>
                <path fill="#73C3FF" d="M17.846 60.381l2.465 9.141-3.127.833-2.465-9.141c-.259-.958.232-1.923 1.095-2.152.864-.23 1.774.36 2.032 1.319z" transform="translate(71 34)"/>
                <path fill="#002A54" d="M17.55 35.283L2.345 39.331c-.983.262-1.575 1.24-1.32 2.185l7.871 29.189c.255.945 1.26 1.498 2.249 1.258l11.402-3.036c2.179-.603 3.747-2.317 4.189-4.32.182-.82.174-1.688-.057-2.547l-6.888-25.54c-.254-.945-1.26-1.498-2.243-1.237z" transform="translate(71 34)"/>
                <path fill="#73C3FF" d="M17.841 60.363l2.47 9.16-3.127.832-2.47-9.16c-.256-.948.237-1.904 1.1-2.133.864-.23 1.772.353 2.027 1.3z" transform="translate(71 34)"/>
            </g>
            <g fill-rule="nonzero">
                <path fill="#FFC380" d="M45.744 34.298l-14.64-3.991c-.763-.208-1.293-.916-1.295-1.728-.002-.813.526-1.529 1.288-1.75 7.4-2.14 11.905-5.762 13.772-11.072.649-1.843 2.676-2.904 4.52-2.374 1.881.546 3.445 1.807 4.406 3.553.962 1.747 1.21 3.78.698 5.727l-.155.586c-1.251 4.753-3.417 7.41-6.976 10.652-.442.403-1.05.552-1.618.397z" transform="translate(14)"/>
                <path fill="#FFCF99" d="M63.227 39.816c.787-2.988-.977-6.074-3.932-6.88l-27.56-7.514c-.307-.083-.63-.082-.934.004-2.24.63-4.444 1.05-6.215 1.387-.618.117-1.202.229-1.735.338-.656.135-1.18.634-1.352 1.29l-5.83 22.138c-.173.655.035 1.354.537 1.805 5.99 5.377 11.623 7.366 18.322 9.192 1.037.283 2.1.562 3.194.849 1.21.317 2.46.645 3.768 1.002l5.406 1.474c2.955.805 5.999-.97 6.786-3.959.265-1.004.241-2.02-.02-2.957 1.791-.533 3.273-1.97 3.788-3.925.264-1.005.24-2.02-.02-2.957 1.79-.533 3.272-1.97 3.787-3.925.37-1.406.176-2.833-.44-4.034 1.214-.752 2.081-1.928 2.45-3.328z" transform="translate(14)"/>
                <g fill="#29CCB1">
                    <path d="M31.769 16.178h-3.74c-.969 0-1.754-.772-1.754-1.723 0-.951.785-1.723 1.753-1.723h3.74c.969 0 1.754.772 1.754 1.723 0 .951-.785 1.723-1.753 1.723zM5.586 16.178h-3.74c-.968 0-1.753-.772-1.753-1.723 0-.951.785-1.723 1.753-1.723h3.74c.969 0 1.754.772 1.754 1.723 0 .951-.785 1.723-1.754 1.723zM11.199 6.63c-.606 0-1.196-.31-1.52-.862l-1.87-3.183C7.324 1.76 7.612.707 8.45.23c.839-.476 1.911-.193 2.395.63l1.87 3.184c.485.824.197 1.877-.641 2.353-.276.157-.578.231-.875.231zM22.416 6.63c-.297 0-.599-.075-.875-.232-.838-.476-1.126-1.53-.641-2.353L22.77.862c.484-.824 1.556-1.107 2.395-.63.838.475 1.125 1.529.641 2.353l-1.87 3.183c-.324.552-.914.861-1.52.861z" transform="translate(14) rotate(15 18.488 141.741)"/>
                </g>
                <path fill="#73C3FF" d="M13.575 45.949l-2.436 9.25-3.091-.842 2.436-9.25c.255-.97 1.155-1.568 2.008-1.336.853.233 1.338 1.208 1.083 2.178z" transform="translate(14)"/>
                <g fill="#FFC726">
                    <path d="M31.769 16.178h-3.74c-.969 0-1.754-.772-1.754-1.723 0-.951.785-1.723 1.753-1.723h3.74c.969 0 1.754.772 1.754 1.723 0 .951-.785 1.723-1.753 1.723zM5.586 16.178h-3.74c-.968 0-1.753-.772-1.753-1.723 0-.951.785-1.723 1.753-1.723h3.74c.969 0 1.754.772 1.754 1.723 0 .951-.785 1.723-1.754 1.723zM11.199 6.63c-.606 0-1.196-.31-1.52-.862l-1.87-3.183C7.324 1.76 7.612.707 8.45.23c.839-.476 1.911-.193 2.395.63l1.87 3.184c.485.824.197 1.877-.641 2.353-.276.157-.578.231-.875.231zM22.416 6.63c-.297 0-.599-.075-.875-.232-.838-.476-1.126-1.53-.641-2.353L22.77.862c.484-.824 1.556-1.107 2.395-.63.838.475 1.125 1.529.641 2.353l-1.87 3.183c-.324.552-.914.861-1.52.861z" transform="translate(14) rotate(15 18.488 141.741)"/>
                </g>
                <path fill="#73C3FF" d="M13.575 45.949l-2.436 9.25-3.091-.842 2.436-9.25c.255-.97 1.155-1.568 2.008-1.336.853.233 1.338 1.208 1.083 2.178z" transform="translate(14)"/>
                <path fill="#002A54" d="M25.802 23.805L10.777 19.71c-.972-.265-1.965.296-2.216 1.25L.78 50.499c-.251.956.334 1.945 1.3 2.232l11.268 3.072c2.165.567 4.36-.147 5.733-1.68.564-.626.99-1.392 1.218-2.26l6.807-25.846c.251-.956-.333-1.946-1.305-2.21z" transform="translate(14)"/>
                <path fill="#73C3FF" d="M13.58 45.93l-2.441 9.27-3.091-.843 2.44-9.27c.253-.958 1.15-1.548 2.004-1.316.853.233 1.34 1.2 1.088 2.16z" transform="translate(14)"/>
            </g>
        </g>
    </g>
</svg>
