<svg xmlns="http://www.w3.org/2000/svg" width="225" height="265" viewBox="0 0 225 265">
    <g fill="none" fill-rule="evenodd">
        <ellipse cx="112.5" cy="254.5" fill="#D8D8D8" rx="56.5" ry="10.5"/>
        <path fill="#002A54" d="M225 219H0L16.247 80h192.506z"/>
        <path fill="#FFF" d="M11 209L24.964 90h175.072L214 209z" opacity=".2" style="mix-blend-mode:screen"/>
        <path fill="#033259" d="M111 90h3v119h-3zM140.14 90.167l3.25-.126 4.652 119.429-3.248.126zM169.356 90.216l3.241-.253 9.32 119.423-3.241.253zM77.087 209.457l4.674-119.429 3.249.127-4.674 119.429zM43.178 209.361l9.361-119.42 3.241.255-9.361 119.42z" opacity=".64"/>
        <path fill="#033259" d="M22 112h181v3H22zM20 136h186v3H20zM17 160h192v3H17zM14 184h198v3H14z" opacity=".64"/>
        <path fill="#414042" d="M95 218h35v29H95z"/>
        <path fill="#505050" d="M85 240h55v14H85z"/>
        <path fill="#FFF" d="M225 219.023L208.68 80H112v174h27.746v-14.103h-10.06v-20.874z" opacity=".1" style="mix-blend-mode:screen"/>
        <circle cx="113.5" cy="64.5" r="31.5" fill="#FFDC00"/>
        <path fill="#FFDC00" d="M114.486 27.18c2.526.003 5.045.278 7.514.82a71.156 71.156 0 0 1-7.514-28A71.157 71.157 0 0 1 107 27.97c2.46-.533 4.97-.798 7.486-.79zM150.792 64.514A35.261 35.261 0 0 1 150 72a71.394 71.394 0 0 1 28-7.486A71.423 71.423 0 0 1 150 57c.532 2.47.797 4.99.792 7.514zM114.486 100.822A34.829 34.829 0 0 1 107 100a71.29 71.29 0 0 1 7.486 28A71.288 71.288 0 0 1 122 100c-2.47.542-4.988.818-7.514.822zM77.208 64.514c-.006-2.525.26-5.044.792-7.514a71.556 71.556 0 0 1-28 7.514A71.498 71.498 0 0 1 78 72c-.53-2.46-.796-4.97-.792-7.486zM88.131 37.975A36.79 36.79 0 0 1 94 33.224 71 71 0 0 1 69 19a69.298 69.298 0 0 1 14.32 25 35.008 35.008 0 0 1 4.811-6.025zM139.886 38.152A36.931 36.931 0 0 1 144.693 44 70.236 70.236 0 0 1 159 19a69.87 69.87 0 0 1-25 14.357 37.905 37.905 0 0 1 5.886 4.795zM139.841 89.915A37.95 37.95 0 0 1 134 94.693 70.134 70.134 0 0 1 159 109a69.89 69.89 0 0 1-14.34-25 36.847 36.847 0 0 1-4.819 5.915zM87.998 89.848A35.238 35.238 0 0 1 83.219 84 70.238 70.238 0 0 1 69 109a70.219 70.219 0 0 1 25-14.357 36.647 36.647 0 0 1-6.002-4.795z"/>
    </g>
</svg>
