<svg xmlns="http://www.w3.org/2000/svg" xmlns:xlink="http://www.w3.org/1999/xlink" width="246" height="199" viewBox="0 0 246 199">
    <defs>
        <path id="prefix__c" d="M7.055.238C5.226 3.182 2.929 5.84.245 8.112c-.177.15-.105.426.125.474 1.012.21 2.002.507 2.958.888.96.382 1.88.845 2.753 1.386.199.122.455-.026.442-.25C6.32 7.19 6.677 3.76 7.581.446 7.636.245 7.468.101 7.298.1c-.091 0-.184.042-.243.138z"/>
        <path id="prefix__e" d="M2.4.394c-.21 1.017-.51 2.011-.892 2.972C1.13 4.324.672 5.243.137 6.114c-.122.198.025.454.25.44 3.421-.198 6.853.165 10.169 1.07.31.086.484-.353.208-.525-2.95-1.835-5.612-4.138-7.89-6.83-.057-.067-.132-.098-.207-.098-.12 0-.237.081-.266.223z"/>
        <path id="prefix__g" d="M.492.713c3.18 1.89 6.04 4.305 8.466 7.15.12.14.338.079.375-.104.214-1.053.524-2.082.923-3.075.399-.999.886-1.956 1.457-2.86.099-.157-.013-.36-.193-.349C7.863 1.7 4.193 1.302.657.301.636.295.615.292.595.292.392.292.292.595.492.713z"/>
        <path id="prefix__i" d="M.284.415c.896 3.313 1.235 6.739.998 10.15-.016.226.242.375.442.252.887-.552 1.828-1.025 2.812-1.413.96-.375 1.955-.67 2.97-.882.23-.049.302-.326.125-.475C4.938 5.778 2.637 3.132.808.207.748.112.656.07.565.07.395.07.23.214.284.415z"/>
        <path id="prefix__k" d="M10.542.325c-3.302.89-6.72 1.23-10.129 1-.223-.014-.372.24-.253.44.53.885.99 1.816 1.372 2.784.385.963.688 1.96.907 2.979.05.229.326.297.475.122C5.176 4.964 7.82 2.67 10.749.852c.252-.156.129-.537-.13-.537-.025 0-.05.003-.077.01z"/>
        <path id="prefix__m" d="M.364 1.302C1.19 2.759 2.14 3.992 3 5.423c.84 1.4 1.893 2.244 3.515 2.341 3.703.223 11.447.856 11.625.858 1.152.01.675-.89.457-1.145-1.132-1.322-2.314-2.6-3.437-3.93-.776-.92-1.738-1.392-2.873-1.57C10.377 1.676 2.846.473.879.22.786.21.596.159.422.159c-.33 0-.603.18-.058 1.144z"/>
        <path id="prefix__o" d="M.364 1.302C1.19 2.759 2.14 3.992 3 5.423c.84 1.4 1.893 2.244 3.515 2.341 3.703.223 11.447.856 11.625.858 1.152.01.675-.89.457-1.145-1.132-1.322-2.314-2.6-3.437-3.93-.776-.92-1.738-1.392-2.873-1.57C10.377 1.676 2.846.473.879.22.786.21.596.159.422.159c-.33 0-.603.18-.058 1.144z"/>
        <path id="prefix__q" d="M.367 1.376c1.364 1.954 2.6 3.715 3.964 5.669.672.962 1.582 1.526 2.699 1.56 2.137.063 10.1.042 11.94.002 1.296.006 1.052-.913.564-1.363-1.45-1.655-2.944-3.267-4.39-4.923-.743-.85-1.651-1.292-2.733-1.393C10.281.728 2.547.333.808.25H.784C.466.25-.194.528.367 1.375z"/>
        <path id="prefix__s" d="M.367 1.376c1.364 1.954 2.6 3.715 3.964 5.669.672.962 1.582 1.526 2.699 1.56 2.137.063 10.1.042 11.94.002 1.296.006 1.052-.913.564-1.363-1.45-1.655-2.944-3.267-4.39-4.923-.743-.85-1.651-1.292-2.733-1.393C10.281.728 2.547.333.808.25H.784C.466.25-.194.528.367 1.375z"/>
        <path id="prefix__u" d="M1.442.282c-1.213.09-1.81.514-.88 1.89 1.714 2.569 3.516 5.07 5.19 7.668 1.138 1.763 2.653 2.283 4.515 1.987 3.5-.557 6.999-1.123 10.491-1.73.422-.073.976-.33 1.14-.678.123-.262-.194-.892-.465-1.214-1.922-2.29-3.881-4.542-5.83-6.805C14.854.53 13.895.125 12.82.105 12.605.101 12.313.1 11.959.1 9.23.1 2.887.21 1.441.282z"/>
        <path id="prefix__w" d="M1.442.282c-1.213.09-1.81.514-.88 1.89 1.714 2.569 3.516 5.07 5.19 7.668 1.138 1.763 2.653 2.283 4.515 1.987 3.5-.557 6.999-1.123 10.491-1.73.422-.073.976-.33 1.14-.678.123-.262-.194-.892-.465-1.214-1.922-2.29-3.881-4.542-5.83-6.805C14.854.53 13.895.125 12.82.105 12.605.101 12.313.1 11.959.1 9.23.1 2.887.21 1.441.282z"/>
        <path id="prefix__y" d="M.438 1.18c1.13 1.286 2.292 2.54 3.393 3.853.882 1.052 1.737 1.337 3.031 1.438 1.413.11 5.36.292 6.907.417 1.057.085 1.002-.241.834-.41-1.293-1.3-2.484-2.549-3.751-3.859-.657-.68-1.399-.823-2.075-.959C6.585 1.222 3.476.695 1.258.404 1.008.37.805.357.643.357c-1.097 0-.34.667-.204.823z"/>
        <path id="prefix__A" d="M.438 1.18c1.13 1.286 2.292 2.54 3.393 3.853.882 1.052 1.737 1.337 3.031 1.438 1.413.11 5.36.292 6.907.417 1.057.085 1.002-.241.834-.41-1.293-1.3-2.484-2.549-3.751-3.859-.657-.68-1.399-.823-2.075-.959C6.585 1.222 3.476.695 1.258.404 1.008.37.805.357.643.357c-1.097 0-.34.667-.204.823z"/>
        <path id="prefix__C" d="M.593 1.323c1.495 1.658 2.85 3.295 4.335 4.962.834.937 1.778 1.338 2.99 1.331.748-.004 1.497-.004 2.245-.004 1.478.001 2.955.002 4.432-.033 1.369-.034 1.314-.436.579-1.19-1.12-1.15-3.243-3.3-4.108-4.18C10.192 1.32 9.459.917 8.443.84 8.03.81 3.575.56 1.153.394 1.047.387.944.382.847.382c-.668 0-1.003.202-.253.941z"/>
        <path id="prefix__E" d="M.593 1.323c1.495 1.658 2.85 3.295 4.335 4.962.834.937 1.778 1.338 2.99 1.331.748-.004 1.497-.004 2.245-.004 1.478.001 2.955.002 4.432-.033 1.369-.034 1.314-.436.579-1.19-1.12-1.15-3.243-3.3-4.108-4.18C10.192 1.32 9.459.917 8.443.84 8.03.81 3.575.56 1.153.394 1.047.387.944.382.847.382c-.668 0-1.003.202-.253.941z"/>
        <path id="prefix__G" d="M8.614.366C6.874.419 1.701.456.86.522c-.679.054-.824.432-.434 1 .1.149 4.273 4.726 6.254 6.864.892.964 1.977 1.44 3.313 1.198.78-.14 5.638-.845 7.277-1.12.776-.13.655-.453-.013-1.105-1.378-1.347-5.227-5.279-5.85-5.876-.835-.8-1.49-1.12-2.602-1.12-.062 0-.126 0-.19.003z"/>
        <path id="prefix__I" d="M8.614.366C6.874.419 1.701.456.86.522c-.679.054-.824.432-.434 1 .1.149 4.273 4.726 6.254 6.864.892.964 1.977 1.44 3.313 1.198.78-.14 5.638-.845 7.277-1.12.776-.13.655-.453-.013-1.105-1.378-1.347-5.227-5.279-5.85-5.876-.835-.8-1.49-1.12-2.602-1.12-.062 0-.126 0-.19.003z"/>
        <filter id="prefix__a" width="120.9%" height="120.9%" x="-10.4%" y="-7.5%" filterUnits="objectBoundingBox">
            <feOffset dy="2" in="SourceAlpha" result="shadowOffsetOuter1"/>
            <feGaussianBlur in="shadowOffsetOuter1" result="shadowBlurOuter1" stdDeviation="2"/>
            <feColorMatrix in="shadowBlurOuter1" values="0 0 0 0 0 0 0 0 0 0.164705882 0 0 0 0 0.329411765 0 0 0 0.078944493 0"/>
        </filter>
        <rect id="prefix__b" width="67" height="67" x="0" y="0" rx="11"/>
    </defs>
    <g fill="none" fill-rule="evenodd">
        <path fill="#F1F3F5" d="M0 0H246V199H0z"/>
        <g transform="translate(14 125)">
            <ellipse cx="29.5" cy="45.5" fill="#D8D8D8" rx="14.5" ry="2.5"/>
            <path fill="#002A54" d="M58 35.962L0 35.962 4.188 0.066 53.812 0.066z"/>
            <path fill="#FFF" opacity=".2" style="mix-blend-mode:screen" d="M2.836 33.379L6.435 2.648 51.565 2.648 55.164 33.379z"/>
            <path fill="#033259" d="M28.613 2.648H29.613V33.379000000000005H28.613z" opacity=".64"/>
            <path fill="#033259" d="M36.725 2.664L37.563 2.664 37.562 33.528 36.724 33.528z" opacity=".64" transform="rotate(-2.23 37.144 18.096)"/>
            <path fill="#033259" d="M44.858 2.625L45.696 2.625 45.693 33.558 44.855 33.558z" opacity=".64" transform="rotate(-4.46 45.275 18.092)"/>
            <path fill="#033259" d="M5.46 17.675L36.325 17.673 36.325 18.511 5.46 18.513z" opacity=".64" transform="rotate(-87.76 20.893 18.093)"/>
            <path fill="#033259" d="M-2.712 17.668L28.221 17.665 28.221 18.503 -2.712 18.506z" opacity=".64" transform="rotate(-85.52 12.755 18.086)"/>
            <path fill="#033259" d="M5.671 8.33H52.329V9.33H5.671zM5.156 14.528H53.103V15.528H5.156zM4.382 20.725H53.875V21.725H4.382zM3.609 26.923H54.649V27.923H3.609z" opacity=".64"/>
            <path fill="#414042" d="M24.489 35.703H33.511V43.192H24.489z"/>
            <path fill="#505050" d="M21.911 41.385H36.089V45H21.911z"/>
            <path fill="#FFF" opacity=".1" style="mix-blend-mode:screen" d="M58 35.967L53.793 0.066 28.871 0.066 28.871 45 36.023 45 36.023 41.358 33.43 41.358 33.43 35.967z"/>
        </g>
        <g transform="translate(91 125)">
            <ellipse cx="29.5" cy="45.5" fill="#D8D8D8" rx="14.5" ry="2.5"/>
            <path fill="#002A54" d="M58 35.962L0 35.962 4.188 0.066 53.812 0.066z"/>
            <path fill="#FFF" opacity=".2" style="mix-blend-mode:screen" d="M2.836 33.379L6.435 2.648 51.565 2.648 55.164 33.379z"/>
            <path fill="#033259" d="M28.613 2.648H29.613V33.379000000000005H28.613z" opacity=".64"/>
            <path fill="#033259" d="M36.725 2.664L37.563 2.664 37.562 33.528 36.724 33.528z" opacity=".64" transform="rotate(-2.23 37.144 18.096)"/>
            <path fill="#033259" d="M44.858 2.625L45.696 2.625 45.693 33.558 44.855 33.558z" opacity=".64" transform="rotate(-4.46 45.275 18.092)"/>
            <path fill="#033259" d="M5.46 17.675L36.325 17.673 36.325 18.511 5.46 18.513z" opacity=".64" transform="rotate(-87.76 20.893 18.093)"/>
            <path fill="#033259" d="M-2.712 17.668L28.221 17.665 28.221 18.503 -2.712 18.506z" opacity=".64" transform="rotate(-85.52 12.755 18.086)"/>
            <path fill="#033259" d="M5.671 8.33H52.329V9.33H5.671zM5.156 14.528H53.103V15.528H5.156zM4.382 20.725H53.875V21.725H4.382zM3.609 26.923H54.649V27.923H3.609z" opacity=".64"/>
            <path fill="#414042" d="M24.489 35.703H33.511V43.192H24.489z"/>
            <path fill="#505050" d="M21.911 41.385H36.089V45H21.911z"/>
            <path fill="#FFF" opacity=".1" style="mix-blend-mode:screen" d="M58 35.967L53.793 0.066 28.871 0.066 28.871 45 36.023 45 36.023 41.358 33.43 41.358 33.43 35.967z"/>
        </g>
        <g transform="translate(168 125)">
            <ellipse cx="29.5" cy="45.5" fill="#D8D8D8" rx="14.5" ry="2.5"/>
            <path fill="#002A54" d="M58 35.962L0 35.962 4.188 0.066 53.812 0.066z"/>
            <path fill="#FFF" opacity=".2" style="mix-blend-mode:screen" d="M2.836 33.379L6.435 2.648 51.565 2.648 55.164 33.379z"/>
            <path fill="#033259" d="M28.613 2.648H29.613V33.379000000000005H28.613z" opacity=".64"/>
            <path fill="#033259" d="M36.725 2.664L37.563 2.664 37.562 33.528 36.724 33.528z" opacity=".64" transform="rotate(-2.23 37.144 18.096)"/>
            <path fill="#033259" d="M44.858 2.625L45.696 2.625 45.693 33.558 44.855 33.558z" opacity=".64" transform="rotate(-4.46 45.275 18.092)"/>
            <path fill="#033259" d="M5.46 17.675L36.325 17.673 36.325 18.511 5.46 18.513z" opacity=".64" transform="rotate(-87.76 20.893 18.093)"/>
            <path fill="#033259" d="M-2.712 17.668L28.221 17.665 28.221 18.503 -2.712 18.506z" opacity=".64" transform="rotate(-85.52 12.755 18.086)"/>
            <path fill="#033259" d="M5.671 8.33H52.329V9.33H5.671zM5.156 14.528H53.103V15.528H5.156zM4.382 20.725H53.875V21.725H4.382zM3.609 26.923H54.649V27.923H3.609z" opacity=".64"/>
            <path fill="#414042" d="M24.489 35.703H33.511V43.192H24.489z"/>
            <path fill="#505050" d="M21.911 41.385H36.089V45H21.911z"/>
            <path fill="#FFF" opacity=".1" style="mix-blend-mode:screen" d="M58 35.967L53.793 0.066 28.871 0.066 28.871 45 36.023 45 36.023 41.358 33.43 41.358 33.43 35.967z"/>
        </g>
        <g transform="translate(87 19)">
            <use fill="#000" filter="url(#prefix__a)" xlink:href="#prefix__b"/>
            <use fill="#FFF" xlink:href="#prefix__b"/>
            <g>
                <g>
                    <path fill="#F6C74F" d="M26.039 15.047c.63.106 5.095 3.896 10.012 8.21.22.194.557.153.73-.086.828-1.134 1.506-2.413 1.994-3.82 2.436-7.027-.891-14.88-7.601-17.936-7.465-3.4-16.143.208-19.139 7.822-.377.96-.646 1.935-.811 2.914-.051.296.144.577.437.621 5.29.81 10.712 1.656 14.378 2.275" transform="translate(8 7) translate(1 11)"/>
                    <path fill="#002A54" d="M25.27 29.57c1.096.019 2.07.407 2.833 1.244 1.98 2.175 3.972 4.34 5.926 6.539.275.31.598.915.473 1.167-.167.335-.73.582-1.158.652-3.551.583-7.109 1.126-10.667 1.661-1.893.285-3.434-.214-4.59-1.909-1.702-2.495-3.534-4.9-5.276-7.368-.946-1.322-.34-1.73.894-1.816 1.66-.079 9.676-.204 11.566-.17M12.607 29.075c-1.131-.034-2.054-.596-2.734-1.554-1.382-1.947-2.633-3.703-4.015-5.65-.583-.866.136-1.136.447-1.121 1.761.082 9.595.475 11.752.674 1.095.102 2.015.542 2.767 1.388 1.465 1.651 2.978 3.258 4.447 4.907.494.448.741 1.364-.571 1.358-1.865.04-9.93.061-12.093-.002M45.268 36.27c.658.64.777.958.013 1.086-1.613.27-6.397.962-7.165 1.1-1.316.237-2.385-.23-3.263-1.176-1.951-2.1-6.059-6.597-6.159-6.743-.384-.558-.24-.93.428-.983.828-.065 5.922-.1 7.636-.153 1.21-.037 1.881.268 2.75 1.098.613.586 4.403 4.448 5.76 5.77M6.366 20.182c-1.585-.093-2.614-.893-3.436-2.222-.839-1.359-1.597-2.184-2.404-3.567-.815-1.397.41-1.318.674-1.285 1.922.24 8.941 1.296 10.807 1.58 1.11.17 2.05.618 2.808 1.49 1.098 1.263 2.252 2.476 3.36 3.73.212.243.678 1.097-.448 1.087-.174-.001-7.742-.602-11.36-.813M36.71 27.834c.756.765.813 1.174-.596 1.207-2.289.055-4.579.025-6.869.038-1.246.007-2.217-.399-3.075-1.35-1.527-1.69-2.92-3.352-4.459-5.032-.883-.859-.305-1.002.577-.943 2.49.167 7.072.42 7.499.452 1.044.078 1.798.487 2.697 1.389.89.893 3.074 3.073 4.226 4.239" transform="translate(8 7) translate(1 11)"/>
                </g>
                <g transform="translate(8 7) translate(29)">
                    <mask id="prefix__d" fill="#fff">
                        <use xlink:href="#prefix__c"/>
                    </mask>
                    <path fill="#F6C74F" d="M3.731 -6.562L15.001 -2.101 7.878 14.205 -3.391 9.744z" mask="url(#prefix__d)"/>
                </g>
                <g transform="translate(8 7) translate(40 29)">
                    <mask id="prefix__f" fill="#fff">
                        <use xlink:href="#prefix__e"/>
                    </mask>
                    <path fill="#F6C74F" d="M1.256 -3.361L17.561 3.762 13.101 15.031 -3.205 7.908z" mask="url(#prefix__f)"/>
                </g>
                <g transform="translate(8 7) translate(0 15)">
                    <mask id="prefix__h" fill="#fff">
                        <use xlink:href="#prefix__g"/>
                    </mask>
                    <path fill="#F6C74F" d="M-1.481 -6.994L15.036 0.128 10.518 11.398 -6 4.275z" mask="url(#prefix__h)"/>
                </g>
                <g transform="translate(8 7) translate(15)">
                    <mask id="prefix__j" fill="#fff">
                        <use xlink:href="#prefix__i"/>
                    </mask>
                    <path fill="#F6C74F" d="M-1.849 -5.189L13.929 1.056 7.368 16.075 -8.409 9.83z" mask="url(#prefix__j)"/>
                </g>
                <g transform="translate(8 7) translate(40 15)">
                    <mask id="prefix__l" fill="#fff">
                        <use xlink:href="#prefix__k"/>
                    </mask>
                    <path fill="#F6C74F" d="M1.17 -8.379L16.189 -1.818 9.944 13.959 -5.075 7.399z" mask="url(#prefix__l)"/>
                </g>
                <g transform="translate(8 7) translate(1 23)">
                    <mask id="prefix__n" fill="#fff">
                        <use xlink:href="#prefix__m"/>
                    </mask>
                    <path fill="#8192A6" d="M11.71 10.353L4.87 0.683 5.222 0.414 12.061 10.084z" mask="url(#prefix__n)"/>
                    <g>
                        <mask id="prefix__p" fill="#fff">
                            <use xlink:href="#prefix__o"/>
                        </mask>
                        <path fill="#8192A6" d="M17.203 10.287L9.714 0.92 10.05 0.631 17.539 9.999z" mask="url(#prefix__p)"/>
                    </g>
                </g>
                <g transform="translate(8 7) translate(6 31)">
                    <mask id="prefix__r" fill="#fff">
                        <use xlink:href="#prefix__q"/>
                    </mask>
                    <path fill="#8192A6" d="M11.491 10.165L4.468 0.258 4.808 0.004 11.83 9.91z" mask="url(#prefix__r)"/>
                    <g>
                        <mask id="prefix__t" fill="#fff">
                            <use xlink:href="#prefix__s"/>
                        </mask>
                        <path fill="#8192A6" d="M24.722 19.017L10.072 0.584 10.586 0.67 25.046 18.742z" mask="url(#prefix__t)"/>
                    </g>
                </g>
                <g transform="translate(8 7) translate(13 40)">
                    <mask id="prefix__v" fill="#fff">
                        <use xlink:href="#prefix__u"/>
                    </mask>
                    <path fill="#8192A6" d="M12.954 12.889L-1.116 -7.737 -0.778 -8.001 13.292 12.625z" mask="url(#prefix__v)"/>
                    <g>
                        <mask id="prefix__x" fill="#fff">
                            <use xlink:href="#prefix__w"/>
                        </mask>
                        <path fill="#8192A6" d="M18.908 11.375L9.691 -0.55 10.014 -0.835 19.231 11.09z" mask="url(#prefix__x)"/>
                    </g>
                </g>
                <path fill="#002A54" d="M30.05 31.987c-1.586-.115-5.63-.28-7.077-.381-1.327-.093-2.202-.355-3.107-1.32-1.127-1.202-2.318-2.352-3.475-3.53-.161-.166-1.158-.947.84-.712 2.27.266 5.457.749 7.704 1.151.693.124 1.452.256 2.126.88 1.298 1.2 2.518 2.346 3.843 3.536.172.156.228.454-.854.376" transform="translate(8 7)"/>
                <g transform="translate(8 7) translate(16 26)">
                    <mask id="prefix__z" fill="#fff">
                        <use xlink:href="#prefix__y"/>
                    </mask>
                    <path fill="#8192A6" d="M27.484 23.287L7.185 1.002 7.367 0.819 27.666 23.104z" mask="url(#prefix__z)"/>
                    <g>
                        <mask id="prefix__B" fill="#fff">
                            <use xlink:href="#prefix__A"/>
                        </mask>
                        <path fill="#8192A6" d="M9.586 8.46L2.597 0.333 2.783 0.155 9.772 8.281z" mask="url(#prefix__B)"/>
                    </g>
                </g>
                <g transform="translate(8 7) translate(22 32)">
                    <mask id="prefix__D" fill="#fff">
                        <use xlink:href="#prefix__C"/>
                    </mask>
                    <path fill="#8192A6" d="M13.859 7.962L2.03 -4.634 2.21 -4.81 14.038 7.786z" mask="url(#prefix__D)"/>
                    <g>
                        <mask id="prefix__F" fill="#fff">
                            <use xlink:href="#prefix__E"/>
                        </mask>
                        <path fill="#8192A6" d="M10.786 9.735L1.34 -0.957 1.523 -1.128 10.969 9.563z" mask="url(#prefix__F)"/>
                    </g>
                </g>
                <g transform="translate(8 7) translate(29 40)">
                    <mask id="prefix__H" fill="#fff">
                        <use xlink:href="#prefix__G"/>
                    </mask>
                    <path fill="#8192A6" d="M15.47 9.288L-5.165 -12.611 -4.977 -12.793 15.658 9.106z" mask="url(#prefix__H)"/>
                    <g>
                        <mask id="prefix__J" fill="#fff">
                            <use xlink:href="#prefix__I"/>
                        </mask>
                        <path fill="#8192A6" d="M11.078 9.929L1.677 -0.399 1.869 -0.576 11.321 9.682z" mask="url(#prefix__J)"/>
                    </g>
                </g>
            </g>
        </g>
        <path fill="#F6C74F" fill-rule="nonzero" d="M197.331 136.214l1.78 4.104 4.56.382c.316.026.445.41.205.613l-3.458 2.917 1.036 4.34c.072.301-.264.539-.536.378l-3.918-2.3-3.918 2.3c-.272.16-.607-.077-.535-.378l1.036-4.34-3.458-2.918c-.24-.202-.113-.587.204-.613l4.56-.381 1.78-4.104c.124-.285.538-.285.662 0z"/>
        <path fill="#002A54" fill-rule="nonzero" d="M119.69 96.128l-6.562 6.563c-.17.17-.17.447 0 .618.171.171.448.171.619 0l5.816-5.815v19.068c0 .242.195.438.437.438s.438-.196.438-.438V97.494l5.815 5.815c.171.171.448.171.619 0 .085-.085.128-.197.128-.309 0-.112-.043-.224-.128-.31l-6.563-6.562c-.17-.17-.447-.17-.618 0zM77.115 98.947h-9.28c-.242 0-.438.196-.438.438 0 .241.196.437.437.437h8.225l-13.484 13.484c-.17.17-.17.448 0 .619.171.17.448.17.62 0l13.483-13.484v8.225c0 .241.196.437.437.437.121 0 .23-.049.31-.128.079-.08.128-.189.128-.31v-9.28c0-.242-.196-.438-.438-.438zM162.447 99.385v9.28c0 .242.196.438.438.438.241 0 .437-.196.437-.437v-8.225l13.484 13.484c.17.17.448.17.619 0 .17-.171.17-.448 0-.62L163.94 99.823h8.225c.241 0 .437-.196.437-.437 0-.121-.049-.23-.128-.31-.08-.079-.189-.128-.31-.128h-9.28c-.242 0-.438.196-.438.438z"/>
    </g>
</svg>
